SplineFontDB: 3.2
FontName: LiberationMono
FullName: Liberation Mono
FamilyName: Liberation Mono
Weight: Book
Copyright: Digitized data copyright (c) 2010 Google Corporation.\nCopyright (c) 2012 Red Hat, Inc.
Version: 2.1.5
ItalicAngle: 0
UnderlinePosition: -435
UnderlineWidth: 84
Ascent: 1638
Descent: 410
InvalidEm: 0
LayerCount: 2
Layer: 0 1 "Back" 1
Layer: 1 1 "Fore" 0
XUID: [1021 445 290132255 16497751]
FSType: 0
OS2Version: 3
OS2_WeightWidthSlopeOnly: 0
OS2_UseTypoMetrics: 0
CreationTime: 1277020711
ModificationTime: 1633006226
PfmFamily: 17
TTFWeight: 400
TTFWidth: 5
LineGap: 0
VLineGap: 0
Panose: 2 7 4 9 2 2 5 2 4 4
OS2TypoAscent: 1255
OS2TypoAOffset: 0
OS2TypoDescent: -386
OS2TypoDOffset: 0
OS2TypoLinegap: 0
OS2WinAscent: 1705
OS2WinAOffset: 0
OS2WinDescent: 615
OS2WinDOffset: 0
HheadAscent: 1705
HheadAOffset: 0
HheadDescent: -615
HheadDOffset: 0
OS2SubXSize: 1434
OS2SubYSize: 1331
OS2SubXOff: 0
OS2SubYOff: 285
OS2SupXSize: 1434
OS2SupYSize: 1331
OS2SupXOff: 0
OS2SupYOff: 865
OS2StrikeYSize: 102
OS2StrikeYPos: 530
OS2FamilyClass: 2053
OS2Vendor: '1ASC'
OS2CodePages: 600001bf.dff70000
OS2UnicodeRanges: e0000aff.400078ff.00000001.00000000
Lookup: 4 1 0 "'dlig' Discretionary Ligatures in Hebrew lookup 0" { "'dlig' Discretionary Ligatures in Hebrew lookup 0 subtable"  } ['dlig' ('hebr' <'dflt' > ) ]
Lookup: 4 1 0 "'ccmp' Glyph Composition/Decomposition in Hebrew lookup 1" { "'ccmp' Glyph Composition/Decomposition in Hebrew lookup 1 subtable"  } ['ccmp' ('hebr' <'dflt' > ) ]
Lookup: 6 1 0 "'ccmp' Glyph Composition/Decomposition in Hebrew lookup 2" { "'ccmp' Glyph Composition/Decomposition in Hebrew lookup 2 subtable"  } ['ccmp' ('hebr' <'dflt' > ) ]
Lookup: 4 1 0 "Ligature Substitution lookup 3" { "Ligature Substitution lookup 3 subtable"  } []

StartChar: .notdef
Encoding: 65536 -1 0
Width: 1229
GlyphClass: 2
Flags: W
LayerCount: 2
Fore
SplineSet
127 0 m 1,0,-1
 127 750 l 1,1,-1
 897 750 l 1,2,-1
 897 0 l 1,3,-1
 127 0 l 1,0,-1
768 621 m 1,4,-1
 256 621 l 1,5,-1
 256 129 l 1,6,-1
 768 129 l 1,7,-1
 768 621 l 1,4,-1
EndSplineSet
Validated: 1
EndChar

StartChar: exclam
Encoding: 33 33 4
Width: 1229
GlyphClass: 2
Flags: W
LayerCount: 2
Fore
SplineSet
689 397 m 1,0,-1
 541 397 l 1,1,-1
 517 1348 l 1,2,-1
 713 1348 l 1,3,-1
 689 397 l 1,0,-1
515 0 m 1,4,-1
 515 201 l 1,5,-1
 709 201 l 1,6,-1
 709 0 l 1,7,-1
 515 0 l 1,4,-1
EndSplineSet
Validated: 1
EndChar

StartChar: quotedbl
Encoding: 34 34 5
Width: 1229
GlyphClass: 2
Flags: W
LayerCount: 2
Fore
SplineSet
908 845 m 1,0,-1
 766 845 l 1,1,-1
 726 1484 l 1,2,-1
 950 1484 l 1,3,-1
 908 845 l 1,0,-1
459 845 m 1,4,-1
 318 845 l 1,5,-1
 277 1484 l 1,6,-1
 501 1484 l 1,7,-1
 459 845 l 1,4,-1
EndSplineSet
Validated: 1
EndChar

StartChar: numbersign
Encoding: 35 35 6
Width: 1229
GlyphClass: 2
Flags: W
LayerCount: 2
Fore
SplineSet
930 833 m 1,0,-1
 863 516 l 1,1,-1
 1123 516 l 1,2,-1
 1123 408 l 1,3,-1
 840 408 l 1,4,-1
 752 0 l 1,5,-1
 642 0 l 1,6,-1
 728 408 l 1,7,-1
 365 408 l 1,8,-1
 281 0 l 1,9,-1
 171 0 l 1,10,-1
 255 408 l 1,11,-1
 54 408 l 1,12,-1
 54 516 l 1,13,-1
 279 516 l 1,14,-1
 346 833 l 1,15,-1
 105 833 l 1,16,-1
 105 941 l 1,17,-1
 368 941 l 1,18,-1
 457 1349 l 1,19,-1
 567 1349 l 1,20,-1
 479 941 l 1,21,-1
 842 941 l 1,22,-1
 930 1349 l 1,23,-1
 1040 1349 l 1,24,-1
 952 941 l 1,25,-1
 1163 941 l 1,26,-1
 1163 833 l 1,27,-1
 930 833 l 1,0,-1
459 833 m 1,28,-1
 390 516 l 1,29,-1
 752 516 l 1,30,-1
 819 833 l 1,31,-1
 459 833 l 1,28,-1
EndSplineSet
Validated: 1
EndChar

StartChar: dollar
Encoding: 36 36 7
Width: 1229
GlyphClass: 2
Flags: W
LayerCount: 2
Fore
SplineSet
1150 380 m 0,0,1
 1150 218 1150 218 1030 123.5 c 128,-1,2
 910 29 910 29 686 20 c 1,3,-1
 686 -141 l 1,4,-1
 558 -141 l 1,5,-1
 558 20 l 1,6,7
 136 34 136 34 66 379 c 1,8,-1
 236 416 l 1,9,10
 262 290 262 290 342 227.5 c 128,-1,11
 422 165 422 165 558 158 c 1,12,-1
 558 647 l 1,13,-1
 528 655 l 1,14,15
 360 696 360 696 281.5 744.5 c 128,-1,16
 203 793 203 793 166.5 861 c 128,-1,17
 130 929 130 929 130 1023 c 0,18,19
 130 1172 130 1172 239.5 1255.5 c 128,-1,20
 349 1339 349 1339 558 1346 c 1,21,-1
 558 1476 l 1,22,-1
 686 1476 l 1,23,-1
 686 1346 l 1,24,25
 872 1339 872 1339 973 1266.5 c 128,-1,26
 1074 1194 1074 1194 1119 1025 c 1,27,-1
 945 992 l 1,28,29
 923 1098 923 1098 859 1152 c 128,-1,30
 795 1206 795 1206 686 1213 c 1,31,-1
 686 787 l 1,32,33
 858 745 858 745 935 709 c 128,-1,34
 1012 673 1012 673 1058 627 c 128,-1,35
 1104 581 1104 581 1127 520.5 c 128,-1,36
 1150 460 1150 460 1150 380 c 0,0,1
302 1018 m 0,37,38
 302 961 302 961 325.5 922.5 c 128,-1,39
 349 884 349 884 394 858.5 c 128,-1,40
 439 833 439 833 558 802 c 1,41,-1
 558 1215 l 1,42,43
 432 1210 432 1210 367 1159.5 c 128,-1,44
 302 1109 302 1109 302 1018 c 0,37,38
978 383 m 0,45,46
 978 449 978 449 950.5 492 c 128,-1,47
 923 535 923 535 873 563.5 c 128,-1,48
 823 592 823 592 686 627 c 1,49,-1
 686 156 l 1,50,51
 830 165 830 165 904 223.5 c 128,-1,52
 978 282 978 282 978 383 c 0,45,46
EndSplineSet
Validated: 1
EndChar

StartChar: percent
Encoding: 37 37 8
Width: 1229
GlyphClass: 2
Flags: W
LayerCount: 2
Fore
SplineSet
221 0 m 1,0,-1
 76 0 l 1,1,-1
 1008 1353 l 1,2,-1
 1155 1353 l 1,3,-1
 221 0 l 1,0,-1
291 1361 m 0,4,5
 574 1361 574 1361 574 1025 c 0,6,7
 574 858 574 858 501 771 c 128,-1,8
 428 684 428 684 287 684 c 256,9,10
 146 684 146 684 73 770 c 128,-1,11
 0 856 0 856 0 1025 c 0,12,13
 0 1192 0 1192 70 1276.5 c 128,-1,14
 140 1361 140 1361 291 1361 c 0,4,5
427 1025 m 0,15,16
 427 1144 427 1144 395.5 1198.5 c 128,-1,17
 364 1253 364 1253 290 1253 c 0,18,19
 213 1253 213 1253 180 1200 c 128,-1,20
 147 1147 147 1147 147 1025 c 0,21,22
 147 909 147 909 180 853 c 128,-1,23
 213 797 213 797 289 797 c 0,24,25
 360 797 360 797 393.5 852.5 c 128,-1,26
 427 908 427 908 427 1025 c 0,15,16
947 665 m 0,27,28
 1230 665 1230 665 1230 329 c 0,29,30
 1230 162 1230 162 1157 75 c 128,-1,31
 1084 -12 1084 -12 943 -12 c 256,32,33
 802 -12 802 -12 729 74 c 128,-1,34
 656 160 656 160 656 329 c 0,35,36
 656 496 656 496 726 580.5 c 128,-1,37
 796 665 796 665 947 665 c 0,27,28
1083 329 m 0,38,39
 1083 448 1083 448 1051.5 502.5 c 128,-1,40
 1020 557 1020 557 946 557 c 0,41,42
 869 557 869 557 836 504 c 128,-1,43
 803 451 803 451 803 329 c 0,44,45
 803 213 803 213 836 157 c 128,-1,46
 869 101 869 101 945 101 c 0,47,48
 1016 101 1016 101 1049.5 156.5 c 128,-1,49
 1083 212 1083 212 1083 329 c 0,38,39
EndSplineSet
Validated: 1
EndChar

StartChar: ampersand
Encoding: 38 38 9
Width: 1229
GlyphClass: 2
Flags: W
LayerCount: 2
Fore
SplineSet
1072 -12 m 0,0,1
 999 -12 999 -12 928.5 23 c 128,-1,2
 858 58 858 58 808 117 c 1,3,4
 655 -20 655 -20 461 -20 c 0,5,6
 262 -20 262 -20 152.5 80 c 128,-1,7
 43 180 43 180 43 358 c 0,8,9
 43 626 43 626 335 777 c 1,10,11
 303 837 303 837 281.5 913.5 c 128,-1,12
 260 990 260 990 260 1059 c 0,13,14
 260 1195 260 1195 352.5 1276 c 128,-1,15
 445 1357 445 1357 611 1357 c 0,16,17
 757 1357 757 1357 844.5 1285 c 128,-1,18
 932 1213 932 1213 932 1090 c 0,19,20
 932 1015 932 1015 892.5 956.5 c 128,-1,21
 853 898 853 898 778.5 847.5 c 128,-1,22
 704 797 704 797 525 722 c 1,23,24
 657 491 657 491 802 333 c 1,25,26
 890 515 890 515 927 739 c 1,27,-1
 1072 696 l 1,28,29
 1028 460 1028 460 910 234 c 1,30,31
 953 180 953 180 1001.5 154.5 c 128,-1,32
 1050 129 1050 129 1090 129 c 0,33,34
 1148 129 1148 129 1185 145 c 1,35,-1
 1185 10 l 1,36,37
 1137 -12 1137 -12 1072 -12 c 0,0,1
780 1085 m 0,38,39
 780 1155 780 1155 732 1195.5 c 128,-1,40
 684 1236 684 1236 608 1236 c 0,41,42
 519 1236 519 1236 463.5 1187 c 128,-1,43
 408 1138 408 1138 408 1056 c 0,44,45
 408 946 408 946 469 832 c 1,46,47
 630 900 630 900 679 931.5 c 128,-1,48
 728 963 728 963 754 1000.5 c 128,-1,49
 780 1038 780 1038 780 1085 c 0,38,39
706 217 m 1,50,51
 526 420 526 420 390 658 c 1,52,53
 211 561 211 561 211 362 c 0,54,55
 211 247 211 247 280 179 c 128,-1,56
 349 111 349 111 469 111 c 0,57,58
 533 111 533 111 595.5 138.5 c 128,-1,59
 658 166 658 166 706 217 c 1,50,51
EndSplineSet
Validated: 1
EndChar

StartChar: quotesingle
Encoding: 39 39 10
Width: 1229
GlyphClass: 2
Flags: W
LayerCount: 2
Fore
SplineSet
684 845 m 1,0,-1
 543 845 l 1,1,-1
 502 1484 l 1,2,-1
 726 1484 l 1,3,-1
 684 845 l 1,0,-1
EndSplineSet
Validated: 1
EndChar

StartChar: parenleft
Encoding: 40 40 11
Width: 1229
GlyphClass: 2
Flags: W
LayerCount: 2
Fore
SplineSet
529 530 m 0,0,1
 529 255 529 255 614 33 c 128,-1,2
 699 -189 699 -189 891 -425 c 1,3,-1
 701 -425 l 1,4,5
 509 -189 509 -189 425.5 32.5 c 128,-1,6
 342 254 342 254 342 532 c 0,7,8
 342 805 342 805 424 1024.5 c 128,-1,9
 506 1244 506 1244 701 1484 c 1,10,-1
 891 1484 l 1,11,12
 699 1248 699 1248 614 1025.5 c 128,-1,13
 529 803 529 803 529 530 c 0,0,1
EndSplineSet
Validated: 1
EndChar

StartChar: parenright
Encoding: 41 41 12
Width: 1229
GlyphClass: 2
Flags: W
LayerCount: 2
Fore
SplineSet
885 532 m 0,0,1
 885 252 885 252 802.5 31.5 c 128,-1,2
 720 -189 720 -189 528 -425 c 1,3,-1
 336 -425 l 1,4,5
 532 -184 532 -184 616 38.5 c 128,-1,6
 700 261 700 261 700 530 c 0,7,8
 700 798 700 798 616 1020.5 c 128,-1,9
 532 1243 532 1243 336 1484 c 1,10,-1
 528 1484 l 1,11,12
 723 1244 723 1244 804 1026 c 128,-1,13
 885 808 885 808 885 532 c 0,0,1
EndSplineSet
Validated: 1
EndChar

StartChar: asterisk
Encoding: 42 42 13
Width: 1229
GlyphClass: 2
Flags: W
LayerCount: 2
Fore
SplineSet
671 1188 m 1,0,-1
 935 1291 l 1,1,-1
 980 1159 l 1,2,-1
 698 1086 l 1,3,-1
 883 836 l 1,4,-1
 764 764 l 1,5,-1
 614 1022 l 1,6,-1
 458 766 l 1,7,-1
 339 838 l 1,8,-1
 528 1086 l 1,9,-1
 248 1159 l 1,10,-1
 293 1293 l 1,11,-1
 560 1186 l 1,12,-1
 548 1483 l 1,13,-1
 684 1483 l 1,14,-1
 671 1188 l 1,0,-1
EndSplineSet
Validated: 1
EndChar

StartChar: plus
Encoding: 43 43 14
Width: 1229
GlyphClass: 2
Flags: W
LayerCount: 2
Fore
SplineSet
687 608 m 1,0,-1
 687 180 l 1,1,-1
 540 180 l 1,2,-1
 540 608 l 1,3,-1
 116 608 l 1,4,-1
 116 754 l 1,5,-1
 540 754 l 1,6,-1
 540 1182 l 1,7,-1
 687 1182 l 1,8,-1
 687 754 l 1,9,-1
 1111 754 l 1,10,-1
 1111 608 l 1,11,-1
 687 608 l 1,0,-1
EndSplineSet
Validated: 1
EndChar

StartChar: comma
Encoding: 44 44 15
Width: 1229
GlyphClass: 2
Flags: W
LayerCount: 2
Fore
SplineSet
259 -363 m 1,0,-1
 428 299 l 1,1,-1
 693 299 l 1,2,-1
 382 -363 l 1,3,-1
 259 -363 l 1,0,-1
EndSplineSet
Validated: 1
EndChar

StartChar: hyphen
Encoding: 45 45 16
Width: 1229
GlyphClass: 2
Flags: W
LayerCount: 2
Fore
SplineSet
334 464 m 1,0,-1
 334 624 l 1,1,-1
 894 624 l 1,2,-1
 894 464 l 1,3,-1
 334 464 l 1,0,-1
EndSplineSet
Validated: 1
EndChar

StartChar: period
Encoding: 46 46 17
Width: 1229
GlyphClass: 2
Flags: W
LayerCount: 2
Fore
SplineSet
496 0 m 1,0,-1
 496 299 l 1,1,-1
 731 299 l 1,2,-1
 731 0 l 1,3,-1
 496 0 l 1,0,-1
EndSplineSet
Validated: 1
EndChar

StartChar: slash
Encoding: 47 47 18
Width: 1229
GlyphClass: 2
Flags: W
LayerCount: 2
Fore
SplineSet
114 -20 m 1,0,-1
 935 1484 l 1,1,-1
 1113 1484 l 1,2,-1
 296 -20 l 1,3,-1
 114 -20 l 1,0,-1
EndSplineSet
Validated: 1
EndChar

StartChar: zero
Encoding: 48 48 19
Width: 1229
GlyphClass: 2
Flags: W
LayerCount: 2
Fore
SplineSet
1103 675 m 0,0,1
 1103 337 1103 337 978.5 158.5 c 128,-1,2
 854 -20 854 -20 611 -20 c 256,3,4
 368 -20 368 -20 246 157.5 c 128,-1,5
 124 335 124 335 124 675 c 0,6,7
 124 1024 124 1024 243 1197 c 128,-1,8
 362 1370 362 1370 617 1370 c 0,9,10
 866 1370 866 1370 984.5 1195.5 c 128,-1,11
 1103 1021 1103 1021 1103 675 c 0,0,1
920 675 m 0,12,13
 920 965 920 965 849.5 1094.5 c 128,-1,14
 779 1224 779 1224 617 1224 c 0,15,16
 451 1224 451 1224 378.5 1096 c 128,-1,17
 306 968 306 968 306 675 c 0,18,19
 306 390 306 390 379.5 258.5 c 128,-1,20
 453 127 453 127 613 127 c 0,21,22
 772 127 772 127 846 262 c 128,-1,23
 920 397 920 397 920 675 c 0,12,13
496 555 m 1,24,-1
 496 804 l 1,25,-1
 731 804 l 1,26,-1
 731 555 l 1,27,-1
 496 555 l 1,24,-1
EndSplineSet
Validated: 1
Substitution2: "'subs' Subscript lookup 5 subtable" zero.subs
EndChar

StartChar: one
Encoding: 49 49 20
Width: 1229
GlyphClass: 2
Flags: W
LayerCount: 2
Fore
SplineSet
157 0 m 1,0,-1
 157 145 l 1,1,-1
 596 145 l 1,2,-1
 596 1166 l 1,3,4
 559 1088 559 1088 420.5 1030 c 128,-1,5
 282 972 282 972 148 972 c 1,6,-1
 148 1120 l 1,7,8
 296 1120 296 1120 427.5 1185 c 128,-1,9
 559 1250 559 1250 611 1349 c 1,10,-1
 777 1349 l 1,11,-1
 777 145 l 1,12,-1
 1130 145 l 1,13,-1
 1130 0 l 1,14,-1
 157 0 l 1,0,-1
EndSplineSet
Validated: 1
Substitution2: "'subs' Subscript lookup 5 subtable" one.subs
EndChar

StartChar: two
Encoding: 50 50 21
Width: 1229
GlyphClass: 2
Flags: W
LayerCount: 2
Fore
SplineSet
144 0 m 1,0,-1
 144 117 l 1,1,2
 193 226 193 226 296.5 336.5 c 128,-1,3
 400 447 400 447 578 589 c 0,4,5
 737 716 737 716 807 810 c 128,-1,6
 877 904 877 904 877 991 c 0,7,8
 877 1102 877 1102 808 1162 c 128,-1,9
 739 1222 739 1222 611 1222 c 0,10,11
 497 1222 497 1222 426.5 1159.5 c 128,-1,12
 356 1097 356 1097 343 984 c 1,13,-1
 159 1001 l 1,14,15
 179 1171 179 1171 298 1270.5 c 128,-1,16
 417 1370 417 1370 611 1370 c 0,17,18
 824 1370 824 1370 943 1274 c 128,-1,19
 1062 1178 1062 1178 1062 1002 c 0,20,21
 1062 887 1062 887 986 772.5 c 128,-1,22
 910 658 910 658 759 538 c 0,23,24
 553 374 553 374 473.5 296.5 c 128,-1,25
 394 219 394 219 361 146 c 1,26,-1
 1084 146 l 1,27,-1
 1084 0 l 1,28,-1
 144 0 l 1,0,-1
EndSplineSet
Validated: 1
Substitution2: "'subs' Subscript lookup 5 subtable" two.subs
EndChar

StartChar: three
Encoding: 51 51 22
Width: 1229
GlyphClass: 2
Flags: W
LayerCount: 2
Fore
SplineSet
1099 370 m 0,0,1
 1099 184 1099 184 973 82 c 128,-1,2
 847 -20 847 -20 621 -20 c 0,3,4
 407 -20 407 -20 279 77 c 128,-1,5
 151 174 151 174 128 362 c 1,6,-1
 314 379 l 1,7,8
 350 129 350 129 621 129 c 0,9,10
 757 129 757 129 834.5 192 c 128,-1,11
 912 255 912 255 912 376 c 0,12,13
 912 451 912 451 866.5 502.5 c 128,-1,14
 821 554 821 554 743 581.5 c 128,-1,15
 665 609 665 609 568 609 c 2,16,-1
 466 609 l 1,17,-1
 466 765 l 1,18,-1
 564 765 l 2,19,20
 650 765 650 765 721.5 793.5 c 128,-1,21
 793 822 793 822 834 874 c 128,-1,22
 875 926 875 926 875 997 c 0,23,24
 875 1103 875 1103 808.5 1162.5 c 128,-1,25
 742 1222 742 1222 611 1222 c 0,26,27
 492 1222 492 1222 418.5 1161 c 128,-1,28
 345 1100 345 1100 333 989 c 1,29,-1
 152 1003 l 1,30,31
 172 1176 172 1176 295.5 1273 c 128,-1,32
 419 1370 419 1370 613 1370 c 0,33,34
 825 1370 825 1370 942.5 1276.5 c 128,-1,35
 1060 1183 1060 1183 1060 1016 c 0,36,37
 1060 897 1060 897 981 809 c 128,-1,38
 902 721 902 721 765 693 c 1,39,-1
 765 689 l 1,40,41
 916 672 916 672 1007.5 583 c 128,-1,42
 1099 494 1099 494 1099 370 c 0,0,1
EndSplineSet
Validated: 1
Substitution2: "'subs' Subscript lookup 5 subtable" three.subs
EndChar

StartChar: four
Encoding: 52 52 23
Width: 1229
GlyphClass: 2
Flags: W
LayerCount: 2
Fore
SplineSet
937 319 m 1,0,-1
 937 0 l 1,1,-1
 757 0 l 1,2,-1
 757 319 l 1,3,-1
 103 319 l 1,4,-1
 103 459 l 1,5,-1
 738 1349 l 1,6,-1
 937 1349 l 1,7,-1
 937 461 l 1,8,-1
 1125 461 l 1,9,-1
 1125 319 l 1,10,-1
 937 319 l 1,0,-1
757 1154 m 1,11,-1
 257 461 l 1,12,-1
 757 461 l 1,13,-1
 757 1154 l 1,11,-1
EndSplineSet
Validated: 1
Substitution2: "'subs' Subscript lookup 5 subtable" four.subs
Substitution2: "'sups' Superscript lookup 4 subtable" four.sups
EndChar

StartChar: five
Encoding: 53 53 24
Width: 1229
GlyphClass: 2
Flags: W
LayerCount: 2
Fore
SplineSet
1099 444 m 0,0,1
 1099 305 1099 305 1040 200 c 128,-1,2
 981 95 981 95 867.5 37.5 c 128,-1,3
 754 -20 754 -20 599 -20 c 0,4,5
 402 -20 402 -20 281 66 c 128,-1,6
 160 152 160 152 128 315 c 1,7,-1
 310 336 l 1,8,9
 367 127 367 127 603 127 c 0,10,11
 744 127 744 127 828 211 c 128,-1,12
 912 295 912 295 912 440 c 0,13,14
 912 564 912 564 829 643 c 128,-1,15
 746 722 746 722 607 722 c 0,16,17
 534 722 534 722 471 699 c 128,-1,18
 408 676 408 676 345 621 c 1,19,-1
 169 621 l 1,20,-1
 216 1349 l 1,21,-1
 1017 1349 l 1,22,-1
 1017 1204 l 1,23,-1
 382 1204 l 1,24,-1
 353 779 l 1,25,26
 470 869 470 869 644 869 c 0,27,28
 848 869 848 869 973.5 751.5 c 128,-1,29
 1099 634 1099 634 1099 444 c 0,0,1
EndSplineSet
Validated: 1
Substitution2: "'subs' Subscript lookup 5 subtable" five.subs
Substitution2: "'sups' Superscript lookup 4 subtable" five.sups
EndChar

StartChar: six
Encoding: 54 54 25
Width: 1229
GlyphClass: 2
Flags: W
LayerCount: 2
Fore
SplineSet
1096 446 m 0,0,1
 1096 234 1096 234 974.5 107 c 128,-1,2
 853 -20 853 -20 641 -20 c 0,3,4
 405 -20 405 -20 278 152.5 c 128,-1,5
 151 325 151 325 151 642 c 0,6,7
 151 990 151 990 283 1180 c 128,-1,8
 415 1370 415 1370 655 1370 c 0,9,10
 974 1370 974 1370 1057 1083 c 1,11,-1
 885 1052 l 1,12,13
 832 1224 832 1224 653 1224 c 0,14,15
 500 1224 500 1224 415 1085 c 128,-1,16
 330 946 330 946 330 695 c 1,17,18
 379 786 379 786 468 833.5 c 128,-1,19
 557 881 557 881 672 881 c 0,20,21
 864 881 864 881 980 762.5 c 128,-1,22
 1096 644 1096 644 1096 446 c 0,0,1
913 438 m 0,23,24
 913 582 913 582 836.5 662 c 128,-1,25
 760 742 760 742 629 742 c 0,26,27
 555 742 555 742 489 708.5 c 128,-1,28
 423 675 423 675 385.5 615.5 c 128,-1,29
 348 556 348 556 348 481 c 0,30,31
 348 329 348 329 428.5 227 c 128,-1,32
 509 125 509 125 635 125 c 0,33,34
 762 125 762 125 837.5 209 c 128,-1,35
 913 293 913 293 913 438 c 0,23,24
EndSplineSet
Validated: 1
Substitution2: "'subs' Subscript lookup 5 subtable" six.subs
Substitution2: "'sups' Superscript lookup 4 subtable" six.sups
EndChar

StartChar: seven
Encoding: 55 55 26
Width: 1229
GlyphClass: 2
Flags: W
LayerCount: 2
Fore
SplineSet
1069 1210 m 1,0,1
 596 530 596 530 596 0 c 1,2,-1
 408 0 l 1,3,4
 408 263 408 263 530.5 567.5 c 128,-1,5
 653 872 653 872 895 1204 c 1,6,-1
 158 1204 l 1,7,-1
 158 1349 l 1,8,-1
 1069 1349 l 1,9,-1
 1069 1210 l 1,0,1
EndSplineSet
Validated: 1
Substitution2: "'subs' Subscript lookup 5 subtable" seven.subs
Substitution2: "'sups' Superscript lookup 4 subtable" seven.sups
EndChar

StartChar: eight
Encoding: 56 56 27
Width: 1229
GlyphClass: 2
Flags: W
LayerCount: 2
Fore
SplineSet
1094 378 m 0,0,1
 1094 194 1094 194 969.5 87 c 128,-1,2
 845 -20 845 -20 614 -20 c 0,3,4
 388 -20 388 -20 260.5 85 c 128,-1,5
 133 190 133 190 133 376 c 0,6,7
 133 505 133 505 212 595.5 c 128,-1,8
 291 686 291 686 414 707 c 1,9,-1
 414 711 l 1,10,11
 302 738 302 738 234 825 c 128,-1,12
 166 912 166 912 166 1024 c 0,13,14
 166 1122 166 1122 221.5 1202 c 128,-1,15
 277 1282 277 1282 378 1326 c 128,-1,16
 479 1370 479 1370 610 1370 c 0,17,18
 747 1370 747 1370 849 1325.5 c 128,-1,19
 951 1281 951 1281 1005 1202 c 128,-1,20
 1059 1123 1059 1123 1059 1022 c 0,21,22
 1059 909 1059 909 990 822 c 128,-1,23
 921 735 921 735 809 713 c 1,24,-1
 809 709 l 1,25,26
 939 688 939 688 1016.5 599.5 c 128,-1,27
 1094 511 1094 511 1094 378 c 0,0,1
872 1012 m 0,28,29
 872 1123 872 1123 804.5 1179.5 c 128,-1,30
 737 1236 737 1236 610 1236 c 0,31,32
 487 1236 487 1236 418.5 1179 c 128,-1,33
 350 1122 350 1122 350 1012 c 0,34,35
 350 901 350 901 419 840 c 128,-1,36
 488 779 488 779 612 779 c 0,37,38
 872 779 872 779 872 1012 c 0,28,29
907 395 m 0,39,40
 907 515 907 515 829 579.5 c 128,-1,41
 751 644 751 644 610 644 c 0,42,43
 474 644 474 644 396.5 574.5 c 128,-1,44
 319 505 319 505 319 391 c 0,45,46
 319 256 319 256 394.5 185.5 c 128,-1,47
 470 115 470 115 616 115 c 0,48,49
 763 115 763 115 835 184 c 128,-1,50
 907 253 907 253 907 395 c 0,39,40
EndSplineSet
Validated: 1
Substitution2: "'subs' Subscript lookup 5 subtable" eight.subs
Substitution2: "'sups' Superscript lookup 4 subtable" eight.sups
EndChar

StartChar: nine
Encoding: 57 57 28
Width: 1229
GlyphClass: 2
Flags: W
LayerCount: 2
Fore
SplineSet
1087 703 m 0,0,1
 1087 357 1087 357 954 168.5 c 128,-1,2
 821 -20 821 -20 577 -20 c 0,3,4
 412 -20 412 -20 312.5 49.5 c 128,-1,5
 213 119 213 119 170 274 c 1,6,-1
 342 301 l 1,7,8
 396 125 396 125 580 125 c 0,9,10
 734 125 734 125 820.5 264.5 c 128,-1,11
 907 404 907 404 909 650 c 1,12,13
 869 560 869 560 772 505.5 c 128,-1,14
 675 451 675 451 559 451 c 0,15,16
 370 451 370 451 255.5 578.5 c 128,-1,17
 141 706 141 706 141 911 c 0,18,19
 141 1123 141 1123 266.5 1246.5 c 128,-1,20
 392 1370 392 1370 610 1370 c 0,21,22
 1087 1370 1087 1370 1087 703 c 0,0,1
891 862 m 0,23,24
 891 1023 891 1023 811 1123.5 c 128,-1,25
 731 1224 731 1224 604 1224 c 0,26,27
 474 1224 474 1224 399 1137 c 128,-1,28
 324 1050 324 1050 324 911 c 0,29,30
 324 768 324 768 399 680.5 c 128,-1,31
 474 593 474 593 602 593 c 0,32,33
 678 593 678 593 745.5 627.5 c 128,-1,34
 813 662 813 662 852 723.5 c 128,-1,35
 891 785 891 785 891 862 c 0,23,24
EndSplineSet
Validated: 1
Substitution2: "'subs' Subscript lookup 5 subtable" nine.subs
Substitution2: "'sups' Superscript lookup 4 subtable" nine.sups
EndChar

StartChar: colon
Encoding: 58 58 29
Width: 1229
GlyphClass: 2
Flags: W
LayerCount: 2
Fore
SplineSet
496 0 m 1,0,-1
 496 299 l 1,1,-1
 731 299 l 1,2,-1
 731 0 l 1,3,-1
 496 0 l 1,0,-1
496 783 m 1,4,-1
 496 1082 l 1,5,-1
 731 1082 l 1,6,-1
 731 783 l 1,7,-1
 496 783 l 1,4,-1
EndSplineSet
Validated: 1
EndChar

StartChar: semicolon
Encoding: 59 59 30
Width: 1229
GlyphClass: 2
Flags: W
LayerCount: 2
Fore
SplineSet
496 783 m 1,0,-1
 496 1082 l 1,1,-1
 731 1082 l 1,2,-1
 731 783 l 1,3,-1
 496 783 l 1,0,-1
352 -363 m 1,4,-1
 521 299 l 1,5,-1
 786 299 l 1,6,-1
 475 -363 l 1,7,-1
 352 -363 l 1,4,-1
EndSplineSet
Validated: 1
EndChar

StartChar: less
Encoding: 60 60 31
Width: 1229
GlyphClass: 2
Flags: W
LayerCount: 2
Fore
SplineSet
116 571 m 1,0,-1
 116 776 l 1,1,-1
 1111 1194 l 1,2,-1
 1111 1040 l 1,3,-1
 253 674 l 1,4,-1
 1111 307 l 1,5,-1
 1111 154 l 1,6,-1
 116 571 l 1,0,-1
EndSplineSet
Validated: 1
EndChar

StartChar: equal
Encoding: 61 61 32
Width: 1229
GlyphClass: 2
Flags: W
LayerCount: 2
Fore
SplineSet
116 856 m 1,0,-1
 116 1004 l 1,1,-1
 1111 1004 l 1,2,-1
 1111 856 l 1,3,-1
 116 856 l 1,0,-1
116 344 m 1,4,-1
 116 492 l 1,5,-1
 1111 492 l 1,6,-1
 1111 344 l 1,7,-1
 116 344 l 1,4,-1
EndSplineSet
Validated: 1
EndChar

StartChar: greater
Encoding: 62 62 33
Width: 1229
GlyphClass: 2
Flags: W
LayerCount: 2
Fore
SplineSet
116 154 m 1,0,-1
 116 307 l 1,1,-1
 974 674 l 1,2,-1
 116 1040 l 1,3,-1
 116 1194 l 1,4,-1
 1111 776 l 1,5,-1
 1111 571 l 1,6,-1
 116 154 l 1,0,-1
EndSplineSet
Validated: 1
EndChar

StartChar: question
Encoding: 63 63 34
Width: 1229
GlyphClass: 2
Flags: W
LayerCount: 2
Fore
SplineSet
1073 1002 m 0,0,1
 1073 929 1073 929 1051 872 c 128,-1,2
 1029 815 1029 815 987.5 766.5 c 128,-1,3
 946 718 946 718 854 652 c 0,4,5
 744 572 744 572 708.5 535 c 128,-1,6
 673 498 673 498 652.5 455 c 128,-1,7
 632 412 632 412 631 357 c 1,8,-1
 456 357 l 1,9,10
 458 427 458 427 480.5 482.5 c 128,-1,11
 503 538 503 538 542.5 584.5 c 128,-1,12
 582 631 582 631 677 702 c 1,13,14
 784 780 784 780 817.5 817 c 128,-1,15
 851 854 851 854 871 896.5 c 128,-1,16
 891 939 891 939 891 994 c 0,17,18
 891 1103 891 1103 811.5 1161.5 c 128,-1,19
 732 1220 732 1220 596 1220 c 0,20,21
 461 1220 461 1220 376.5 1147 c 128,-1,22
 292 1074 292 1074 278 948 c 1,23,-1
 94 960 l 1,24,25
 120 1157 120 1157 253.5 1263.5 c 128,-1,26
 387 1370 387 1370 594 1370 c 0,27,28
 817 1370 817 1370 945 1273.5 c 128,-1,29
 1073 1177 1073 1177 1073 1002 c 0,0,1
448 0 m 1,30,-1
 448 201 l 1,31,-1
 643 201 l 1,32,-1
 643 0 l 1,33,-1
 448 0 l 1,30,-1
EndSplineSet
Validated: 1
EndChar

StartChar: at
Encoding: 64 64 35
Width: 1229
GlyphClass: 2
Flags: W
LayerCount: 2
Fore
SplineSet
1189 755 m 0,0,1
 1189 457 1189 457 1106.5 280.5 c 128,-1,2
 1024 104 1024 104 884 104 c 0,3,4
 741 104 741 104 741 261 c 2,5,-1
 741 269 l 1,6,-1
 743 299 l 1,7,-1
 737 299 l 1,8,9
 703 211 703 211 641.5 157.5 c 128,-1,10
 580 104 580 104 502 104 c 0,11,12
 396 104 396 104 336.5 204 c 128,-1,13
 277 304 277 304 277 489 c 0,14,15
 277 650 277 650 325.5 793 c 128,-1,16
 374 936 374 936 457.5 1018.5 c 128,-1,17
 541 1101 541 1101 644 1101 c 0,18,19
 715 1101 715 1101 760.5 1059.5 c 128,-1,20
 806 1018 806 1018 828 928 c 1,21,-1
 833 928 l 1,22,-1
 865 1079 l 1,23,-1
 981 1079 l 1,24,-1
 882 572 l 2,25,26
 842 362 842 362 842 294 c 0,27,28
 842 206 842 206 891 206 c 0,29,30
 969 206 969 206 1018.5 355 c 128,-1,31
 1068 504 1068 504 1068 753 c 0,32,33
 1068 1027 1068 1027 959 1197.5 c 128,-1,34
 850 1368 850 1368 670 1368 c 0,35,36
 522 1368 522 1368 408 1260.5 c 128,-1,37
 294 1153 294 1153 232 958 c 128,-1,38
 170 763 170 763 170 514 c 0,39,40
 170 205 170 205 286 20 c 128,-1,41
 402 -165 402 -165 604 -165 c 0,42,43
 698 -165 698 -165 785 -130 c 128,-1,44
 872 -95 872 -95 973 -7 c 1,45,-1
 1044 -94 l 1,46,47
 929 -193 929 -193 821 -238 c 128,-1,48
 713 -283 713 -283 594 -283 c 0,49,50
 429 -283 429 -283 303.5 -186 c 128,-1,51
 178 -89 178 -89 111 93.5 c 128,-1,52
 44 276 44 276 44 514 c 0,53,54
 44 800 44 800 121 1021.5 c 128,-1,55
 198 1243 198 1243 341 1363.5 c 128,-1,56
 484 1484 484 1484 672 1484 c 0,57,58
 830 1484 830 1484 946.5 1393.5 c 128,-1,59
 1063 1303 1063 1303 1126 1137.5 c 128,-1,60
 1189 972 1189 972 1189 755 c 0,0,1
775 784 m 0,61,62
 775 890 775 890 740 944.5 c 128,-1,63
 705 999 705 999 646 999 c 0,64,65
 583 999 583 999 530 932.5 c 128,-1,66
 477 866 477 866 444.5 744.5 c 128,-1,67
 412 623 412 623 412 491 c 0,68,69
 412 210 412 210 526 210 c 0,70,71
 600 210 600 210 659 305 c 128,-1,72
 718 400 718 400 746.5 557 c 128,-1,73
 775 714 775 714 775 784 c 0,61,62
EndSplineSet
Validated: 1
EndChar

StartChar: A
Encoding: 65 65 36
Width: 1229
GlyphClass: 2
Flags: W
AnchorPoint: "bottom-right" 1125 29 basechar 0
AnchorPoint: "bottom" 609 -4 basechar 0
AnchorPoint: "top" 623 1346 basechar 0
LayerCount: 2
Fore
SplineSet
1034 0 m 1,0,-1
 896 382 l 1,1,-1
 333 382 l 1,2,-1
 196 0 l 1,3,-1
 0 0 l 1,4,-1
 510 1349 l 1,5,-1
 727 1349 l 1,6,-1
 1228 0 l 1,7,-1
 1034 0 l 1,0,-1
616 1205 m 1,8,-1
 604 1166 l 1,9,-1
 535 954 l 1,10,-1
 384 531 l 1,11,-1
 847 531 l 1,12,-1
 674 1031 l 1,13,-1
 616 1205 l 1,8,-1
EndSplineSet
EndChar

StartChar: B
Encoding: 66 66 37
Width: 1229
GlyphClass: 2
Flags: W
AnchorPoint: "bottom" 591 -4 basechar 0
AnchorPoint: "top" 595 1343 basechar 0
LayerCount: 2
Fore
SplineSet
1152 380 m 0,0,1
 1152 200 1152 200 1015 100 c 128,-1,2
 878 0 878 0 634 0 c 2,3,-1
 162 0 l 1,4,-1
 162 1349 l 1,5,-1
 574 1349 l 2,6,7
 1070 1349 1070 1349 1070 1022 c 0,8,9
 1070 900 1070 900 998 818 c 128,-1,10
 926 736 926 736 802 711 c 1,11,12
 969 693 969 693 1060.5 604 c 128,-1,13
 1152 515 1152 515 1152 380 c 0,0,1
878 998 m 0,14,15
 878 1105 878 1105 802.5 1150.5 c 128,-1,16
 727 1196 727 1196 576 1196 c 2,17,-1
 353 1196 l 1,18,-1
 353 780 l 1,19,-1
 578 780 l 2,20,21
 878 780 878 780 878 998 c 0,14,15
959 397 m 0,22,23
 959 511 959 511 870 571 c 128,-1,24
 781 631 781 631 605 631 c 2,25,-1
 353 631 l 1,26,-1
 353 153 l 1,27,-1
 619 153 l 2,28,29
 794 153 794 153 876.5 213.5 c 128,-1,30
 959 274 959 274 959 397 c 0,22,23
EndSplineSet
EndChar

StartChar: C
Encoding: 67 67 38
Width: 1229
GlyphClass: 2
Flags: W
AnchorPoint: "bottom" 663 -21 basechar 0
AnchorPoint: "top" 637 1369 basechar 0
LayerCount: 2
Fore
SplineSet
314 681 m 0,0,1
 314 408 314 408 399.5 271.5 c 128,-1,2
 485 135 485 135 661 135 c 0,3,4
 762 135 762 135 844 203.5 c 128,-1,5
 926 272 926 272 983 417 c 1,6,-1
 1142 352 l 1,7,8
 993 -20 993 -20 659 -20 c 0,9,10
 396 -20 396 -20 254.5 161 c 128,-1,11
 113 342 113 342 113 681 c 0,12,13
 113 1370 113 1370 649 1370 c 0,14,15
 988 1370 988 1370 1115 1035 c 1,16,-1
 947 970 l 1,17,18
 910 1083 910 1083 831.5 1148.5 c 128,-1,19
 753 1214 753 1214 650 1214 c 0,20,21
 479 1214 479 1214 396.5 1085 c 128,-1,22
 314 956 314 956 314 681 c 0,0,1
EndSplineSet
EndChar

StartChar: D
Encoding: 68 68 39
Width: 1229
GlyphClass: 2
Flags: W
AnchorPoint: "bottom" 496 1 basechar 0
AnchorPoint: "top" 549 1343 basechar 0
LayerCount: 2
Fore
SplineSet
1125 688 m 0,0,1
 1125 357 1125 357 971.5 178.5 c 128,-1,2
 818 0 818 0 532 0 c 2,3,-1
 162 0 l 1,4,-1
 162 1349 l 1,5,-1
 473 1349 l 2,6,7
 802 1349 802 1349 963.5 1184.5 c 128,-1,8
 1125 1020 1125 1020 1125 688 c 0,0,1
933 688 m 0,9,10
 933 952 933 952 823 1072.5 c 128,-1,11
 713 1193 713 1193 474 1193 c 2,12,-1
 353 1193 l 1,13,-1
 353 156 l 1,14,-1
 515 156 l 2,15,16
 727 156 727 156 830 289 c 128,-1,17
 933 422 933 422 933 688 c 0,9,10
EndSplineSet
EndChar

StartChar: E
Encoding: 69 69 40
Width: 1229
GlyphClass: 2
Flags: W
AnchorPoint: "bottom-right" 1035 39 basechar 0
AnchorPoint: "bottom" 662 -1 basechar 0
AnchorPoint: "top" 641 1349 basechar 0
LayerCount: 2
Fore
SplineSet
162 0 m 1,0,-1
 162 1349 l 1,1,-1
 1081 1349 l 1,2,-1
 1081 1193 l 1,3,-1
 353 1193 l 1,4,-1
 353 771 l 1,5,-1
 1021 771 l 1,6,-1
 1021 617 l 1,7,-1
 353 617 l 1,8,-1
 353 156 l 1,9,-1
 1122 156 l 1,10,-1
 1122 0 l 1,11,-1
 162 0 l 1,0,-1
EndSplineSet
EndChar

StartChar: F
Encoding: 70 70 41
Width: 1229
GlyphClass: 2
Flags: W
AnchorPoint: "bottom" 618 1 basechar 0
AnchorPoint: "top" 645 1347 basechar 0
LayerCount: 2
Fore
SplineSet
385 1193 m 1,0,-1
 385 699 l 1,1,-1
 1061 699 l 1,2,-1
 1061 541 l 1,3,-1
 385 541 l 1,4,-1
 385 0 l 1,5,-1
 194 0 l 1,6,-1
 194 1349 l 1,7,-1
 1085 1349 l 1,8,-1
 1085 1193 l 1,9,-1
 385 1193 l 1,0,-1
EndSplineSet
EndChar

StartChar: G
Encoding: 71 71 42
Width: 1229
GlyphClass: 2
Flags: W
AnchorPoint: "bottom" 661 -25 basechar 0
AnchorPoint: "top" 649 1365 basechar 0
LayerCount: 2
Fore
SplineSet
1101 133 m 1,0,1
 872 -20 872 -20 639 -20 c 0,2,3
 389 -20 389 -20 251 165.5 c 128,-1,4
 113 351 113 351 113 681 c 0,5,6
 113 1028 113 1028 245 1199 c 128,-1,7
 377 1370 377 1370 642 1370 c 0,8,9
 988 1370 988 1370 1103 1039 c 1,10,-1
 932 983 l 1,11,12
 852 1214 852 1214 644 1214 c 0,13,14
 475 1214 475 1214 394.5 1088 c 128,-1,15
 314 962 314 962 314 681 c 0,16,17
 314 135 314 135 655 135 c 0,18,19
 723 135 723 135 796 156 c 128,-1,20
 869 177 869 177 915 209 c 1,21,-1
 915 545 l 1,22,-1
 622 545 l 1,23,-1
 622 705 l 1,24,-1
 1101 705 l 1,25,-1
 1101 133 l 1,0,1
EndSplineSet
EndChar

StartChar: H
Encoding: 72 72 43
Width: 1229
GlyphClass: 2
Flags: W
AnchorPoint: "bottom" 603 1 basechar 0
AnchorPoint: "top" 615 1341 basechar 0
LayerCount: 2
Fore
SplineSet
875 0 m 1,0,-1
 875 623 l 1,1,-1
 353 623 l 1,2,-1
 353 0 l 1,3,-1
 162 0 l 1,4,-1
 162 1349 l 1,5,-1
 353 1349 l 1,6,-1
 353 783 l 1,7,-1
 875 783 l 1,8,-1
 875 1349 l 1,9,-1
 1066 1349 l 1,10,-1
 1066 0 l 1,11,-1
 875 0 l 1,0,-1
EndSplineSet
EndChar

StartChar: I
Encoding: 73 73 44
Width: 1229
GlyphClass: 2
Flags: W
AnchorPoint: "bottom-right" 639 59 basechar 0
AnchorPoint: "bottom" 632 -3 basechar 0
AnchorPoint: "top" 627 1346 basechar 0
LayerCount: 2
Fore
SplineSet
202 1349 m 1,0,-1
 1025 1349 l 1,1,-1
 1025 1193 l 1,2,-1
 709 1193 l 1,3,-1
 709 156 l 1,4,-1
 1025 156 l 1,5,-1
 1025 0 l 1,6,-1
 202 0 l 1,7,-1
 202 156 l 1,8,-1
 518 156 l 1,9,-1
 518 1193 l 1,10,-1
 202 1193 l 1,11,-1
 202 1349 l 1,0,-1
EndSplineSet
EndChar

StartChar: J
Encoding: 74 74 45
Width: 1229
GlyphClass: 2
Flags: W
AnchorPoint: "bottom" 600 -20 basechar 0
AnchorPoint: "top" 733 1347 basechar 0
LayerCount: 2
Fore
SplineSet
986 420 m 2,0,1
 986 211 986 211 881 95.5 c 128,-1,2
 776 -20 776 -20 586 -20 c 0,3,4
 415 -20 415 -20 313 69 c 128,-1,5
 211 158 211 158 176 350 c 1,6,-1
 363 381 l 1,7,8
 381 263 381 263 439.5 199 c 128,-1,9
 498 135 498 135 587 135 c 0,10,11
 796 135 796 135 796 416 c 2,12,-1
 796 1193 l 1,13,-1
 485 1193 l 1,14,-1
 485 1349 l 1,15,-1
 986 1349 l 1,16,-1
 986 420 l 2,0,1
EndSplineSet
EndChar

StartChar: K
Encoding: 75 75 46
Width: 1229
GlyphClass: 2
Flags: W
AnchorPoint: "bottom" 647 -1 basechar 0
AnchorPoint: "top" 635 1339 basechar 0
LayerCount: 2
Fore
SplineSet
1003 0 m 1,0,-1
 516 638 l 1,1,-1
 353 469 l 1,2,-1
 353 0 l 1,3,-1
 162 0 l 1,4,-1
 162 1349 l 1,5,-1
 353 1349 l 1,6,-1
 353 676 l 1,7,-1
 925 1349 l 1,8,-1
 1150 1349 l 1,9,-1
 646 777 l 1,10,-1
 1227 0 l 1,11,-1
 1003 0 l 1,0,-1
EndSplineSet
EndChar

StartChar: L
Encoding: 76 76 47
Width: 1229
GlyphClass: 2
Flags: W
AnchorPoint: "bottom" 676 -4 basechar 0
AnchorPoint: "top" 671 1349 basechar 0
LayerCount: 2
Fore
SplineSet
237 0 m 1,0,-1
 237 1349 l 1,1,-1
 428 1349 l 1,2,-1
 428 156 l 1,3,-1
 1100 156 l 1,4,-1
 1100 0 l 1,5,-1
 237 0 l 1,0,-1
EndSplineSet
EndChar

StartChar: M
Encoding: 77 77 48
Width: 1229
GlyphClass: 2
Flags: W
AnchorPoint: "bottom" 617 -1 basechar 0
AnchorPoint: "top" 635 1343 basechar 0
LayerCount: 2
Fore
SplineSet
937 0 m 1,0,-1
 937 868 l 2,1,2
 937 1003 937 1003 940 1069 c 1,3,-1
 943 1169 l 1,4,5
 879 963 879 963 848 878 c 2,6,-1
 684 440 l 1,7,-1
 547 440 l 1,8,-1
 381 878 l 2,9,10
 363 924 363 924 285 1169 c 1,11,-1
 289 868 l 1,12,-1
 289 0 l 1,13,-1
 129 0 l 1,14,-1
 129 1349 l 1,15,-1
 366 1349 l 1,16,-1
 551 860 l 2,17,18
 572 807 572 807 619 629 c 1,19,-1
 645 719 l 1,20,-1
 689 859 l 1,21,-1
 874 1349 l 1,22,-1
 1099 1349 l 1,23,-1
 1099 0 l 1,24,-1
 937 0 l 1,0,-1
EndSplineSet
EndChar

StartChar: N
Encoding: 78 78 49
Width: 1229
GlyphClass: 2
Flags: W
AnchorPoint: "bottom" 591 -1 basechar 0
AnchorPoint: "top" 630 1343 basechar 0
LayerCount: 2
Fore
SplineSet
836 0 m 1,0,-1
 316 1130 l 1,1,2
 332 958 332 958 332 876 c 2,3,-1
 332 0 l 1,4,-1
 162 0 l 1,5,-1
 162 1349 l 1,6,-1
 384 1349 l 1,7,-1
 912 211 l 1,8,9
 894 355 894 355 894 485 c 2,10,-1
 894 1349 l 1,11,-1
 1066 1349 l 1,12,-1
 1066 0 l 1,13,-1
 836 0 l 1,0,-1
EndSplineSet
EndChar

StartChar: O
Encoding: 79 79 50
Width: 1229
GlyphClass: 2
Flags: W
AnchorPoint: "bottom" 616 -23 basechar 0
AnchorPoint: "top" 625 1371 basechar 0
LayerCount: 2
Fore
SplineSet
1126 681 m 0,0,1
 1126 344 1126 344 993.5 162 c 128,-1,2
 861 -20 861 -20 613 -20 c 0,3,4
 364 -20 364 -20 233 159 c 128,-1,5
 102 338 102 338 102 681 c 0,6,7
 102 1018 102 1018 232 1194 c 128,-1,8
 362 1370 362 1370 615 1370 c 0,9,10
 862 1370 862 1370 994 1196.5 c 128,-1,11
 1126 1023 1126 1023 1126 681 c 0,0,1
925 681 m 0,12,13
 925 1214 925 1214 615 1214 c 0,14,15
 303 1214 303 1214 303 681 c 0,16,17
 303 411 303 411 382 273 c 128,-1,18
 461 135 461 135 614 135 c 0,19,20
 777 135 777 135 851 275 c 128,-1,21
 925 415 925 415 925 681 c 0,12,13
EndSplineSet
EndChar

StartChar: P
Encoding: 80 80 51
Width: 1229
GlyphClass: 2
Flags: W
AnchorPoint: "bottom" 570 -5 basechar 0
AnchorPoint: "top" 597 1345 basechar 0
LayerCount: 2
Fore
SplineSet
1119 945 m 0,0,1
 1119 820 1119 820 1059.5 722 c 128,-1,2
 1000 624 1000 624 889.5 569 c 128,-1,3
 779 514 779 514 634 514 c 2,4,-1
 353 514 l 1,5,-1
 353 0 l 1,6,-1
 162 0 l 1,7,-1
 162 1349 l 1,8,-1
 622 1349 l 2,9,10
 860 1349 860 1349 989.5 1242.5 c 128,-1,11
 1119 1136 1119 1136 1119 945 c 0,0,1
927 942 m 0,12,13
 927 1196 927 1196 599 1196 c 2,14,-1
 353 1196 l 1,15,-1
 353 665 l 1,16,-1
 607 665 l 2,17,18
 756 665 756 665 841.5 738 c 128,-1,19
 927 811 927 811 927 942 c 0,12,13
EndSplineSet
EndChar

StartChar: Q
Encoding: 81 81 52
Width: 1229
GlyphClass: 2
Flags: W
AnchorPoint: "bottom" 782 -372 basechar 0
AnchorPoint: "top" 623 1375 basechar 0
LayerCount: 2
Fore
SplineSet
1126 681 m 0,0,1
 1126 391 1126 391 1027.5 215.5 c 128,-1,2
 929 40 929 40 746 -4 c 1,3,4
 787 -130 787 -130 854 -187 c 128,-1,5
 921 -244 921 -244 1022 -244 c 0,6,7
 1077 -244 1077 -244 1137 -231 c 1,8,-1
 1137 -365 l 1,9,10
 1044 -387 1044 -387 959 -387 c 0,11,12
 809 -387 809 -387 711.5 -302.5 c 128,-1,13
 614 -218 614 -218 551 -16 c 1,14,15
 332 6 332 6 217 183.5 c 128,-1,16
 102 361 102 361 102 681 c 0,17,18
 102 1018 102 1018 232 1194 c 128,-1,19
 362 1370 362 1370 615 1370 c 0,20,21
 862 1370 862 1370 994 1196.5 c 128,-1,22
 1126 1023 1126 1023 1126 681 c 0,0,1
925 681 m 0,23,24
 925 1214 925 1214 615 1214 c 0,25,26
 303 1214 303 1214 303 681 c 0,27,28
 303 411 303 411 382 273 c 128,-1,29
 461 135 461 135 614 135 c 0,30,31
 777 135 777 135 851 275 c 128,-1,32
 925 415 925 415 925 681 c 0,23,24
EndSplineSet
EndChar

StartChar: R
Encoding: 82 82 53
Width: 1229
GlyphClass: 2
Flags: W
AnchorPoint: "bottom" 641 2 basechar 0
AnchorPoint: "top" 638 1357 basechar 0
LayerCount: 2
Fore
SplineSet
957 0 m 1,0,-1
 591 575 l 1,1,-1
 353 575 l 1,2,-1
 353 0 l 1,3,-1
 162 0 l 1,4,-1
 162 1349 l 1,5,-1
 644 1349 l 2,6,7
 877 1349 877 1349 999 1252.5 c 128,-1,8
 1121 1156 1121 1156 1121 976 c 0,9,10
 1121 827 1121 827 1027.5 725 c 128,-1,11
 934 623 934 623 777 597 c 1,12,-1
 1177 0 l 1,13,-1
 957 0 l 1,0,-1
929 973 m 0,14,15
 929 1196 929 1196 625 1196 c 2,16,-1
 353 1196 l 1,17,-1
 353 726 l 1,18,-1
 633 726 l 2,19,20
 776 726 776 726 852.5 790 c 128,-1,21
 929 854 929 854 929 973 c 0,14,15
EndSplineSet
EndChar

StartChar: S
Encoding: 83 83 54
Width: 1229
GlyphClass: 2
Flags: W
AnchorPoint: "bottom" 611 -18 basechar 0
AnchorPoint: "top" 602 1374 basechar 0
LayerCount: 2
Fore
SplineSet
1128 370 m 0,0,1
 1128 186 1128 186 993.5 83 c 128,-1,2
 859 -20 859 -20 610 -20 c 0,3,4
 153 -20 153 -20 79 338 c 1,5,-1
 264 375 l 1,6,7
 292 246 292 246 380 187.5 c 128,-1,8
 468 129 468 129 615 129 c 0,9,10
 774 129 774 129 856.5 191 c 128,-1,11
 939 253 939 253 939 367 c 0,12,13
 939 437 939 437 906.5 481 c 128,-1,14
 874 525 874 525 821 553 c 128,-1,15
 768 581 768 581 701.5 598.5 c 128,-1,16
 635 616 635 616 567 633 c 0,17,18
 406 675 406 675 337.5 708 c 128,-1,19
 269 741 269 741 228 783.5 c 128,-1,20
 187 826 187 826 166 881 c 128,-1,21
 145 936 145 936 145 1010 c 0,22,23
 145 1183 145 1183 266.5 1276.5 c 128,-1,24
 388 1370 388 1370 615 1370 c 0,25,26
 827 1370 827 1370 939 1296 c 128,-1,27
 1051 1222 1051 1222 1095 1046 c 1,28,-1
 907 1013 l 1,29,30
 883 1125 883 1125 811 1175.5 c 128,-1,31
 739 1226 739 1226 614 1226 c 0,32,33
 331 1226 331 1226 331 1013 c 0,34,35
 331 953 331 953 357.5 915.5 c 128,-1,36
 384 878 384 878 429.5 853.5 c 128,-1,37
 475 829 475 829 535.5 813 c 128,-1,38
 596 797 596 797 665 779 c 0,39,40
 804 744 804 744 865 720.5 c 128,-1,41
 926 697 926 697 973.5 667 c 128,-1,42
 1021 637 1021 637 1055 596 c 128,-1,43
 1089 555 1089 555 1108.5 500 c 128,-1,44
 1128 445 1128 445 1128 370 c 0,0,1
EndSplineSet
EndChar

StartChar: T
Encoding: 84 84 55
Width: 1229
GlyphClass: 2
Flags: W
AnchorPoint: "bottom" 611 0 basechar 0
AnchorPoint: "top" 611 1347 basechar 0
LayerCount: 2
Fore
SplineSet
709 1193 m 1,0,-1
 709 0 l 1,1,-1
 519 0 l 1,2,-1
 519 1193 l 1,3,-1
 76 1193 l 1,4,-1
 76 1349 l 1,5,-1
 1152 1349 l 1,6,-1
 1152 1193 l 1,7,-1
 709 1193 l 1,0,-1
EndSplineSet
EndChar

StartChar: U
Encoding: 85 85 56
Width: 1229
GlyphClass: 2
Flags: W
AnchorPoint: "bottom" 610 -22 basechar 0
AnchorPoint: "top" 624 1349 basechar 0
LayerCount: 2
Fore
SplineSet
1085 490 m 2,0,1
 1085 223 1085 223 971 101.5 c 128,-1,2
 857 -20 857 -20 605 -20 c 0,3,4
 361 -20 361 -20 251.5 97.5 c 128,-1,5
 142 215 142 215 142 472 c 2,6,-1
 142 1349 l 1,7,-1
 333 1349 l 1,8,-1
 333 498 l 2,9,10
 333 294 333 294 391.5 214.5 c 128,-1,11
 450 135 450 135 604 135 c 0,12,13
 765 135 765 135 830 217 c 128,-1,14
 895 299 895 299 895 511 c 2,15,-1
 895 1349 l 1,16,-1
 1085 1349 l 1,17,-1
 1085 490 l 2,0,1
EndSplineSet
EndChar

StartChar: V
Encoding: 86 86 57
Width: 1229
GlyphClass: 2
Flags: W
AnchorPoint: "bottom" 616 -45 basechar 0
AnchorPoint: "top" 630 1399 basechar 0
LayerCount: 2
Fore
SplineSet
713 0 m 1,0,-1
 515 0 l 1,1,-1
 10 1349 l 1,2,-1
 211 1349 l 1,3,-1
 531 447 l 2,4,5
 562 361 562 361 615 168 c 1,6,7
 655 317 655 317 699 447 c 1,8,-1
 1017 1349 l 1,9,-1
 1218 1349 l 1,10,-1
 713 0 l 1,0,-1
EndSplineSet
EndChar

StartChar: W
Encoding: 87 87 58
Width: 1229
GlyphClass: 2
Flags: W
AnchorPoint: "bottom" 612 -2 basechar 0
AnchorPoint: "top" 623 1341 basechar 0
LayerCount: 2
Fore
SplineSet
1018 0 m 1,0,-1
 810 0 l 1,1,2
 736 276 736 276 697.5 420 c 128,-1,3
 659 564 659 564 616 756 c 1,4,5
 587 631 587 631 562.5 530 c 128,-1,6
 538 429 538 429 419 0 c 1,7,-1
 211 0 l 1,8,-1
 0 1349 l 1,9,-1
 189 1349 l 1,10,-1
 298 514 l 1,11,12
 314 383 314 383 331 168 c 1,13,14
 363 306 363 306 384.5 396 c 128,-1,15
 406 486 406 486 528 931 c 1,16,-1
 703 931 l 1,17,18
 772 678 772 678 811.5 533 c 128,-1,19
 851 388 851 388 900 168 c 1,20,-1
 935 514 l 1,21,-1
 1039 1349 l 1,22,-1
 1228 1349 l 1,23,-1
 1018 0 l 1,0,-1
EndSplineSet
EndChar

StartChar: X
Encoding: 88 88 59
Width: 1229
GlyphClass: 2
Flags: W
AnchorPoint: "bottom" 606 2 basechar 0
AnchorPoint: "top" 636 1343 basechar 0
LayerCount: 2
Fore
SplineSet
614 836 m 1,0,-1
 947 1349 l 1,1,-1
 1152 1349 l 1,2,-1
 717 705 l 1,3,-1
 1193 0 l 1,4,-1
 988 0 l 1,5,-1
 614 573 l 1,6,-1
 241 0 l 1,7,-1
 36 0 l 1,8,-1
 512 705 l 1,9,-1
 77 1349 l 1,10,-1
 282 1349 l 1,11,-1
 614 836 l 1,0,-1
EndSplineSet
EndChar

StartChar: Y
Encoding: 89 89 60
Width: 1229
GlyphClass: 2
Flags: W
AnchorPoint: "bottom" 608 -3 basechar 0
AnchorPoint: "top" 633 1336 basechar 0
LayerCount: 2
Fore
SplineSet
708 584 m 1,0,-1
 708 0 l 1,1,-1
 520 0 l 1,2,-1
 520 584 l 1,3,-1
 36 1349 l 1,4,-1
 241 1349 l 1,5,-1
 615 738 l 1,6,-1
 987 1349 l 1,7,-1
 1192 1349 l 1,8,-1
 708 584 l 1,0,-1
EndSplineSet
EndChar

StartChar: Z
Encoding: 90 90 61
Width: 1229
GlyphClass: 2
Flags: W
AnchorPoint: "bottom" 633 2 basechar 0
AnchorPoint: "top" 637 1345 basechar 0
LayerCount: 2
Fore
SplineSet
1155 0 m 1,0,-1
 73 0 l 1,1,-1
 73 143 l 1,2,-1
 891 1193 l 1,3,-1
 146 1193 l 1,4,-1
 146 1349 l 1,5,-1
 1108 1349 l 1,6,-1
 1108 1210 l 1,7,-1
 290 156 l 1,8,-1
 1155 156 l 1,9,-1
 1155 0 l 1,0,-1
EndSplineSet
EndChar

StartChar: bracketleft
Encoding: 91 91 62
Width: 1229
GlyphClass: 2
Flags: W
LayerCount: 2
Fore
SplineSet
410 -425 m 1,0,-1
 410 1484 l 1,1,-1
 957 1484 l 1,2,-1
 957 1345 l 1,3,-1
 590 1345 l 1,4,-1
 590 -286 l 1,5,-1
 957 -286 l 1,6,-1
 957 -425 l 1,7,-1
 410 -425 l 1,0,-1
EndSplineSet
Validated: 1
EndChar

StartChar: backslash
Encoding: 92 92 63
Width: 1229
GlyphClass: 2
Flags: W
LayerCount: 2
Fore
SplineSet
932 -20 m 1,0,-1
 115 1484 l 1,1,-1
 293 1484 l 1,2,-1
 1114 -20 l 1,3,-1
 932 -20 l 1,0,-1
EndSplineSet
Validated: 1
EndChar

StartChar: bracketright
Encoding: 93 93 64
Width: 1229
GlyphClass: 2
Flags: W
LayerCount: 2
Fore
SplineSet
270 -425 m 1,0,-1
 270 -286 l 1,1,-1
 637 -286 l 1,2,-1
 637 1345 l 1,3,-1
 270 1345 l 1,4,-1
 270 1484 l 1,5,-1
 817 1484 l 1,6,-1
 817 -425 l 1,7,-1
 270 -425 l 1,0,-1
EndSplineSet
Validated: 1
EndChar

StartChar: asciicircum
Encoding: 94 94 65
Width: 1229
GlyphClass: 2
Flags: W
LayerCount: 2
Fore
SplineSet
940 442 m 1,0,-1
 611 1245 l 1,1,-1
 285 442 l 1,2,-1
 133 442 l 1,3,-1
 511 1349 l 1,4,-1
 714 1349 l 1,5,-1
 1094 442 l 1,6,-1
 940 442 l 1,0,-1
EndSplineSet
Validated: 1
EndChar

StartChar: underscore
Encoding: 95 95 66
Width: 1229
GlyphClass: 2
Flags: W
LayerCount: 2
Fore
SplineSet
-5 -220 m 1,0,-1
 -5 -124 l 1,1,-1
 1233 -124 l 1,2,-1
 1233 -220 l 1,3,-1
 -5 -220 l 1,0,-1
EndSplineSet
Validated: 1
EndChar

StartChar: grave
Encoding: 96 96 67
Width: 1229
GlyphClass: 2
Flags: W
LayerCount: 2
Fore
SplineSet
702 1201 m 1,0,-1
 402 1431 l 1,1,-1
 402 1460 l 1,2,-1
 599 1460 l 1,3,-1
 826 1221 l 1,4,-1
 826 1201 l 1,5,-1
 702 1201 l 1,0,-1
EndSplineSet
Validated: 1
EndChar

StartChar: a
Encoding: 97 97 68
Width: 1229
GlyphClass: 2
Flags: W
AnchorPoint: "bottom-right" 1075 7 basechar 0
AnchorPoint: "bottom" 622 -20 basechar 0
AnchorPoint: "top" 606 1104 basechar 0
LayerCount: 2
Fore
SplineSet
1101 111 m 0,0,1
 1127 111 1127 111 1160 118 c 1,2,-1
 1160 6 l 1,3,4
 1092 -10 1092 -10 1021 -10 c 0,5,6
 921 -10 921 -10 875.5 42.5 c 128,-1,7
 830 95 830 95 824 207 c 1,8,-1
 818 207 l 1,9,10
 753 86 753 86 664.5 33 c 128,-1,11
 576 -20 576 -20 446 -20 c 0,12,13
 288 -20 288 -20 208 66 c 128,-1,14
 128 152 128 152 128 302 c 0,15,16
 128 651 128 651 582 656 c 1,17,-1
 818 660 l 1,18,-1
 818 719 l 2,19,20
 818 850 818 850 765 907.5 c 128,-1,21
 712 965 712 965 596 965 c 0,22,23
 478 965 478 965 426 923 c 128,-1,24
 374 881 374 881 364 793 c 1,25,-1
 176 810 l 1,26,27
 222 1102 222 1102 599 1102 c 0,28,29
 799 1102 799 1102 899.5 1008.5 c 128,-1,30
 1000 915 1000 915 1000 738 c 2,31,-1
 1000 272 l 2,32,33
 1000 192 1000 192 1021 151.5 c 128,-1,34
 1042 111 1042 111 1101 111 c 0,0,1
492 117 m 0,35,36
 588 117 588 117 662 163 c 128,-1,37
 736 209 736 209 777 286 c 128,-1,38
 818 363 818 363 818 445 c 2,39,-1
 818 534 l 1,40,-1
 628 530 l 2,41,42
 510 528 510 528 448 504 c 128,-1,43
 386 480 386 480 351.5 430.5 c 128,-1,44
 317 381 317 381 317 299 c 256,45,46
 317 217 317 217 361.5 167 c 128,-1,47
 406 117 406 117 492 117 c 0,35,36
EndSplineSet
EndChar

StartChar: b
Encoding: 98 98 69
Width: 1229
GlyphClass: 2
Flags: W
AnchorPoint: "bottom" 554 -24 basechar 0
AnchorPoint: "top" 542 1470 basechar 0
LayerCount: 2
Fore
SplineSet
1090 546 m 0,0,1
 1090 262 1090 262 988.5 121 c 128,-1,2
 887 -20 887 -20 698 -20 c 0,3,4
 454 -20 454 -20 364 164 c 1,5,-1
 362 164 l 1,6,7
 362 116 362 116 358.5 64 c 128,-1,8
 355 12 355 12 353 0 c 1,9,-1
 179 0 l 1,10,11
 185 54 185 54 185 223 c 2,12,-1
 185 1484 l 1,13,-1
 365 1484 l 1,14,-1
 365 1061 l 2,15,16
 365 996 365 996 361 904 c 1,17,-1
 365 904 l 1,18,19
 456 1104 456 1104 699 1104 c 0,20,21
 1090 1104 1090 1104 1090 546 c 0,0,1
904 540 m 0,22,23
 904 764 904 764 842.5 864.5 c 128,-1,24
 781 965 781 965 650 965 c 0,25,26
 501 965 501 965 433 855.5 c 128,-1,27
 365 746 365 746 365 524 c 0,28,29
 365 315 365 315 431 214 c 128,-1,30
 497 113 497 113 648 113 c 0,31,32
 783 113 783 113 843.5 217.5 c 128,-1,33
 904 322 904 322 904 540 c 0,22,23
EndSplineSet
EndChar

StartChar: c
Encoding: 99 99 70
Width: 1229
GlyphClass: 2
Flags: W
AnchorPoint: "bottom" 616 -23 basechar 0
AnchorPoint: "top" 660 1095 basechar 0
LayerCount: 2
Fore
SplineSet
130 542 m 0,0,1
 130 812 130 812 259 957 c 128,-1,2
 388 1102 388 1102 632 1102 c 0,3,4
 814 1102 814 1102 932 1014.5 c 128,-1,5
 1050 927 1050 927 1078 779 c 1,6,-1
 886 765 l 1,7,8
 870 856 870 856 806 908.5 c 128,-1,9
 742 961 742 961 624 961 c 0,10,11
 466 961 466 961 392.5 863 c 128,-1,12
 319 765 319 765 319 546 c 0,13,14
 319 324 319 324 392.5 221.5 c 128,-1,15
 466 119 466 119 623 119 c 0,16,17
 731 119 731 119 802 172 c 128,-1,18
 873 225 873 225 890 334 c 1,19,-1
 1080 322 l 1,20,21
 1067 226 1067 226 1007.5 147.5 c 128,-1,22
 948 69 948 69 850 24.5 c 128,-1,23
 752 -20 752 -20 631 -20 c 0,24,25
 386 -20 386 -20 258 124 c 128,-1,26
 130 268 130 268 130 542 c 0,0,1
EndSplineSet
EndChar

StartChar: d
Encoding: 100 100 71
Width: 1229
GlyphClass: 2
Flags: W
AnchorPoint: "bottom" 659 -33 basechar 0
AnchorPoint: "top" 702 1477 basechar 0
LayerCount: 2
Fore
SplineSet
862 174 m 1,0,1
 813 69 813 69 732 21.5 c 128,-1,2
 651 -26 651 -26 530 -26 c 0,3,4
 328 -26 328 -26 233 113 c 128,-1,5
 138 252 138 252 138 532 c 0,6,7
 138 1098 138 1098 530 1098 c 0,8,9
 651 1098 651 1098 732.5 1055 c 128,-1,10
 814 1012 814 1012 863 914 c 1,11,-1
 865 914 l 1,12,-1
 863 1065 l 1,13,-1
 863 1484 l 1,14,-1
 1043 1484 l 1,15,-1
 1043 223 l 2,16,17
 1043 54 1043 54 1049 0 c 1,18,-1
 877 0 l 1,19,20
 873 15 873 15 870 73 c 128,-1,21
 867 131 867 131 867 174 c 1,22,-1
 862 174 l 1,0,1
324 538 m 0,23,24
 324 316 324 316 383.5 214.5 c 128,-1,25
 443 113 443 113 577 113 c 0,26,27
 723 113 723 113 793 218.5 c 128,-1,28
 863 324 863 324 863 554 c 0,29,30
 863 769 863 769 795.5 867 c 128,-1,31
 728 965 728 965 579 965 c 0,32,33
 444 965 444 965 384 862 c 128,-1,34
 324 759 324 759 324 538 c 0,23,24
EndSplineSet
EndChar

StartChar: e
Encoding: 101 101 72
Width: 1229
GlyphClass: 2
Flags: W
AnchorPoint: "bottom-right" 685 37 basechar 0
AnchorPoint: "bottom" 624 -18 basechar 0
AnchorPoint: "top" 624 1098 basechar 0
LayerCount: 2
Fore
SplineSet
322 503 m 1,0,1
 322 321 322 321 402.5 218 c 128,-1,2
 483 115 483 115 623 115 c 0,3,4
 726 115 726 115 803.5 159.5 c 128,-1,5
 881 204 881 204 907 281 c 1,6,-1
 1065 236 l 1,7,8
 1021 112 1021 112 903.5 46 c 128,-1,9
 786 -20 786 -20 623 -20 c 0,10,11
 387 -20 387 -20 260 127 c 128,-1,12
 133 274 133 274 133 548 c 0,13,14
 133 815 133 815 257.5 958.5 c 128,-1,15
 382 1102 382 1102 617 1102 c 256,16,17
 852 1102 852 1102 973 959 c 128,-1,18
 1094 816 1094 816 1094 527 c 2,19,-1
 1094 503 l 1,20,-1
 322 503 l 1,0,1
619 969 m 0,21,22
 485 969 485 969 407 881.5 c 128,-1,23
 329 794 329 794 324 641 c 1,24,-1
 908 641 l 1,25,26
 880 969 880 969 619 969 c 0,21,22
EndSplineSet
EndChar

StartChar: f
Encoding: 102 102 73
Width: 1229
GlyphClass: 2
Flags: W
AnchorPoint: "bottom" 500 -7 basechar 0
AnchorPoint: "top" 731 1476 basechar 0
LayerCount: 2
Fore
SplineSet
580 940 m 1,0,-1
 580 0 l 1,1,-1
 400 0 l 1,2,-1
 400 940 l 1,3,-1
 138 940 l 1,4,-1
 138 1082 l 1,5,-1
 400 1082 l 1,6,-1
 400 1107 l 2,7,8
 400 1312 400 1312 496.5 1398 c 128,-1,9
 593 1484 593 1484 818 1484 c 0,10,11
 890 1484 890 1484 973.5 1477.5 c 128,-1,12
 1057 1471 1057 1471 1099 1463 c 1,13,-1
 1099 1318 l 1,14,15
 1069 1323 1069 1323 977.5 1329 c 128,-1,16
 886 1335 886 1335 839 1335 c 0,17,18
 735 1335 735 1335 682 1312 c 128,-1,19
 629 1289 629 1289 604.5 1237 c 128,-1,20
 580 1185 580 1185 580 1092 c 2,21,-1
 580 1082 l 1,22,-1
 1071 1082 l 1,23,-1
 1071 940 l 1,24,-1
 580 940 l 1,0,-1
EndSplineSet
EndChar

StartChar: g
Encoding: 103 103 74
Width: 1229
GlyphClass: 2
Flags: W
AnchorPoint: "bottom" 673 -432 basechar 0
AnchorPoint: "top" 665 1104 basechar 0
LayerCount: 2
Fore
SplineSet
615 -424 m 0,0,1
 447 -424 447 -424 345 -355 c 128,-1,2
 243 -286 243 -286 215 -157 c 1,3,-1
 399 -132 l 1,4,5
 416 -207 416 -207 472.5 -247.5 c 128,-1,6
 529 -288 529 -288 621 -288 c 0,7,8
 869 -288 869 -288 869 27 c 2,9,-1
 869 221 l 1,10,-1
 867 221 l 1,11,12
 818 118 818 118 731 65 c 128,-1,13
 644 12 644 12 524 12 c 0,14,15
 326 12 326 12 234.5 141.5 c 128,-1,16
 143 271 143 271 143 549 c 0,17,18
 143 832 143 832 241 965.5 c 128,-1,19
 339 1099 339 1099 543 1099 c 0,20,21
 656 1099 656 1099 739.5 1046.5 c 128,-1,22
 823 994 823 994 868 897 c 1,23,-1
 871 897 l 1,24,25
 871 927 871 927 875 998.5 c 128,-1,26
 879 1070 879 1070 883 1082 c 1,27,-1
 1054 1082 l 1,28,29
 1048 1028 1048 1028 1048 858 c 2,30,-1
 1048 32 l 2,31,32
 1048 -195 1048 -195 942 -309.5 c 128,-1,33
 836 -424 836 -424 615 -424 c 0,0,1
869 551 m 0,34,35
 869 744 869 744 794 854.5 c 128,-1,36
 719 965 719 965 588 965 c 0,37,38
 451 965 451 965 390 869.5 c 128,-1,39
 329 774 329 774 329 551 c 0,40,41
 329 400 329 400 354.5 312.5 c 128,-1,42
 380 225 380 225 434 185 c 128,-1,43
 488 145 488 145 585 145 c 0,44,45
 670 145 670 145 734.5 192.5 c 128,-1,46
 799 240 799 240 834 331.5 c 128,-1,47
 869 423 869 423 869 551 c 0,34,35
EndSplineSet
EndChar

StartChar: h
Encoding: 104 104 75
Width: 1229
GlyphClass: 2
Flags: W
AnchorPoint: "bottom" 609 0 basechar 0
AnchorPoint: "top" 555 1474 basechar 0
LayerCount: 2
Fore
SplineSet
185 1484 m 1,0,-1
 366 1484 l 1,1,-1
 366 1094 l 2,2,3
 366 1035 366 1035 357 897 c 1,4,-1
 360 897 l 1,5,6
 465 1102 465 1102 699 1102 c 0,7,8
 1049 1102 1049 1102 1049 721 c 2,9,-1
 1049 0 l 1,10,-1
 868 0 l 1,11,-1
 868 695 l 2,12,13
 868 831 868 831 815.5 897 c 128,-1,14
 763 963 763 963 648 963 c 0,15,16
 524 963 524 963 444.5 872.5 c 128,-1,17
 365 782 365 782 365 627 c 2,18,-1
 365 0 l 1,19,-1
 185 0 l 1,20,-1
 185 1484 l 1,0,-1
EndSplineSet
EndChar

StartChar: i
Encoding: 105 105 76
Width: 1229
GlyphClass: 2
Flags: W
AnchorPoint: "bottom" 662 -4 basechar 0
AnchorPoint: "top" 652 1482 basechar 0
LayerCount: 2
Fore
SplineSet
745 142 m 1,0,-1
 1125 142 l 1,1,-1
 1125 0 l 1,2,-1
 143 0 l 1,3,-1
 143 142 l 1,4,-1
 565 142 l 1,5,-1
 565 940 l 1,6,-1
 246 940 l 1,7,-1
 246 1082 l 1,8,-1
 745 1082 l 1,9,-1
 745 142 l 1,0,-1
545 1292 m 1,10,-1
 545 1484 l 1,11,-1
 745 1484 l 1,12,-1
 745 1292 l 1,13,-1
 545 1292 l 1,10,-1
EndSplineSet
EndChar

StartChar: j
Encoding: 106 106 77
Width: 1229
GlyphClass: 2
Flags: W
AnchorPoint: "bottom" 516 -429 basechar 0
AnchorPoint: "top" 738 1484 basechar 0
LayerCount: 2
Fore
SplineSet
836 -28 m 2,0,1
 836 -215 836 -215 724 -320 c 128,-1,2
 612 -425 612 -425 405 -425 c 0,3,4
 326 -425 326 -425 244 -412 c 128,-1,5
 162 -399 162 -399 117 -382 c 1,6,-1
 117 -242 l 1,7,8
 267 -276 267 -276 390 -276 c 0,9,10
 518 -276 518 -276 587 -210 c 128,-1,11
 656 -144 656 -144 656 -25 c 2,12,-1
 656 940 l 1,13,-1
 249 940 l 1,14,-1
 249 1082 l 1,15,-1
 836 1082 l 1,16,-1
 836 -28 l 2,0,1
636 1292 m 1,17,-1
 636 1484 l 1,18,-1
 836 1484 l 1,19,-1
 836 1292 l 1,20,-1
 636 1292 l 1,17,-1
EndSplineSet
EndChar

StartChar: k
Encoding: 107 107 78
Width: 1229
GlyphClass: 2
Flags: W
AnchorPoint: "bottom" 663 -1 basechar 0
AnchorPoint: "top" 596 1482 basechar 0
LayerCount: 2
Fore
SplineSet
914 0 m 1,0,-1
 548 499 l 1,1,-1
 416 401 l 1,2,-1
 416 0 l 1,3,-1
 236 0 l 1,4,-1
 236 1484 l 1,5,-1
 416 1484 l 1,6,-1
 416 557 l 1,7,-1
 891 1082 l 1,8,-1
 1102 1082 l 1,9,-1
 663 617 l 1,10,-1
 1125 0 l 1,11,-1
 914 0 l 1,0,-1
EndSplineSet
EndChar

StartChar: l
Encoding: 108 108 79
Width: 1229
GlyphClass: 2
Flags: W
HStem: 4 143<761.664 1116> 1342 142<267 556>
VStem: 556 180<170.686 1342>
AnchorPoint: "bottom" 775 -1 basechar 0
AnchorPoint: "top" 508 1482 basechar 0
LayerCount: 2
Fore
SplineSet
835 147 m 16,0,-1
 1116 142 l 1,1,-1
 1116 0 l 1,2,-1
 746 4 l 8,3,4
 633 24 633 24 581 94 c 24,5,6
 559 124 559 124 556 258 c 17,7,-1
 556 1342 l 1,8,-1
 267 1342 l 1,9,-1
 267 1484 l 1,10,-1
 736 1484 l 1,11,-1
 736 237 l 9,12,13
 737 192 737 192 761 170 c 24,14,15
 782 151 782 151 835 147 c 16,0,-1
839 142 m 1025,16,-1
736 237 m 1025,17,-1
752 0 m 1025,18,-1
556 142 m 1,19,-1
 556 258 l 1025,20,-1
EndSplineSet
EndChar

StartChar: m
Encoding: 109 109 80
Width: 1229
GlyphClass: 2
Flags: W
AnchorPoint: "bottom" 621 -1 basechar 0
AnchorPoint: "top" 611 1100 basechar 0
LayerCount: 2
Fore
SplineSet
531 0 m 1,0,-1
 531 686 l 2,1,2
 531 840 531 840 506.5 901.5 c 128,-1,3
 482 963 482 963 417 963 c 0,4,5
 353 963 353 963 313.5 867 c 128,-1,6
 274 771 274 771 274 607 c 2,7,-1
 274 0 l 1,8,-1
 105 0 l 1,9,-1
 105 851 l 2,10,11
 105 1040 105 1040 99 1082 c 1,12,-1
 248 1082 l 1,13,-1
 254 955 l 1,14,-1
 254 907 l 1,15,-1
 256 907 l 1,16,17
 290 1009 290 1009 342 1055.5 c 128,-1,18
 394 1102 394 1102 472 1102 c 0,19,20
 560 1102 560 1102 603.5 1054 c 128,-1,21
 647 1006 647 1006 666 906 c 1,22,-1
 668 906 l 1,23,24
 708 1012 708 1012 763.5 1057 c 128,-1,25
 819 1102 819 1102 904 1102 c 0,26,27
 1022 1102 1022 1102 1073 1016 c 128,-1,28
 1124 930 1124 930 1124 721 c 2,29,-1
 1124 0 l 1,30,-1
 956 0 l 1,31,-1
 956 686 l 2,32,33
 956 840 956 840 931.5 901.5 c 128,-1,34
 907 963 907 963 842 963 c 0,35,36
 776 963 776 963 737.5 879 c 128,-1,37
 699 795 699 795 699 627 c 2,38,-1
 699 0 l 1,39,-1
 531 0 l 1,0,-1
EndSplineSet
EndChar

StartChar: n
Encoding: 110 110 81
Width: 1229
GlyphClass: 2
Flags: W
AnchorPoint: "bottom" 621 5 basechar 0
AnchorPoint: "top" 609 1101 basechar 0
LayerCount: 2
Fore
SplineSet
868 0 m 1,0,-1
 868 695 l 2,1,2
 868 831 868 831 815.5 897 c 128,-1,3
 763 963 763 963 648 963 c 0,4,5
 524 963 524 963 444.5 872.5 c 128,-1,6
 365 782 365 782 365 627 c 2,7,-1
 365 0 l 1,8,-1
 185 0 l 1,9,-1
 185 851 l 2,10,11
 185 1040 185 1040 179 1082 c 1,12,-1
 349 1082 l 1,13,14
 350 1077 350 1077 351 1055 c 128,-1,15
 352 1033 352 1033 353.5 1004.5 c 128,-1,16
 355 976 355 976 357 897 c 1,17,-1
 360 897 l 1,18,19
 465 1102 465 1102 706 1102 c 0,20,21
 879 1102 879 1102 964 1008.5 c 128,-1,22
 1049 915 1049 915 1049 721 c 2,23,-1
 1049 0 l 1,24,-1
 868 0 l 1,0,-1
EndSplineSet
EndChar

StartChar: o
Encoding: 111 111 82
Width: 1229
GlyphClass: 2
Flags: W
AnchorPoint: "bottom-right" 627 37 basechar 0
AnchorPoint: "bottom" 622 -22 basechar 0
AnchorPoint: "top" 638 1098 basechar 0
LayerCount: 2
Fore
SplineSet
1097 542 m 0,0,1
 1097 269 1097 269 971.5 124.5 c 128,-1,2
 846 -20 846 -20 609 -20 c 0,3,4
 377 -20 377 -20 253.5 126 c 128,-1,5
 130 272 130 272 130 542 c 0,6,7
 130 821 130 821 256.5 961.5 c 128,-1,8
 383 1102 383 1102 615 1102 c 0,9,10
 859 1102 859 1102 978 963 c 128,-1,11
 1097 824 1097 824 1097 542 c 0,0,1
908 542 m 256,12,13
 908 757 908 757 839.5 863 c 128,-1,14
 771 969 771 969 618 969 c 0,15,16
 463 969 463 969 391 861 c 128,-1,17
 319 753 319 753 319 542 c 0,18,19
 319 332 319 332 391 222.5 c 128,-1,20
 463 113 463 113 607 113 c 0,21,22
 766 113 766 113 837 220 c 128,-1,23
 908 327 908 327 908 542 c 256,12,13
EndSplineSet
EndChar

StartChar: p
Encoding: 112 112 83
Width: 1229
GlyphClass: 2
Flags: W
AnchorPoint: "bottom" 595 -426 basechar 0
AnchorPoint: "top" 615 1103 basechar 0
LayerCount: 2
Fore
SplineSet
1090 546 m 0,0,1
 1090 -20 1090 -20 698 -20 c 0,2,3
 452 -20 452 -20 367 164 c 1,4,-1
 362 164 l 1,5,6
 366 156 366 156 366 -2 c 2,7,-1
 366 -425 l 1,8,-1
 185 -425 l 1,9,-1
 185 858 l 2,10,11
 185 1028 185 1028 179 1082 c 1,12,-1
 354 1082 l 1,13,14
 355 1078 355 1078 357 1052.5 c 128,-1,15
 359 1027 359 1027 361.5 977.5 c 128,-1,16
 364 928 364 928 364 904 c 1,17,-1
 368 904 l 1,18,19
 418 1009 418 1009 495.5 1056.5 c 128,-1,20
 573 1104 573 1104 698 1104 c 0,21,22
 896 1104 896 1104 993 967.5 c 128,-1,23
 1090 831 1090 831 1090 546 c 0,0,1
904 546 m 0,24,25
 904 772 904 772 843 868.5 c 128,-1,26
 782 965 782 965 651 965 c 0,27,28
 500 965 500 965 433 855.5 c 128,-1,29
 366 746 366 746 366 524 c 0,30,31
 366 311 366 311 433 212 c 128,-1,32
 500 113 500 113 649 113 c 0,33,34
 782 113 782 113 843 214 c 128,-1,35
 904 315 904 315 904 546 c 0,24,25
EndSplineSet
EndChar

StartChar: q
Encoding: 113 113 84
Width: 1229
GlyphClass: 2
Flags: W
AnchorPoint: "bottom" 667 -434 basechar 0
AnchorPoint: "top" 609 1100 basechar 0
LayerCount: 2
Fore
SplineSet
529 1098 m 0,0,1
 658 1098 658 1098 735 1053.5 c 128,-1,2
 812 1009 812 1009 861 914 c 1,3,-1
 863 914 l 1,4,5
 863 944 863 944 866.5 1007.5 c 128,-1,6
 870 1071 870 1071 875 1083 c 1,7,-1
 1050 1083 l 1,8,9
 1044 1029 1044 1029 1044 801 c 2,10,-1
 1044 -425 l 1,11,-1
 863 -425 l 1,12,-1
 863 14 l 1,13,-1
 867 182 l 1,14,-1
 865 182 l 1,15,16
 812 75 812 75 733 24.5 c 128,-1,17
 654 -26 654 -26 530 -26 c 0,18,19
 328 -26 328 -26 233 114.5 c 128,-1,20
 138 255 138 255 138 532 c 0,21,22
 138 1098 138 1098 529 1098 c 0,0,1
863 554 m 0,23,24
 863 766 863 766 795 865.5 c 128,-1,25
 727 965 727 965 579 965 c 0,26,27
 445 965 445 965 384.5 863 c 128,-1,28
 324 761 324 761 324 538 c 0,29,30
 324 317 324 317 385 215 c 128,-1,31
 446 113 446 113 577 113 c 0,32,33
 724 113 724 113 793.5 222 c 128,-1,34
 863 331 863 331 863 554 c 0,23,24
EndSplineSet
EndChar

StartChar: r
Encoding: 114 114 85
Width: 1229
GlyphClass: 2
Flags: W
AnchorPoint: "bottom" 383 -2 basechar 0
AnchorPoint: "top" 635 1078 basechar 0
LayerCount: 2
Fore
SplineSet
1045 918 m 1,0,1
 933 937 933 937 833 937 c 0,2,3
 672 937 672 937 573 816 c 128,-1,4
 474 695 474 695 474 508 c 2,5,-1
 474 0 l 1,6,-1
 294 0 l 1,7,-1
 294 701 l 2,8,9
 294 777 294 777 280.5 880 c 128,-1,10
 267 983 267 983 242 1082 c 1,11,-1
 413 1082 l 1,12,13
 453 944 453 944 461 832 c 1,14,-1
 466 832 l 1,15,16
 516 944 516 944 564 996.5 c 128,-1,17
 612 1049 612 1049 678 1075.5 c 128,-1,18
 744 1102 744 1102 839 1102 c 0,19,20
 943 1102 943 1102 1045 1085 c 1,21,-1
 1045 918 l 1,0,1
EndSplineSet
EndChar

StartChar: s
Encoding: 115 115 86
Width: 1229
GlyphClass: 2
Flags: W
AnchorPoint: "bottom" 621 -22 basechar 0
AnchorPoint: "top" 628 1101 basechar 0
LayerCount: 2
Fore
SplineSet
1060 309 m 0,0,1
 1060 155 1060 155 943.5 67.5 c 128,-1,2
 827 -20 827 -20 621 -20 c 256,3,4
 415 -20 415 -20 307.5 44.5 c 128,-1,5
 200 109 200 109 167 248 c 1,6,-1
 326 279 l 1,7,8
 345 193 345 193 407.5 153.5 c 128,-1,9
 470 114 470 114 621 114 c 0,10,11
 891 114 891 114 891 285 c 0,12,13
 891 349 891 349 842 388.5 c 128,-1,14
 793 428 793 428 692 453 c 0,15,16
 428 518 428 518 357 555 c 128,-1,17
 286 592 286 592 248 647.5 c 128,-1,18
 210 703 210 703 210 786 c 0,19,20
 210 933 210 933 316 1016 c 128,-1,21
 422 1099 422 1099 623 1099 c 0,22,23
 799 1099 799 1099 904 1032.5 c 128,-1,24
 1009 966 1009 966 1035 839 c 1,25,-1
 873 819 l 1,26,27
 862 891 862 891 802 928 c 128,-1,28
 742 965 742 965 623 965 c 0,29,30
 378 965 378 965 378 814 c 0,31,32
 378 754 378 754 419.5 718 c 128,-1,33
 461 682 461 682 553 660 c 1,34,-1
 672 629 l 1,35,36
 835 589 835 589 906.5 550 c 128,-1,37
 978 511 978 511 1019 452.5 c 128,-1,38
 1060 394 1060 394 1060 309 c 0,0,1
EndSplineSet
EndChar

StartChar: t
Encoding: 116 116 87
Width: 1229
GlyphClass: 2
Flags: W
AnchorPoint: "bottom" 636 -19 basechar 0
AnchorPoint: "top" 475 1362 basechar 0
LayerCount: 2
Fore
SplineSet
190 940 m 1,0,-1
 190 1082 l 1,1,-1
 360 1082 l 1,2,-1
 418 1364 l 1,3,-1
 538 1364 l 1,4,-1
 538 1082 l 1,5,-1
 970 1082 l 1,6,-1
 970 940 l 1,7,-1
 538 940 l 1,8,-1
 538 288 l 2,9,10
 538 209 538 209 580.5 171 c 128,-1,11
 623 133 623 133 720 133 c 0,12,13
 854 133 854 133 1017 167 c 1,14,-1
 1017 30 l 1,15,16
 848 -16 848 -16 682 -16 c 0,17,18
 520 -16 520 -16 439 52.5 c 128,-1,19
 358 121 358 121 358 269 c 2,20,-1
 358 940 l 1,21,-1
 190 940 l 1,0,-1
EndSplineSet
EndChar

StartChar: u
Encoding: 117 117 88
Width: 1229
GlyphClass: 2
Flags: W
AnchorPoint: "bottom-right" 961 33 basechar 0
AnchorPoint: "bottom" 628 -21 basechar 0
AnchorPoint: "top" 616 1080 basechar 0
LayerCount: 2
Fore
SplineSet
365 1082 m 1,0,-1
 365 396 l 2,1,2
 365 240 365 240 414 179.5 c 128,-1,3
 463 119 463 119 589 119 c 0,4,5
 718 119 718 119 793 207 c 128,-1,6
 868 295 868 295 868 455 c 2,7,-1
 868 1082 l 1,8,-1
 1049 1082 l 1,9,-1
 1049 231 l 2,10,11
 1049 42 1049 42 1055 0 c 1,12,-1
 885 0 l 1,13,14
 884 5 884 5 883 27 c 128,-1,15
 882 49 882 49 880.5 77.5 c 128,-1,16
 879 106 879 106 877 185 c 1,17,-1
 874 185 l 1,18,19
 812 73 812 73 730.5 26.5 c 128,-1,20
 649 -20 649 -20 528 -20 c 0,21,22
 350 -20 350 -20 267.5 68.5 c 128,-1,23
 185 157 185 157 185 361 c 2,24,-1
 185 1082 l 1,25,-1
 365 1082 l 1,0,-1
EndSplineSet
EndChar

StartChar: v
Encoding: 118 118 89
Width: 1229
GlyphClass: 2
Flags: W
AnchorPoint: "bottom" 609 1 basechar 0
AnchorPoint: "top" 633 1082 basechar 0
LayerCount: 2
Fore
SplineSet
715 0 m 1,0,-1
 502 0 l 1,1,-1
 69 1082 l 1,2,-1
 271 1082 l 1,3,-1
 539 378 l 1,4,-1
 556 325 l 1,5,-1
 608 141 l 1,6,-1
 643 258 l 1,7,-1
 682 376 l 1,8,-1
 958 1082 l 1,9,-1
 1159 1082 l 1,10,-1
 715 0 l 1,0,-1
EndSplineSet
EndChar

StartChar: w
Encoding: 119 119 90
Width: 1229
GlyphClass: 2
Flags: W
AnchorPoint: "bottom" 604 0 basechar 0
AnchorPoint: "top" 617 1079 basechar 0
LayerCount: 2
Fore
SplineSet
1018 0 m 1,0,-1
 814 0 l 1,1,-1
 671 471 l 1,2,-1
 614 673 l 1,3,-1
 575 534 l 1,4,-1
 407 0 l 1,5,-1
 204 0 l 1,6,-1
 21 1082 l 1,7,-1
 199 1082 l 1,8,-1
 292 475 l 1,9,10
 325 211 325 211 325 149 c 1,11,12
 364 309 364 309 383 363 c 1,13,-1
 518 787 l 1,14,-1
 711 787 l 1,15,-1
 841 362 l 2,16,17
 873 257 873 257 896 149 c 1,18,19
 896 179 896 179 900 224 c 128,-1,20
 904 269 904 269 910 316.5 c 128,-1,21
 916 364 916 364 922 407 c 128,-1,22
 928 450 928 450 931 475 c 1,23,-1
 1032 1082 l 1,24,-1
 1208 1082 l 1,25,-1
 1018 0 l 1,0,-1
EndSplineSet
EndChar

StartChar: x
Encoding: 120 120 91
Width: 1229
GlyphClass: 2
Flags: W
AnchorPoint: "bottom" 623 0 basechar 0
AnchorPoint: "top" 619 1078 basechar 0
LayerCount: 2
Fore
SplineSet
932 0 m 1,0,-1
 611 444 l 1,1,-1
 288 0 l 1,2,-1
 94 0 l 1,3,-1
 509 556 l 1,4,-1
 112 1082 l 1,5,-1
 311 1082 l 1,6,-1
 611 661 l 1,7,-1
 909 1082 l 1,8,-1
 1110 1082 l 1,9,-1
 713 558 l 1,10,-1
 1133 0 l 1,11,-1
 932 0 l 1,0,-1
EndSplineSet
EndChar

StartChar: y
Encoding: 121 121 92
Width: 1229
GlyphClass: 2
Flags: W
AnchorPoint: "bottom" 409 -430 basechar 0
AnchorPoint: "top" 625 1078 basechar 0
LayerCount: 2
Fore
SplineSet
292 -425 m 0,0,1
 218 -425 218 -425 168 -414 c 1,2,-1
 168 -279 l 1,3,4
 206 -285 206 -285 252 -285 c 0,5,6
 331 -285 331 -285 400.5 -226 c 128,-1,7
 470 -167 470 -167 518 -38 c 2,8,-1
 536 11 l 1,9,-1
 66 1082 l 1,10,-1
 258 1082 l 1,11,-1
 522 440 l 1,12,13
 613 216 613 216 620 186 c 1,14,-1
 661 296 l 1,15,-1
 971 1082 l 1,16,-1
 1161 1082 l 1,17,-1
 705 0 l 1,18,19
 616 -235 616 -235 520.5 -330 c 128,-1,20
 425 -425 425 -425 292 -425 c 0,0,1
EndSplineSet
EndChar

StartChar: z
Encoding: 122 122 93
Width: 1229
GlyphClass: 2
Flags: W
AnchorPoint: "bottom" 623 -2 basechar 0
AnchorPoint: "top" 633 1086 basechar 0
LayerCount: 2
Fore
SplineSet
147 0 m 1,0,-1
 147 137 l 1,1,-1
 828 943 l 1,2,-1
 187 943 l 1,3,-1
 187 1082 l 1,4,-1
 1031 1082 l 1,5,-1
 1031 945 l 1,6,-1
 349 139 l 1,7,-1
 1068 139 l 1,8,-1
 1068 0 l 1,9,-1
 147 0 l 1,0,-1
EndSplineSet
EndChar

StartChar: braceleft
Encoding: 123 123 94
Width: 1229
GlyphClass: 2
Flags: W
LayerCount: 2
Fore
SplineSet
796 -425 m 2,0,1
 666 -425 666 -425 584 -340.5 c 128,-1,2
 502 -256 502 -256 502 -122 c 2,3,-1
 502 229 l 2,4,5
 502 336 502 336 429 396 c 128,-1,6
 356 456 356 456 227 461 c 1,7,-1
 227 598 l 1,8,9
 357 603 357 603 429.5 664 c 128,-1,10
 502 725 502 725 502 829 c 2,11,-1
 502 1181 l 2,12,13
 502 1318 502 1318 583 1401 c 128,-1,14
 664 1484 664 1484 796 1484 c 2,15,-1
 1061 1484 l 1,16,-1
 1061 1345 l 1,17,-1
 848 1345 l 2,18,19
 757 1345 757 1345 717 1301 c 128,-1,20
 677 1257 677 1257 677 1150 c 2,21,-1
 677 804 l 2,22,23
 677 706 677 706 613 631.5 c 128,-1,24
 549 557 549 557 446 532 c 1,25,-1
 446 530 l 1,26,27
 548 506 548 506 612.5 432.5 c 128,-1,28
 677 359 677 359 677 256 c 2,29,-1
 677 -91 l 2,30,31
 677 -197 677 -197 717 -241.5 c 128,-1,32
 757 -286 757 -286 848 -286 c 2,33,-1
 1061 -286 l 1,34,-1
 1061 -425 l 1,35,-1
 796 -425 l 2,0,1
EndSplineSet
Validated: 1
EndChar

StartChar: bar
Encoding: 124 124 95
Width: 1229
GlyphClass: 2
Flags: W
LayerCount: 2
Fore
SplineSet
531 -425 m 1,0,-1
 531 1484 l 1,1,-1
 697 1484 l 1,2,-1
 697 -425 l 1,3,-1
 531 -425 l 1,0,-1
EndSplineSet
Validated: 1
EndChar

StartChar: braceright
Encoding: 125 125 96
Width: 1229
GlyphClass: 2
Flags: W
LayerCount: 2
Fore
SplineSet
167 -425 m 1,0,-1
 167 -286 l 1,1,-1
 380 -286 l 2,2,3
 471 -286 471 -286 511.5 -241.5 c 128,-1,4
 552 -197 552 -197 552 -91 c 2,5,-1
 552 256 l 2,6,7
 552 358 552 358 616 432 c 128,-1,8
 680 506 680 506 782 530 c 1,9,-1
 782 532 l 1,10,11
 680 557 680 557 616 632 c 128,-1,12
 552 707 552 707 552 804 c 2,13,-1
 552 1150 l 2,14,15
 552 1255 552 1255 512 1300 c 128,-1,16
 472 1345 472 1345 380 1345 c 2,17,-1
 167 1345 l 1,18,-1
 167 1484 l 1,19,-1
 432 1484 l 2,20,21
 565 1484 565 1484 645.5 1401 c 128,-1,22
 726 1318 726 1318 726 1181 c 2,23,-1
 726 829 l 2,24,25
 726 724 726 724 799 663.5 c 128,-1,26
 872 603 872 603 1001 598 c 1,27,-1
 1001 461 l 1,28,29
 871 456 871 456 798.5 395.5 c 128,-1,30
 726 335 726 335 726 229 c 2,31,-1
 726 -122 l 2,32,33
 726 -257 726 -257 644 -341 c 128,-1,34
 562 -425 562 -425 432 -425 c 2,35,-1
 167 -425 l 1,0,-1
EndSplineSet
Validated: 1
EndChar

StartChar: asciitilde
Encoding: 126 126 97
Width: 1229
GlyphClass: 2
Flags: W
LayerCount: 2
Fore
SplineSet
371 807 m 0,0,1
 473 807 473 807 606 761 c 0,2,3
 753 710 753 710 796.5 700 c 128,-1,4
 840 690 840 690 876 690 c 0,5,6
 1006 690 1006 690 1120 782 c 1,7,-1
 1120 633 l 1,8,9
 1060 591 1060 591 1002.5 572 c 128,-1,10
 945 553 945 553 860 553 c 0,11,12
 791 553 791 553 718.5 575 c 128,-1,13
 646 597 646 597 573 623 c 0,14,15
 444 668 444 668 356 668 c 0,16,17
 289 668 289 668 231 647.5 c 128,-1,18
 173 627 173 627 108 580 c 1,19,-1
 108 723 l 1,20,21
 219 807 219 807 371 807 c 0,0,1
EndSplineSet
Validated: 1
EndChar

StartChar: dagger
Encoding: 8224 8224 130
Width: 1229
GlyphClass: 2
Flags: W
LayerCount: 2
Fore
SplineSet
685 989 m 1,0,-1
 671 -213 l 1,1,-1
 556 -213 l 1,2,-1
 542 989 l 1,3,-1
 182 972 l 1,4,-1
 182 1136 l 1,5,-1
 542 1117 l 1,6,-1
 516 1483 l 1,7,-1
 711 1483 l 1,8,-1
 685 1117 l 1,9,-1
 1046 1136 l 1,10,-1
 1046 972 l 1,11,-1
 685 989 l 1,0,-1
EndSplineSet
Validated: 1
EndChar

StartChar: degree
Encoding: 176 176 131
Width: 1229
GlyphClass: 2
Flags: W
LayerCount: 2
Fore
SplineSet
901 1085 m 256,0,1
 901 966 901 966 816.5 883 c 128,-1,2
 732 800 732 800 614 800 c 256,3,4
 496 800 496 800 411.5 884 c 128,-1,5
 327 968 327 968 327 1085 c 256,6,7
 327 1202 327 1202 410.5 1286 c 128,-1,8
 494 1370 494 1370 614 1370 c 256,9,10
 734 1370 734 1370 817.5 1287 c 128,-1,11
 901 1204 901 1204 901 1085 c 256,0,1
792 1085 m 0,12,13
 792 1161 792 1161 740.5 1213 c 128,-1,14
 689 1265 689 1265 614 1265 c 256,15,16
 539 1265 539 1265 487.5 1212 c 128,-1,17
 436 1159 436 1159 436 1085 c 256,18,19
 436 1011 436 1011 488.5 958 c 128,-1,20
 541 905 541 905 614 905 c 0,21,22
 688 905 688 905 740 957.5 c 128,-1,23
 792 1010 792 1010 792 1085 c 0,12,13
EndSplineSet
Validated: 1
EndChar

StartChar: cent
Encoding: 162 162 132
Width: 1229
GlyphClass: 2
Flags: W
HStem: 134 140<698 811.156> 1053 142<453.019 570 698 812.264>
VStem: 133 183<435.086 901.31> 570 128<-61 138.719 274 1053 1190.55 1379> 912 182<371.578 474.945>
LayerCount: 2
Fore
SplineSet
-52 1475 m 1053,0,-1
570 1053 m 5,1,2
 460 1036 460 1036 396 958 c 4,3,4
 316 858 316 858 316 668 c 4,5,6
 316 470 316 470 400 370 c 4,7,8
 465 292 465 292 571 274 c 5,9,-1
 570 1053 l 5,1,2
571 -61 m 5,10,-1
 570 -61 l 5,11,-1
 570 134 l 5,12,13
 362 149 362 149 247.5 286.5 c 132,-1,14
 133 424 133 424 133 656 c 4,15,16
 133 896 133 896 249 1036.5 c 132,-1,17
 365 1177 365 1177 570 1195 c 5,18,-1
 570 1379 l 5,19,-1
 697 1381 l 5,20,-1
 697 1379 l 5,21,-1
 698 1379 l 5,22,-1
 698 1195 l 5,23,24
 855 1182 855 1182 957 1097.5 c 132,-1,25
 1059 1013 1059 1013 1088 873 c 5,26,-1
 903 859 l 5,27,28
 886 950 886 950 820 1004 c 4,29,30
 773 1043 773 1043 697 1054 c 5,31,-1
 697 274 l 5,32,33
 770 286 770 286 822 325 c 4,34,35
 896 381 896 381 912 486 c 5,36,-1
 1094 474 l 5,37,38
 1073 332 1073 332 966 240 c 132,-1,39
 859 148 859 148 698 134 c 5,40,-1
 698 -61 l 5,41,-1
 697 -61 l 5,42,-1
 571 -61 l 5,10,-1
EndSplineSet
EndChar

StartChar: sterling
Encoding: 163 163 133
Width: 1229
GlyphClass: 2
Flags: W
LayerCount: 2
Fore
SplineSet
1171 240 m 1,0,1
 1121 0 1121 0 937 0 c 2,2,-1
 56 0 l 1,3,-1
 56 154 l 1,4,5
 143 198 143 198 178.5 237 c 128,-1,6
 214 276 214 276 232.5 332.5 c 128,-1,7
 251 389 251 389 251 471 c 2,8,-1
 251 612 l 1,9,-1
 65 612 l 1,10,-1
 65 754 l 1,11,-1
 251 754 l 1,12,-1
 251 974 l 2,13,14
 251 1168 251 1168 359.5 1269 c 128,-1,15
 468 1370 468 1370 673 1370 c 0,16,17
 826 1370 826 1370 928 1309.5 c 128,-1,18
 1030 1249 1030 1249 1064 1140 c 1,19,-1
 890 1083 l 1,20,21
 868 1146 868 1146 809.5 1178 c 128,-1,22
 751 1210 751 1210 673 1210 c 0,23,24
 551 1210 551 1210 491 1152.5 c 128,-1,25
 431 1095 431 1095 431 970 c 2,26,-1
 431 754 l 1,27,-1
 839 754 l 1,28,-1
 839 612 l 1,29,-1
 431 612 l 1,30,-1
 431 473 l 2,31,32
 431 345 431 345 395 273.5 c 128,-1,33
 359 202 359 202 276 158 c 1,34,-1
 876 158 l 2,35,36
 935 158 935 158 963.5 184.5 c 128,-1,37
 992 211 992 211 1003 264 c 1,38,-1
 1171 240 l 1,0,1
EndSplineSet
Validated: 1
EndChar

StartChar: section
Encoding: 167 167 134
Width: 1229
GlyphClass: 2
Flags: W
LayerCount: 2
Fore
SplineSet
632 1484 m 0,0,1
 805 1484 805 1484 911.5 1417.5 c 128,-1,2
 1018 1351 1018 1351 1045 1224 c 1,3,-1
 884 1204 l 1,4,5
 870 1283 870 1283 805.5 1323.5 c 128,-1,6
 741 1364 741 1364 632 1364 c 0,7,8
 507 1364 507 1364 442.5 1319.5 c 128,-1,9
 378 1275 378 1275 378 1204 c 0,10,11
 378 1156 378 1156 408 1121 c 128,-1,12
 438 1086 438 1086 493.5 1060 c 128,-1,13
 549 1034 549 1034 679 1003 c 0,14,15
 826 968 826 968 904 926.5 c 128,-1,16
 982 885 982 885 1025 826 c 128,-1,17
 1068 767 1068 767 1068 686 c 0,18,19
 1068 587 1068 587 1008.5 512 c 128,-1,20
 949 437 949 437 849 413 c 1,21,22
 961 365 961 365 1011.5 300.5 c 128,-1,23
 1062 236 1062 236 1062 145 c 0,24,25
 1062 -3 1062 -3 946.5 -87.5 c 128,-1,26
 831 -172 831 -172 621 -172 c 0,27,28
 412 -172 412 -172 302.5 -105.5 c 128,-1,29
 193 -39 193 -39 159 100 c 1,30,-1
 320 131 l 1,31,32
 340 38 340 38 411.5 -7 c 128,-1,33
 483 -52 483 -52 621 -52 c 0,34,35
 752 -52 752 -52 827 -4 c 128,-1,36
 902 44 902 44 902 129 c 0,37,38
 902 185 902 185 870 224 c 128,-1,39
 838 263 838 263 779.5 291 c 128,-1,40
 721 319 721 319 562 358 c 1,41,42
 367 403 367 403 282 481 c 128,-1,43
 197 559 197 559 197 671 c 0,44,45
 197 760 197 760 258.5 834 c 128,-1,46
 320 908 320 908 425 938 c 1,47,48
 329 970 329 970 273.5 1037 c 128,-1,49
 218 1104 218 1104 218 1190 c 0,50,51
 218 1329 218 1329 323.5 1406.5 c 128,-1,52
 429 1484 429 1484 632 1484 c 0,0,1
910 663 m 0,53,54
 910 735 910 735 840.5 787 c 128,-1,55
 771 839 771 839 595 880 c 1,56,57
 486 874 486 874 421.5 821 c 128,-1,58
 357 768 357 768 357 684 c 0,59,60
 357 635 357 635 386.5 598.5 c 128,-1,61
 416 562 416 562 471.5 535 c 128,-1,62
 527 508 527 508 656 475 c 1,63,64
 775 477 775 477 842.5 527.5 c 128,-1,65
 910 578 910 578 910 663 c 0,53,54
EndSplineSet
Validated: 1
EndChar

StartChar: bullet
Encoding: 8226 8226 135
Width: 1229
GlyphClass: 2
Flags: W
LayerCount: 2
Fore
SplineSet
891 682 m 0,0,1
 891 565 891 565 807.5 483 c 128,-1,2
 724 401 724 401 610 401 c 0,3,4
 499 401 499 401 417.5 483 c 128,-1,5
 336 565 336 565 336 682 c 0,6,7
 336 797 336 797 417 876.5 c 128,-1,8
 498 956 498 956 610 956 c 0,9,10
 725 956 725 956 808 876.5 c 128,-1,11
 891 797 891 797 891 682 c 0,0,1
EndSplineSet
Validated: 1
EndChar

StartChar: paragraph
Encoding: 182 182 136
Width: 1229
GlyphClass: 2
Flags: W
LayerCount: 2
Fore
SplineSet
951 1227 m 1,0,-1
 951 -324 l 1,1,-1
 819 -324 l 1,2,-1
 819 1227 l 1,3,-1
 622 1227 l 1,4,-1
 622 -324 l 1,5,-1
 489 -324 l 1,6,-1
 489 634 l 1,7,8
 321 634 321 634 224 726.5 c 128,-1,9
 127 819 127 819 127 989 c 0,10,11
 127 1158 127 1158 225.5 1253.5 c 128,-1,12
 324 1349 324 1349 497 1349 c 2,13,-1
 1080 1349 l 1,14,-1
 1080 1227 l 1,15,-1
 951 1227 l 1,0,-1
EndSplineSet
Validated: 1
EndChar

StartChar: germandbls
Encoding: 223 223 137
Width: 1229
GlyphClass: 2
Flags: W
LayerCount: 2
Fore
SplineSet
1167 295 m 0,0,1
 1167 143 1167 143 1072 57 c 128,-1,2
 977 -29 977 -29 809 -29 c 0,3,4
 638 -29 638 -29 526 20 c 1,5,-1
 524 184 l 1,6,7
 582 151 582 151 659 133 c 128,-1,8
 736 115 736 115 805 115 c 0,9,10
 897 115 897 115 946 162.5 c 128,-1,11
 995 210 995 210 995 289 c 0,12,13
 995 356 995 356 954 408.5 c 128,-1,14
 913 461 913 461 813 522 c 0,15,16
 721 577 721 577 675.5 640 c 128,-1,17
 630 703 630 703 630 785 c 0,18,19
 630 846 630 846 658.5 896 c 128,-1,20
 687 946 687 946 741 991 c 0,21,22
 799 1039 799 1039 825.5 1081 c 128,-1,23
 852 1123 852 1123 852 1173 c 0,24,25
 852 1250 852 1250 785 1296.5 c 128,-1,26
 718 1343 718 1343 609 1343 c 0,27,28
 461 1343 461 1343 391.5 1263 c 128,-1,29
 322 1183 322 1183 322 1021 c 2,30,-1
 322 0 l 1,31,-1
 142 0 l 1,32,-1
 142 1027 l 2,33,34
 142 1254 142 1254 259.5 1369 c 128,-1,35
 377 1484 377 1484 609 1484 c 0,36,37
 799 1484 799 1484 911.5 1403.5 c 128,-1,38
 1024 1323 1024 1323 1024 1187 c 0,39,40
 1024 1049 1024 1049 911 948 c 0,41,42
 840 885 840 885 819 855 c 128,-1,43
 798 825 798 825 798 791 c 0,44,45
 798 749 798 749 831 714.5 c 128,-1,46
 864 680 864 680 983 600 c 0,47,48
 1072 540 1072 540 1119.5 465 c 128,-1,49
 1167 390 1167 390 1167 295 c 0,0,1
EndSplineSet
Validated: 1
EndChar

StartChar: registered
Encoding: 174 174 138
Width: 1229
GlyphClass: 2
Flags: W
LayerCount: 2
Fore
SplineSet
1197 761 m 0,0,1
 1197 534 1197 534 1126 370.5 c 128,-1,2
 1055 207 1055 207 923 122.5 c 128,-1,3
 791 38 791 38 614 38 c 256,4,5
 437 38 437 38 305.5 123.5 c 128,-1,6
 174 209 174 209 102.5 372 c 128,-1,7
 31 535 31 535 31 761 c 256,8,9
 31 987 31 987 102 1150 c 128,-1,10
 173 1313 173 1313 305.5 1398.5 c 128,-1,11
 438 1484 438 1484 614 1484 c 256,12,13
 790 1484 790 1484 922.5 1399 c 128,-1,14
 1055 1314 1055 1314 1126 1151.5 c 128,-1,15
 1197 989 1197 989 1197 761 c 0,0,1
1105 761 m 256,16,17
 1105 1062 1105 1062 975 1225.5 c 128,-1,18
 845 1389 845 1389 614 1389 c 0,19,20
 463 1389 463 1389 353.5 1316.5 c 128,-1,21
 244 1244 244 1244 185 1102.5 c 128,-1,22
 126 961 126 961 126 761 c 0,23,24
 126 462 126 462 253.5 297 c 128,-1,25
 381 132 381 132 614 132 c 256,26,27
 847 132 847 132 976 296 c 128,-1,28
 1105 460 1105 460 1105 761 c 256,16,17
815 343 m 1,29,-1
 616 679 l 1,30,-1
 455 679 l 1,31,-1
 455 343 l 1,32,-1
 328 343 l 1,33,-1
 328 1174 l 1,34,-1
 635 1174 l 2,35,36
 777 1174 777 1174 852.5 1111 c 128,-1,37
 928 1048 928 1048 928 937 c 0,38,39
 928 835 928 835 876 773.5 c 128,-1,40
 824 712 824 712 739 693 c 1,41,-1
 960 343 l 1,42,-1
 815 343 l 1,29,-1
801 935 m 0,43,44
 801 1004 801 1004 753.5 1040 c 128,-1,45
 706 1076 706 1076 625 1076 c 2,46,-1
 455 1076 l 1,47,-1
 455 775 l 1,48,-1
 637 775 l 2,49,50
 717 775 717 775 759 817.5 c 128,-1,51
 801 860 801 860 801 935 c 0,43,44
EndSplineSet
Validated: 1
EndChar

StartChar: copyright
Encoding: 169 169 139
Width: 1229
GlyphClass: 2
Flags: W
LayerCount: 2
Fore
SplineSet
398 763 m 0,0,1
 398 610 398 610 457 523.5 c 128,-1,2
 516 437 516 437 622 437 c 0,3,4
 687 437 687 437 735 474 c 128,-1,5
 783 511 783 511 818 593 c 1,6,-1
 933 558 l 1,7,8
 881 440 881 440 804.5 386.5 c 128,-1,9
 728 333 728 333 622 333 c 0,10,11
 454 333 454 333 361.5 446.5 c 128,-1,12
 269 560 269 560 269 763 c 0,13,14
 269 965 269 965 358 1076 c 128,-1,15
 447 1187 447 1187 615 1187 c 0,16,17
 832 1187 832 1187 918 978 c 1,18,-1
 804 945 l 1,19,20
 778 1012 778 1012 729.5 1047 c 128,-1,21
 681 1082 681 1082 617 1082 c 0,22,23
 510 1082 510 1082 454 1001.5 c 128,-1,24
 398 921 398 921 398 763 c 0,0,1
1197 761 m 0,25,26
 1197 534 1197 534 1126 370.5 c 128,-1,27
 1055 207 1055 207 923 122.5 c 128,-1,28
 791 38 791 38 614 38 c 256,29,30
 437 38 437 38 305.5 123.5 c 128,-1,31
 174 209 174 209 102.5 372 c 128,-1,32
 31 535 31 535 31 761 c 256,33,34
 31 987 31 987 102 1150 c 128,-1,35
 173 1313 173 1313 305.5 1398.5 c 128,-1,36
 438 1484 438 1484 614 1484 c 256,37,38
 790 1484 790 1484 922.5 1399 c 128,-1,39
 1055 1314 1055 1314 1126 1151.5 c 128,-1,40
 1197 989 1197 989 1197 761 c 0,25,26
1105 761 m 256,41,42
 1105 1062 1105 1062 975 1225.5 c 128,-1,43
 845 1389 845 1389 614 1389 c 0,44,45
 463 1389 463 1389 353.5 1316.5 c 128,-1,46
 244 1244 244 1244 185 1102.5 c 128,-1,47
 126 961 126 961 126 761 c 0,48,49
 126 462 126 462 253.5 297 c 128,-1,50
 381 132 381 132 614 132 c 256,51,52
 847 132 847 132 976 296 c 128,-1,53
 1105 460 1105 460 1105 761 c 256,41,42
EndSplineSet
Validated: 1
EndChar

StartChar: trademark
Encoding: 8482 8482 140
Width: 1229
GlyphClass: 2
Flags: W
LayerCount: 2
Fore
SplineSet
1119 842 m 1,0,-1
 1119 1354 l 1,1,-1
 1113 1336 l 1,2,-1
 913 842 l 1,3,-1
 824 842 l 1,4,5
 671 1230 671 1230 624 1354 c 1,6,-1
 624 842 l 1,7,-1
 519 842 l 1,8,-1
 519 1483 l 1,9,-1
 675 1483 l 1,10,-1
 859 1018 l 1,11,-1
 872 983 l 1,12,-1
 933 1141 l 1,13,-1
 1072 1483 l 1,14,-1
 1224 1483 l 1,15,-1
 1224 842 l 1,16,-1
 1119 842 l 1,0,-1
286 1391 m 1,17,-1
 286 842 l 1,18,-1
 175 842 l 1,19,-1
 175 1391 l 1,20,-1
 4 1391 l 1,21,-1
 4 1483 l 1,22,-1
 461 1483 l 1,23,-1
 461 1391 l 1,24,-1
 286 1391 l 1,17,-1
EndSplineSet
Validated: 1
EndChar

StartChar: acute
Encoding: 180 180 141
Width: 1229
GlyphClass: 2
Flags: W
LayerCount: 2
Fore
SplineSet
402 1201 m 1,0,-1
 402 1221 l 1,1,-1
 629 1460 l 1,2,-1
 826 1460 l 1,3,-1
 826 1431 l 1,4,-1
 526 1201 l 1,5,-1
 402 1201 l 1,0,-1
EndSplineSet
Validated: 1
EndChar

StartChar: dieresis
Encoding: 168 168 142
Width: 1229
GlyphClass: 2
Flags: W
LayerCount: 2
Fore
SplineSet
729 1219 m 1,0,-1
 729 1403 l 1,1,-1
 892 1403 l 1,2,-1
 892 1219 l 1,3,-1
 729 1219 l 1,0,-1
335 1219 m 1,4,-1
 335 1403 l 1,5,-1
 500 1403 l 1,6,-1
 500 1219 l 1,7,-1
 335 1219 l 1,4,-1
EndSplineSet
Validated: 1
EndChar

StartChar: notequal
Encoding: 8800 8800 143
Width: 1229
GlyphClass: 2
Flags: W
LayerCount: 2
Fore
SplineSet
499 344 m 1,0,-1
 347 55 l 1,1,-1
 202 55 l 1,2,-1
 353 344 l 1,3,-1
 116 344 l 1,4,-1
 116 492 l 1,5,-1
 427 492 l 1,6,-1
 617 856 l 1,7,-1
 116 856 l 1,8,-1
 116 1004 l 1,9,-1
 689 1004 l 1,10,-1
 843 1296 l 1,11,-1
 986 1296 l 1,12,-1
 834 1004 l 1,13,-1
 1111 1004 l 1,14,-1
 1111 856 l 1,15,-1
 761 856 l 1,16,-1
 570 492 l 1,17,-1
 1111 492 l 1,18,-1
 1111 344 l 1,19,-1
 499 344 l 1,0,-1
EndSplineSet
Validated: 1
EndChar

StartChar: AE
Encoding: 198 198 144
Width: 1229
GlyphClass: 2
Flags: W
AnchorPoint: "bottom" 634 -55 basechar 0
AnchorPoint: "top" 798 1425 basechar 0
LayerCount: 2
Fore
SplineSet
646 412 m 1,0,-1
 311 412 l 1,1,-1
 169 0 l 1,2,-1
 1 0 l 1,3,-1
 487 1349 l 1,4,-1
 1154 1349 l 1,5,-1
 1154 1197 l 1,6,-1
 817 1197 l 1,7,-1
 817 767 l 1,8,-1
 1144 767 l 1,9,-1
 1144 617 l 1,10,-1
 817 617 l 1,11,-1
 817 152 l 1,12,-1
 1195 152 l 1,13,-1
 1195 0 l 1,14,-1
 646 0 l 1,15,-1
 646 412 l 1,0,-1
646 1202 m 1,16,-1
 573 1202 l 1,17,18
 569 1186 569 1186 530.5 1056 c 128,-1,19
 492 926 492 926 362 561 c 1,20,-1
 646 561 l 1,21,-1
 646 1202 l 1,16,-1
EndSplineSet
EndChar

StartChar: Oslash
Encoding: 216 216 145
Width: 1229
GlyphClass: 2
Flags: W
LayerCount: 2
Fore
SplineSet
1126 681 m 0,0,1
 1126 344 1126 344 993.5 162 c 128,-1,2
 861 -20 861 -20 613 -20 c 0,3,4
 395 -20 395 -20 267 118 c 1,5,-1
 150 -38 l 1,6,-1
 56 27 l 1,7,-1
 197 216 l 1,8,9
 102 390 102 390 102 681 c 0,10,11
 102 1018 102 1018 232 1194 c 128,-1,12
 362 1370 362 1370 615 1370 c 0,13,14
 832 1370 832 1370 960 1236 c 1,15,-1
 1076 1392 l 1,16,-1
 1170 1327 l 1,17,-1
 1030 1140 l 1,18,19
 1126 970 1126 970 1126 681 c 0,0,1
925 681 m 0,20,21
 925 845 925 845 895 959 c 1,22,-1
 383 273 l 1,23,24
 462 135 462 135 614 135 c 0,25,26
 777 135 777 135 851 275 c 128,-1,27
 925 415 925 415 925 681 c 0,20,21
303 681 m 0,28,29
 303 515 303 515 333 399 c 1,30,-1
 845 1083 l 1,31,32
 768 1214 768 1214 615 1214 c 0,33,34
 303 1214 303 1214 303 681 c 0,28,29
EndSplineSet
Validated: 1
EndChar

StartChar: infinity
Encoding: 8734 8734 146
Width: 1229
GlyphClass: 2
Flags: W
LayerCount: 2
Fore
SplineSet
1195 590 m 0,0,1
 1195 424 1195 424 1115 313.5 c 128,-1,2
 1035 203 1035 203 913 203 c 0,3,4
 728 203 728 203 609 485 c 1,5,6
 553 359 553 359 474 284 c 128,-1,7
 395 209 395 209 313 209 c 0,8,9
 187 209 187 209 108 315 c 128,-1,10
 29 421 29 421 29 596 c 0,11,12
 29 767 29 767 109.5 875 c 128,-1,13
 190 983 190 983 313 983 c 0,14,15
 496 983 496 983 611 700 c 1,16,17
 741 977 741 977 915 977 c 0,18,19
 1042 977 1042 977 1118.5 870.5 c 128,-1,20
 1195 764 1195 764 1195 590 c 0,0,1
889 846 m 0,21,22
 828 846 828 846 776.5 783 c 128,-1,23
 725 720 725 720 677 590 c 1,24,25
 722 462 722 462 773 398 c 128,-1,26
 824 334 824 334 890 334 c 0,27,28
 962 334 962 334 1009 405.5 c 128,-1,29
 1056 477 1056 477 1056 592 c 0,30,31
 1056 699 1056 699 1009 772.5 c 128,-1,32
 962 846 962 846 889 846 c 0,21,22
546 596 m 1,33,34
 502 724 502 724 450.5 788 c 128,-1,35
 399 852 399 852 332 852 c 0,36,37
 261 852 261 852 215 779 c 128,-1,38
 169 706 169 706 169 594 c 0,39,40
 169 479 169 479 215 409.5 c 128,-1,41
 261 340 261 340 334 340 c 0,42,43
 451 340 451 340 546 596 c 1,33,34
EndSplineSet
Validated: 1
EndChar

StartChar: plusminus
Encoding: 177 177 147
Width: 1229
GlyphClass: 2
Flags: W
LayerCount: 2
Fore
SplineSet
687 680 m 1,0,-1
 687 285 l 1,1,-1
 540 285 l 1,2,-1
 540 680 l 1,3,-1
 116 680 l 1,4,-1
 116 825 l 1,5,-1
 540 825 l 1,6,-1
 540 1219 l 1,7,-1
 687 1219 l 1,8,-1
 687 825 l 1,9,-1
 1111 825 l 1,10,-1
 1111 680 l 1,11,-1
 687 680 l 1,0,-1
116 0 m 1,12,-1
 116 145 l 1,13,-1
 1111 145 l 1,14,-1
 1111 0 l 1,15,-1
 116 0 l 1,12,-1
EndSplineSet
Validated: 1
EndChar

StartChar: lessequal
Encoding: 8804 8804 148
Width: 1229
GlyphClass: 2
Flags: W
LayerCount: 2
Fore
SplineSet
117 631 m 1,0,-1
 117 836 l 1,1,-1
 1112 1231 l 1,2,-1
 1112 1077 l 1,3,-1
 254 733 l 1,4,-1
 1112 389 l 1,5,-1
 1112 236 l 1,6,-1
 117 631 l 1,0,-1
115 0 m 1,7,-1
 115 145 l 1,8,-1
 1110 145 l 1,9,-1
 1110 0 l 1,10,-1
 115 0 l 1,7,-1
EndSplineSet
Validated: 1
EndChar

StartChar: greaterequal
Encoding: 8805 8805 149
Width: 1229
GlyphClass: 2
Flags: W
LayerCount: 2
Fore
SplineSet
116 236 m 1,0,-1
 116 389 l 1,1,-1
 974 733 l 1,2,-1
 116 1077 l 1,3,-1
 116 1231 l 1,4,-1
 1111 836 l 1,5,-1
 1111 631 l 1,6,-1
 116 236 l 1,0,-1
116 0 m 1,7,-1
 116 145 l 1,8,-1
 1111 145 l 1,9,-1
 1111 0 l 1,10,-1
 116 0 l 1,7,-1
EndSplineSet
Validated: 1
EndChar

StartChar: yen
Encoding: 165 165 150
Width: 1229
GlyphClass: 2
Flags: W
LayerCount: 2
Fore
SplineSet
764 679 m 1,0,-1
 1085 679 l 1,1,-1
 1085 537 l 1,2,-1
 702 537 l 1,3,-1
 702 400 l 1,4,-1
 1085 400 l 1,5,-1
 1085 256 l 1,6,-1
 702 256 l 1,7,-1
 702 0 l 1,8,-1
 524 0 l 1,9,-1
 524 256 l 1,10,-1
 143 256 l 1,11,-1
 143 400 l 1,12,-1
 524 400 l 1,13,-1
 526 537 l 1,14,-1
 143 537 l 1,15,-1
 143 679 l 1,16,-1
 463 679 l 1,17,-1
 52 1349 l 1,18,-1
 251 1349 l 1,19,-1
 612 732 l 1,20,-1
 977 1349 l 1,21,-1
 1176 1349 l 1,22,-1
 764 679 l 1,0,-1
EndSplineSet
Validated: 1
EndChar

StartChar: mu
Encoding: 181 181 151
Width: 1229
GlyphClass: 2
Flags: W
LayerCount: 2
Fore
SplineSet
916 0 m 1,0,1
 914 11 914 11 910 92 c 128,-1,2
 906 173 906 173 906 199 c 1,3,-1
 902 199 l 1,4,5
 796 -20 796 -20 568 -20 c 0,6,7
 486 -20 486 -20 422 12 c 128,-1,8
 358 44 358 44 326 102 c 1,9,-1
 322 102 l 1,10,11
 326 59 326 59 326 -20 c 2,12,-1
 326 -393 l 1,13,-1
 144 -393 l 1,14,-1
 144 1082 l 1,15,-1
 326 1082 l 1,16,-1
 326 438 l 2,17,18
 326 121 326 121 590 121 c 0,19,20
 721 121 721 121 809 217.5 c 128,-1,21
 897 314 897 314 897 465 c 2,22,-1
 897 1082 l 1,23,-1
 1078 1082 l 1,24,-1
 1078 233 l 2,25,26
 1078 42 1078 42 1084 0 c 1,27,-1
 916 0 l 1,0,1
EndSplineSet
Validated: 1
EndChar

StartChar: partialdiff
Encoding: 8706 8706 152
Width: 1229
GlyphClass: 2
Flags: W
LayerCount: 2
Fore
SplineSet
1123 938 m 0,0,1
 1123 759 1123 759 1077 568 c 128,-1,2
 1031 377 1031 377 946.5 243.5 c 128,-1,3
 862 110 862 110 744.5 41.5 c 128,-1,4
 627 -27 627 -27 482 -27 c 0,5,6
 301 -27 301 -27 203 73.5 c 128,-1,7
 105 174 105 174 105 356 c 0,8,9
 105 474 105 474 147 599.5 c 128,-1,10
 189 725 189 725 259 814.5 c 128,-1,11
 329 904 329 904 426.5 954 c 128,-1,12
 524 1004 524 1004 641 1004 c 0,13,14
 741 1004 741 1004 818 954.5 c 128,-1,15
 895 905 895 905 932 821 c 1,16,-1
 936 821 l 1,17,18
 941 884 941 884 941 938 c 0,19,20
 941 1134 941 1134 868 1238.5 c 128,-1,21
 795 1343 795 1343 650 1343 c 0,22,23
 590 1343 590 1343 521 1323.5 c 128,-1,24
 452 1304 452 1304 400 1268 c 1,25,-1
 439 1415 l 1,26,27
 563 1477 563 1477 685 1477 c 0,28,29
 895 1477 895 1477 1009 1339 c 128,-1,30
 1123 1201 1123 1201 1123 938 c 0,0,1
906 680 m 1,31,32
 885 769 885 769 818 826 c 128,-1,33
 751 883 751 883 666 883 c 0,34,35
 565 883 565 883 483 816.5 c 128,-1,36
 401 750 401 750 348 618.5 c 128,-1,37
 295 487 295 487 295 358 c 0,38,39
 295 243 295 243 350.5 176 c 128,-1,40
 406 109 406 109 506 109 c 0,41,42
 601 109 601 109 683.5 183.5 c 128,-1,43
 766 258 766 258 824.5 389.5 c 128,-1,44
 883 521 883 521 906 680 c 1,31,32
EndSplineSet
Validated: 1
EndChar

StartChar: summation
Encoding: 8721 8721 153
Width: 1229
GlyphClass: 2
Flags: W
LayerCount: 2
Fore
SplineSet
27 -455 m 1,0,-1
 27 -346 l 1,1,-1
 662 456 l 1,2,-1
 43 1243 l 1,3,-1
 43 1349 l 1,4,-1
 1133 1349 l 1,5,-1
 1133 1197 l 1,6,-1
 287 1197 l 1,7,-1
 871 458 l 1,8,-1
 271 -303 l 1,9,-1
 1201 -303 l 1,10,-1
 1201 -455 l 1,11,-1
 27 -455 l 1,0,-1
EndSplineSet
Validated: 1
EndChar

StartChar: product
Encoding: 8719 8719 154
Width: 1229
GlyphClass: 2
Flags: W
LayerCount: 2
Fore
SplineSet
938 -455 m 1,0,-1
 938 1187 l 1,1,-1
 296 1187 l 1,2,-1
 296 -455 l 1,3,-1
 105 -455 l 1,4,-1
 105 1349 l 1,5,-1
 1122 1349 l 1,6,-1
 1122 -455 l 1,7,-1
 938 -455 l 1,0,-1
EndSplineSet
Validated: 1
EndChar

StartChar: integral
Encoding: 8747 8747 155
Width: 1229
GlyphClass: 2
Flags: W
LayerCount: 2
Fore
SplineSet
878 1368 m 0,0,1
 795 1368 795 1368 750.5 1308.5 c 128,-1,2
 706 1249 706 1249 706 1135 c 2,3,-1
 706 -100 l 2,4,5
 706 -272 706 -272 619 -363.5 c 128,-1,6
 532 -455 532 -455 369 -455 c 0,7,8
 290 -455 290 -455 235 -436 c 1,9,-1
 235 -289 l 1,10,11
 295 -313 295 -313 352 -313 c 0,12,13
 522 -313 522 -313 522 -80 c 2,14,-1
 522 1153 l 2,15,16
 522 1325 522 1325 609 1416 c 128,-1,17
 696 1507 696 1507 862 1507 c 0,18,19
 949 1507 949 1507 993 1489 c 1,20,-1
 993 1341 l 1,21,22
 944 1368 944 1368 878 1368 c 0,0,1
EndSplineSet
Validated: 1
EndChar

StartChar: ordfeminine
Encoding: 170 170 156
Width: 1229
GlyphClass: 2
Flags: W
LayerCount: 2
Fore
SplineSet
206 870 m 0,0,1
 206 987 206 987 296 1048.5 c 128,-1,2
 386 1110 386 1110 564 1112 c 1,3,-1
 755 1116 l 1,4,-1
 755 1159 l 2,5,6
 755 1341 755 1341 575 1341 c 0,7,8
 491 1341 491 1341 445 1307 c 128,-1,9
 399 1273 399 1273 388 1196 c 1,10,-1
 239 1206 l 1,11,12
 257 1312 257 1312 345 1372 c 128,-1,13
 433 1432 433 1432 579 1432 c 0,14,15
 732 1432 732 1432 815 1365 c 128,-1,16
 898 1298 898 1298 898 1165 c 2,17,-1
 898 874 l 2,18,19
 898 816 898 816 913.5 786 c 128,-1,20
 929 756 929 756 972 756 c 0,21,22
 997 756 997 756 1021 764 c 1,23,-1
 1021 670 l 1,24,25
 971 657 971 657 919 657 c 0,26,27
 765 657 765 657 759 817 c 1,28,-1
 755 817 l 1,29,30
 712 740 712 740 639 695.5 c 128,-1,31
 566 651 566 651 464 651 c 0,32,33
 343 651 343 651 274.5 708 c 128,-1,34
 206 765 206 765 206 870 c 0,0,1
353 890 m 0,35,36
 353 826 353 826 394 789 c 128,-1,37
 435 752 435 752 505 752 c 0,38,39
 574 752 574 752 631.5 786 c 128,-1,40
 689 820 689 820 722 874.5 c 128,-1,41
 755 929 755 929 755 983 c 2,42,-1
 755 1034 l 1,43,-1
 601 1030 l 2,44,45
 471 1027 471 1027 412 993.5 c 128,-1,46
 353 960 353 960 353 890 c 0,35,36
EndSplineSet
Validated: 1
EndChar

StartChar: ordmasculine
Encoding: 186 186 157
Width: 1229
GlyphClass: 2
Flags: W
LayerCount: 2
Fore
SplineSet
1002 1042 m 0,0,1
 1002 859 1002 859 899.5 755 c 128,-1,2
 797 651 797 651 611 651 c 0,3,4
 429 651 429 651 327.5 758 c 128,-1,5
 226 865 226 865 226 1042 c 0,6,7
 226 1224 226 1224 329 1328 c 128,-1,8
 432 1432 432 1432 615 1432 c 0,9,10
 804 1432 804 1432 903 1331.5 c 128,-1,11
 1002 1231 1002 1231 1002 1042 c 0,0,1
853 1042 m 0,12,13
 853 1193 853 1193 793 1260 c 128,-1,14
 733 1327 733 1327 619 1327 c 0,15,16
 378 1327 378 1327 378 1042 c 0,17,18
 378 902 378 902 437 829 c 128,-1,19
 496 756 496 756 609 756 c 0,20,21
 726 756 726 756 789.5 822.5 c 128,-1,22
 853 889 853 889 853 1042 c 0,12,13
EndSplineSet
Validated: 1
EndChar

StartChar: Ohm
Encoding: 8486 8486 158
Width: 1229
GlyphClass: 2
Flags: W
LayerCount: 2
Fore
SplineSet
615 1370 m 256,0,1
 860 1370 860 1370 1003.5 1208 c 128,-1,2
 1147 1046 1147 1046 1147 771 c 0,3,4
 1147 582 1147 582 1060 417.5 c 128,-1,5
 973 253 973 253 810 145 c 1,6,7
 927 156 927 156 971 156 c 2,8,-1
 1171 156 l 1,9,-1
 1171 0 l 1,10,-1
 688 0 l 1,11,-1
 688 224 l 1,12,13
 822 322 822 322 887 454 c 128,-1,14
 952 586 952 586 952 758 c 0,15,16
 952 982 952 982 866 1098 c 128,-1,17
 780 1214 780 1214 616 1214 c 0,18,19
 448 1214 448 1214 363 1096 c 128,-1,20
 278 978 278 978 278 758 c 0,21,22
 278 585 278 585 343.5 453.5 c 128,-1,23
 409 322 409 322 542 224 c 1,24,-1
 542 0 l 1,25,-1
 59 0 l 1,26,-1
 59 156 l 1,27,-1
 259 156 l 2,28,29
 303 156 303 156 420 145 c 1,30,31
 257 254 257 254 170 418.5 c 128,-1,32
 83 583 83 583 83 771 c 0,33,34
 83 1047 83 1047 226.5 1208.5 c 128,-1,35
 370 1370 370 1370 615 1370 c 256,0,1
EndSplineSet
Validated: 1
EndChar

StartChar: ae
Encoding: 230 230 159
Width: 1229
GlyphClass: 2
Flags: W
AnchorPoint: "bottom" 570 -84 basechar 0
AnchorPoint: "top" 634 1164 basechar 0
LayerCount: 2
Fore
SplineSet
679 503 m 1,0,-1
 679 486 l 1,1,2
 684 115 684 115 864 115 c 0,3,4
 939 115 939 115 983.5 162 c 128,-1,5
 1028 209 1028 209 1044 281 c 1,6,-1
 1182 236 l 1,7,8
 1114 -20 1114 -20 868 -20 c 0,9,10
 747 -20 747 -20 678.5 35 c 128,-1,11
 610 90 610 90 576 212 c 1,12,13
 524 90 524 90 449.5 35 c 128,-1,14
 375 -20 375 -20 278 -20 c 0,15,16
 149 -20 149 -20 84.5 62 c 128,-1,17
 20 144 20 144 20 302 c 0,18,19
 20 651 20 651 350 656 c 1,20,-1
 517 660 l 1,21,-1
 517 719 l 2,22,23
 517 854 517 854 485 909.5 c 128,-1,24
 453 965 453 965 381 965 c 0,25,26
 307 965 307 965 273.5 924.5 c 128,-1,27
 240 884 240 884 233 793 c 1,28,-1
 65 810 l 1,29,30
 84 961 84 961 161.5 1031.5 c 128,-1,31
 239 1102 239 1102 380 1102 c 0,32,33
 556 1102 556 1102 627 963 c 1,34,35
 712 1102 712 1102 873 1102 c 0,36,37
 1039 1102 1039 1102 1123.5 960.5 c 128,-1,38
 1208 819 1208 819 1208 527 c 2,39,-1
 1208 503 l 1,40,-1
 679 503 l 1,0,-1
189 299 m 0,41,42
 189 217 189 217 217.5 167 c 128,-1,43
 246 117 246 117 303 117 c 0,44,45
 367 117 367 117 415 161.5 c 128,-1,46
 463 206 463 206 490 281.5 c 128,-1,47
 517 357 517 357 517 445 c 2,48,-1
 517 534 l 1,49,-1
 395 530 l 2,50,51
 316 528 316 528 275.5 504 c 128,-1,52
 235 480 235 480 212 430 c 128,-1,53
 189 380 189 380 189 299 c 0,41,42
859 969 m 0,54,55
 777 969 777 969 730.5 882 c 128,-1,56
 684 795 684 795 681 641 c 1,57,-1
 1042 641 l 1,58,59
 1033 812 1033 812 989 890.5 c 128,-1,60
 945 969 945 969 859 969 c 0,54,55
EndSplineSet
EndChar

StartChar: oslash
Encoding: 248 248 160
Width: 1229
GlyphClass: 2
Flags: W
LayerCount: 2
Fore
SplineSet
1117 542 m 0,0,1
 1117 270 1117 270 987 125 c 128,-1,2
 857 -20 857 -20 609 -20 c 0,3,4
 405 -20 405 -20 278 87 c 1,5,-1
 201 0 l 1,6,-1
 125 68 l 1,7,-1
 209 163 l 1,8,9
 110 305 110 305 110 542 c 0,10,11
 110 814 110 814 238.5 958 c 128,-1,12
 367 1102 367 1102 615 1102 c 0,13,14
 828 1102 828 1102 950 1002 c 1,15,-1
 1022 1084 l 1,16,-1
 1100 1016 l 1,17,-1
 1020 926 l 1,18,19
 1117 789 1117 789 1117 542 c 0,0,1
928 542 m 0,20,21
 928 689 928 689 895 784 c 1,22,-1
 386 208 l 1,23,24
 463 113 463 113 607 113 c 0,25,26
 775 113 775 113 851.5 219.5 c 128,-1,27
 928 326 928 326 928 542 c 0,20,21
299 542 m 0,28,29
 299 396 299 396 333 304 c 1,30,-1
 842 880 l 1,31,32
 767 969 767 969 618 969 c 0,33,34
 454 969 454 969 376.5 861.5 c 128,-1,35
 299 754 299 754 299 542 c 0,28,29
EndSplineSet
Validated: 1
EndChar

StartChar: questiondown
Encoding: 191 191 161
Width: 1229
GlyphClass: 2
Flags: W
LayerCount: 2
Fore
SplineSet
153 79 m 0,0,1
 153 152 153 152 175 209 c 128,-1,2
 197 266 197 266 238.5 314.5 c 128,-1,3
 280 363 280 363 372 430 c 0,4,5
 482 509 482 509 517.5 546 c 128,-1,6
 553 583 553 583 573.5 626 c 128,-1,7
 594 669 594 669 595 724 c 1,8,-1
 770 724 l 1,9,10
 768 654 768 654 745.5 598.5 c 128,-1,11
 723 543 723 543 683.5 496.5 c 128,-1,12
 644 450 644 450 549 380 c 0,13,14
 442 301 442 301 408.5 264 c 128,-1,15
 375 227 375 227 355 184.5 c 128,-1,16
 335 142 335 142 335 87 c 0,17,18
 335 -22 335 -22 414.5 -80.5 c 128,-1,19
 494 -139 494 -139 630 -139 c 0,20,21
 765 -139 765 -139 849.5 -66 c 128,-1,22
 934 7 934 7 948 133 c 1,23,-1
 1132 121 l 1,24,25
 1106 -76 1106 -76 972.5 -182.5 c 128,-1,26
 839 -289 839 -289 632 -289 c 0,27,28
 409 -289 409 -289 281 -192.5 c 128,-1,29
 153 -96 153 -96 153 79 c 0,0,1
778 1081 m 1,30,-1
 778 880 l 1,31,-1
 583 880 l 1,32,-1
 583 1081 l 1,33,-1
 778 1081 l 1,30,-1
EndSplineSet
Validated: 1
EndChar

StartChar: exclamdown
Encoding: 161 161 162
Width: 1229
GlyphClass: 2
Flags: W
LayerCount: 2
Fore
SplineSet
539 685 m 1,0,-1
 687 685 l 1,1,-1
 711 -266 l 1,2,-1
 515 -266 l 1,3,-1
 539 685 l 1,0,-1
713 1082 m 1,4,-1
 713 881 l 1,5,-1
 519 881 l 1,6,-1
 519 1082 l 1,7,-1
 713 1082 l 1,4,-1
EndSplineSet
Validated: 1
EndChar

StartChar: logicalnot
Encoding: 172 172 163
Width: 1229
GlyphClass: 2
Flags: W
LayerCount: 2
Fore
SplineSet
966 180 m 1,0,-1
 966 608 l 1,1,-1
 116 608 l 1,2,-1
 116 754 l 1,3,-1
 1111 754 l 1,4,-1
 1111 180 l 1,5,-1
 966 180 l 1,0,-1
EndSplineSet
Validated: 1
EndChar

StartChar: radical
Encoding: 8730 8730 164
Width: 1229
GlyphClass: 2
Flags: W
LayerCount: 2
Fore
SplineSet
649 -14 m 1,0,-1
 543 -14 l 1,1,-1
 260 778 l 1,2,-1
 78 778 l 1,3,-1
 78 895 l 1,4,-1
 348 895 l 1,5,-1
 590 205 l 1,6,-1
 1020 1620 l 1,7,-1
 1149 1620 l 1,8,-1
 649 -14 l 1,0,-1
EndSplineSet
Validated: 1
EndChar

StartChar: florin
Encoding: 402 402 165
Width: 1229
GlyphClass: 2
Flags: W
LayerCount: 2
Fore
SplineSet
909 1369 m 0,0,1
 988 1369 988 1369 1069 1346 c 1,2,-1
 1029 1210 l 1,3,4
 975 1229 975 1229 899 1229 c 0,5,6
 815 1229 815 1229 777 1198.5 c 128,-1,7
 739 1168 739 1168 719 1073 c 1,8,-1
 692 936 l 1,9,-1
 994 936 l 1,10,-1
 969 805 l 1,11,-1
 666 805 l 1,12,-1
 423 -425 l 1,13,-1
 243 -425 l 1,14,-1
 486 805 l 1,15,-1
 234 805 l 1,16,-1
 261 936 l 1,17,-1
 512 936 l 1,18,-1
 541 1088 l 1,19,20
 577 1242 577 1242 666.5 1305.5 c 128,-1,21
 756 1369 756 1369 909 1369 c 0,0,1
EndSplineSet
Validated: 1
EndChar

StartChar: approxequal
Encoding: 8776 8776 166
Width: 1229
GlyphClass: 2
Flags: W
LayerCount: 2
Fore
SplineSet
860 758 m 0,0,1
 791 758 791 758 718.5 779.5 c 128,-1,2
 646 801 646 801 573 827 c 1,3,4
 440 872 440 872 356 872 c 0,5,6
 293 872 293 872 236 853.5 c 128,-1,7
 179 835 179 835 108 784 c 1,8,-1
 108 928 l 1,9,10
 222 1012 222 1012 371 1012 c 0,11,12
 448 1012 448 1012 521.5 990 c 128,-1,13
 595 968 595 968 665 943 c 1,14,-1
 680 938 l 2,15,16
 769 908 769 908 808 900.5 c 128,-1,17
 847 893 847 893 876 893 c 0,18,19
 1006 893 1006 893 1120 987 c 1,20,-1
 1120 838 l 1,21,22
 1060 796 1060 796 1002.5 777 c 128,-1,23
 945 758 945 758 860 758 c 0,0,1
876 473 m 0,24,25
 1006 473 1006 473 1120 565 c 1,26,-1
 1120 418 l 1,27,28
 1060 373 1060 373 1001.5 354.5 c 128,-1,29
 943 336 943 336 860 336 c 0,30,31
 791 336 791 336 718.5 358 c 128,-1,32
 646 380 646 380 573 406 c 0,33,34
 440 453 440 453 356 453 c 0,35,36
 289 453 289 453 231 432.5 c 128,-1,37
 173 412 173 412 108 365 c 1,38,-1
 108 506 l 1,39,40
 219 590 219 590 371 590 c 0,41,42
 473 590 473 590 606 544 c 0,43,44
 753 493 753 493 796.5 483 c 128,-1,45
 840 473 840 473 876 473 c 0,24,25
EndSplineSet
Validated: 1
EndChar

StartChar: Delta
Encoding: 8710 8710 167
Width: 1229
GlyphClass: 2
Flags: W
LayerCount: 2
Fore
SplineSet
12 0 m 1,0,-1
 12 145 l 1,1,-1
 489 1409 l 1,2,-1
 733 1409 l 1,3,-1
 1216 147 l 1,4,-1
 1216 0 l 1,5,-1
 12 0 l 1,0,-1
612 1274 m 1,6,-1
 514 997 l 1,7,-1
 204 156 l 1,8,-1
 1024 156 l 1,9,-1
 710 997 l 1,10,-1
 612 1274 l 1,6,-1
EndSplineSet
Validated: 1
EndChar

StartChar: guillemotleft
Encoding: 171 171 168
Width: 1229
GlyphClass: 2
Flags: W
LayerCount: 2
Fore
SplineSet
940 141 m 1,0,-1
 602 506 l 1,1,-1
 602 569 l 1,2,-1
 940 940 l 1,3,-1
 1118 940 l 1,4,-1
 1118 909 l 1,5,-1
 780 537 l 1,6,-1
 1120 170 l 1,7,-1
 1120 141 l 1,8,-1
 940 141 l 1,0,-1
463 141 m 1,9,-1
 127 506 l 1,10,-1
 127 569 l 1,11,-1
 463 940 l 1,12,-1
 640 940 l 1,13,-1
 640 909 l 1,14,-1
 305 537 l 1,15,-1
 642 170 l 1,16,-1
 642 141 l 1,17,-1
 463 141 l 1,9,-1
EndSplineSet
Validated: 1
EndChar

StartChar: guillemotright
Encoding: 187 187 169
Width: 1229
GlyphClass: 2
Flags: W
LayerCount: 2
Fore
SplineSet
762 141 m 1,0,-1
 584 141 l 1,1,-1
 584 170 l 1,2,-1
 922 537 l 1,3,-1
 586 909 l 1,4,-1
 586 940 l 1,5,-1
 762 940 l 1,6,-1
 1100 569 l 1,7,-1
 1100 506 l 1,8,-1
 762 141 l 1,0,-1
287 141 m 1,9,-1
 107 141 l 1,10,-1
 107 170 l 1,11,-1
 445 537 l 1,12,-1
 109 909 l 1,13,-1
 109 940 l 1,14,-1
 287 940 l 1,15,-1
 622 569 l 1,16,-1
 622 506 l 1,17,-1
 287 141 l 1,9,-1
EndSplineSet
Validated: 1
EndChar

StartChar: ellipsis
Encoding: 8230 8230 170
Width: 1229
GlyphClass: 2
Flags: W
LayerCount: 2
Fore
SplineSet
938 0 m 1,0,-1
 938 219 l 1,1,-1
 1112 219 l 1,2,-1
 1112 0 l 1,3,-1
 938 0 l 1,0,-1
529 0 m 1,4,-1
 529 219 l 1,5,-1
 701 219 l 1,6,-1
 701 0 l 1,7,-1
 529 0 l 1,4,-1
117 0 m 1,8,-1
 117 219 l 1,9,-1
 292 219 l 1,10,-1
 292 0 l 1,11,-1
 117 0 l 1,8,-1
EndSplineSet
Validated: 1
EndChar

StartChar: OE
Encoding: 338 338 174
Width: 1229
GlyphClass: 2
Flags: W
LayerCount: 2
Fore
SplineSet
609 0 m 1,0,1
 552 -5 552 -5 511 -5 c 0,2,3
 256 -5 256 -5 138 164 c 128,-1,4
 20 333 20 333 20 681 c 0,5,6
 20 1031 20 1031 138.5 1193 c 128,-1,7
 257 1355 257 1355 513 1355 c 0,8,9
 571 1355 571 1355 622 1349 c 1,10,-1
 1180 1349 l 1,11,-1
 1180 1197 l 1,12,-1
 782 1197 l 1,13,-1
 782 757 l 1,14,-1
 1149 757 l 1,15,-1
 1149 607 l 1,16,-1
 782 607 l 1,17,-1
 782 152 l 1,18,-1
 1221 152 l 1,19,-1
 1221 0 l 1,20,-1
 609 0 l 1,0,1
512 140 m 0,21,22
 584 140 584 140 612 146 c 1,23,-1
 612 1203 l 1,24,25
 574 1209 574 1209 513 1209 c 0,26,27
 350 1209 350 1209 275.5 1081 c 128,-1,28
 201 953 201 953 201 681 c 0,29,30
 201 406 201 406 278 273 c 128,-1,31
 355 140 355 140 512 140 c 0,21,22
EndSplineSet
Validated: 1
EndChar

StartChar: oe
Encoding: 339 339 175
Width: 1229
GlyphClass: 2
Flags: W
LayerCount: 2
Fore
SplineSet
712 503 m 1,0,1
 712 314 712 314 755.5 214.5 c 128,-1,2
 799 115 799 115 880 115 c 0,3,4
 945 115 945 115 984 162 c 128,-1,5
 1023 209 1023 209 1037 281 c 1,6,-1
 1175 236 l 1,7,8
 1112 -20 1112 -20 882 -20 c 0,9,10
 700 -20 700 -20 619 163 c 1,11,12
 536 -20 536 -20 353 -20 c 0,13,14
 196 -20 196 -20 112 124.5 c 128,-1,15
 28 269 28 269 28 542 c 0,16,17
 28 821 28 821 113 961.5 c 128,-1,18
 198 1102 198 1102 360 1102 c 0,19,20
 547 1102 547 1102 626 925 c 1,21,22
 711 1102 711 1102 885 1102 c 0,23,24
 1204 1102 1204 1102 1204 527 c 2,25,-1
 1204 503 l 1,26,-1
 712 503 l 1,0,1
543 542 m 0,27,28
 543 761 543 761 503.5 865 c 128,-1,29
 464 969 464 969 373 969 c 256,30,31
 282 969 282 969 239.5 865 c 128,-1,32
 197 761 197 761 197 542 c 0,33,34
 197 113 197 113 367 113 c 0,35,36
 461 113 461 113 502 217.5 c 128,-1,37
 543 322 543 322 543 542 c 0,27,28
875 969 m 0,38,39
 803 969 803 969 760 882.5 c 128,-1,40
 717 796 717 796 714 641 c 1,41,-1
 1038 641 l 1,42,43
 1030 812 1030 812 990 890.5 c 128,-1,44
 950 969 950 969 875 969 c 0,38,39
EndSplineSet
Validated: 1
EndChar

StartChar: endash
Encoding: 8211 8211 176
Width: 1229
GlyphClass: 2
Flags: W
LayerCount: 2
Fore
SplineSet
170 451 m 1,0,-1
 170 588 l 1,1,-1
 1058 588 l 1,2,-1
 1058 451 l 1,3,-1
 170 451 l 1,0,-1
EndSplineSet
Validated: 1
EndChar

StartChar: emdash
Encoding: 8212 8212 177
Width: 1229
GlyphClass: 2
Flags: W
LayerCount: 2
Fore
SplineSet
-10 451 m 1,0,-1
 -10 588 l 1,1,-1
 1238 588 l 1,2,-1
 1238 451 l 1,3,-1
 -10 451 l 1,0,-1
EndSplineSet
Validated: 1
EndChar

StartChar: quotedblleft
Encoding: 8220 8220 178
Width: 1229
GlyphClass: 2
Flags: W
LayerCount: 2
Fore
SplineSet
611 1484 m 1,0,-1
 442 862 l 1,1,-1
 177 862 l 1,2,-1
 488 1484 l 1,3,-1
 611 1484 l 1,0,-1
1050 1484 m 1,4,-1
 881 862 l 1,5,-1
 616 862 l 1,6,-1
 927 1484 l 1,7,-1
 1050 1484 l 1,4,-1
EndSplineSet
Validated: 1
EndChar

StartChar: quotedblright
Encoding: 8221 8221 179
Width: 1229
GlyphClass: 2
Flags: W
LayerCount: 2
Fore
SplineSet
617 862 m 1,0,-1
 786 1484 l 1,1,-1
 1051 1484 l 1,2,-1
 740 862 l 1,3,-1
 617 862 l 1,0,-1
178 862 m 1,4,-1
 347 1484 l 1,5,-1
 612 1484 l 1,6,-1
 301 862 l 1,7,-1
 178 862 l 1,4,-1
EndSplineSet
Validated: 1
EndChar

StartChar: quoteleft
Encoding: 8216 8216 180
Width: 1229
GlyphClass: 2
Flags: W
LayerCount: 2
Fore
SplineSet
831 1484 m 1,0,-1
 662 862 l 1,1,-1
 397 862 l 1,2,-1
 708 1484 l 1,3,-1
 831 1484 l 1,0,-1
EndSplineSet
Validated: 1
EndChar

StartChar: quoteright
Encoding: 8217 8217 181
Width: 1229
GlyphClass: 2
Flags: W
LayerCount: 2
Fore
SplineSet
399 862 m 1,0,-1
 568 1484 l 1,1,-1
 833 1484 l 1,2,-1
 522 862 l 1,3,-1
 399 862 l 1,0,-1
EndSplineSet
Validated: 1
EndChar

StartChar: divide
Encoding: 247 247 182
Width: 1229
GlyphClass: 2
Flags: W
LayerCount: 2
Fore
SplineSet
529 958 m 1,0,-1
 529 1141 l 1,1,-1
 697 1141 l 1,2,-1
 697 958 l 1,3,-1
 529 958 l 1,0,-1
116 608 m 1,4,-1
 116 754 l 1,5,-1
 1111 754 l 1,6,-1
 1111 608 l 1,7,-1
 116 608 l 1,4,-1
529 223 m 1,8,-1
 529 406 l 1,9,-1
 697 406 l 1,10,-1
 697 223 l 1,11,-1
 529 223 l 1,8,-1
EndSplineSet
Validated: 1
EndChar

StartChar: lozenge
Encoding: 9674 9674 183
Width: 1229
GlyphClass: 2
Flags: W
LayerCount: 2
Fore
SplineSet
654 0 m 1,0,-1
 572 0 l 1,1,-1
 115 719 l 1,2,-1
 572 1440 l 1,3,-1
 654 1440 l 1,4,-1
 1113 721 l 1,5,-1
 654 0 l 1,0,-1
615 1286 m 1,6,-1
 261 721 l 1,7,-1
 615 147 l 1,8,-1
 967 721 l 1,9,-1
 615 1286 l 1,6,-1
EndSplineSet
Validated: 1
EndChar

StartChar: fraction
Encoding: 8260 8260 186
Width: 1229
GlyphClass: 2
Flags: W
LayerCount: 2
Fore
SplineSet
322 0 m 1,0,-1
 204 0 l 1,1,-1
 907 1349 l 1,2,-1
 1022 1349 l 1,3,-1
 322 0 l 1,0,-1
EndSplineSet
Validated: 1
EndChar

StartChar: Euro
Encoding: 8364 8364 187
Width: 1229
GlyphClass: 2
Flags: W
LayerCount: 2
Fore
SplineSet
873 463 m 1,0,-1
 414 463 l 1,1,2
 431 291 431 291 508.5 213 c 128,-1,3
 586 135 586 135 737 135 c 0,4,5
 812 135 812 135 881 156.5 c 128,-1,6
 950 178 950 178 1047 239 c 1,7,-1
 1123 104 l 1,8,9
 1023 37 1023 37 928 8.5 c 128,-1,10
 833 -20 833 -20 727 -20 c 0,11,12
 506 -20 506 -20 378.5 100 c 128,-1,13
 251 220 251 220 222 460 c 1,14,-1
 91 460 l 1,15,-1
 91 604 l 1,16,-1
 210 604 l 1,17,-1
 206 679 l 1,18,19
 206 722 206 722 210 758 c 1,20,-1
 91 758 l 1,21,-1
 91 900 l 1,22,-1
 220 900 l 1,23,24
 278 1370 278 1370 729 1370 c 0,25,26
 835 1370 835 1370 926 1343.5 c 128,-1,27
 1017 1317 1017 1317 1108 1254 c 1,28,-1
 1026 1114 l 1,29,30
 888 1214 888 1214 744 1214 c 0,31,32
 580 1214 580 1214 506 1141.5 c 128,-1,33
 432 1069 432 1069 412 898 c 1,34,-1
 873 898 l 1,35,-1
 873 757 l 1,36,-1
 398 757 l 1,37,-1
 396 679 l 1,38,-1
 399 605 l 1,39,-1
 873 605 l 1,40,-1
 873 463 l 1,0,-1
EndSplineSet
Validated: 1
EndChar

StartChar: guilsinglleft
Encoding: 8249 8249 188
Width: 1229
GlyphClass: 2
Flags: W
LayerCount: 2
Fore
SplineSet
682 141 m 1,0,-1
 346 506 l 1,1,-1
 346 569 l 1,2,-1
 682 940 l 1,3,-1
 859 940 l 1,4,-1
 859 909 l 1,5,-1
 524 537 l 1,6,-1
 861 170 l 1,7,-1
 861 141 l 1,8,-1
 682 141 l 1,0,-1
EndSplineSet
Validated: 1
EndChar

StartChar: guilsinglright
Encoding: 8250 8250 189
Width: 1229
GlyphClass: 2
Flags: W
LayerCount: 2
Fore
SplineSet
544 141 m 1,0,-1
 366 141 l 1,1,-1
 366 170 l 1,2,-1
 704 537 l 1,3,-1
 368 909 l 1,4,-1
 368 940 l 1,5,-1
 544 940 l 1,6,-1
 881 569 l 1,7,-1
 881 506 l 1,8,-1
 544 141 l 1,0,-1
EndSplineSet
Validated: 1
EndChar

StartChar: fi
Encoding: 64257 64257 190
Width: 1229
GlyphClass: 2
Flags: W
LayerCount: 2
Fore
SplineSet
416 951 m 1,0,-1
 416 0 l 1,1,-1
 236 0 l 1,2,-1
 236 951 l 1,3,-1
 84 951 l 1,4,-1
 84 1082 l 1,5,-1
 236 1082 l 1,6,-1
 236 1204 l 2,7,8
 236 1352 236 1352 301 1417 c 128,-1,9
 366 1482 366 1482 500 1482 c 0,10,11
 575 1482 575 1482 627 1470 c 1,12,-1
 627 1333 l 1,13,14
 582 1341 582 1341 547 1341 c 0,15,16
 478 1341 478 1341 447 1306 c 128,-1,17
 416 1271 416 1271 416 1179 c 2,18,-1
 416 1082 l 1,19,-1
 627 1082 l 1,20,-1
 627 951 l 1,21,-1
 416 951 l 1,0,-1
881 1312 m 1,22,-1
 881 1484 l 1,23,-1
 1061 1484 l 1,24,-1
 1061 1312 l 1,25,-1
 881 1312 l 1,22,-1
881 0 m 1,26,-1
 881 1082 l 1,27,-1
 1061 1082 l 1,28,-1
 1061 0 l 1,29,-1
 881 0 l 1,26,-1
EndSplineSet
Validated: 1
EndChar

StartChar: fl
Encoding: 64258 64258 191
Width: 1229
GlyphClass: 2
Flags: W
LayerCount: 2
Fore
SplineSet
416 951 m 1,0,-1
 416 0 l 1,1,-1
 236 0 l 1,2,-1
 236 951 l 1,3,-1
 84 951 l 1,4,-1
 84 1082 l 1,5,-1
 236 1082 l 1,6,-1
 236 1204 l 2,7,8
 236 1352 236 1352 301 1417 c 128,-1,9
 366 1482 366 1482 500 1482 c 0,10,11
 575 1482 575 1482 627 1470 c 1,12,-1
 627 1333 l 1,13,14
 582 1341 582 1341 547 1341 c 0,15,16
 478 1341 478 1341 447 1306 c 128,-1,17
 416 1271 416 1271 416 1179 c 2,18,-1
 416 1082 l 1,19,-1
 627 1082 l 1,20,-1
 627 951 l 1,21,-1
 416 951 l 1,0,-1
881 0 m 1,22,-1
 881 1484 l 1,23,-1
 1061 1484 l 1,24,-1
 1061 0 l 1,25,-1
 881 0 l 1,22,-1
EndSplineSet
Validated: 1
EndChar

StartChar: daggerdbl
Encoding: 8225 8225 192
Width: 1229
GlyphClass: 2
Flags: W
LayerCount: 2
Fore
SplineSet
1046 298 m 1,0,-1
 1046 134 l 1,1,-1
 685 153 l 1,2,-1
 711 -213 l 1,3,-1
 516 -213 l 1,4,-1
 542 153 l 1,5,-1
 182 134 l 1,6,-1
 182 298 l 1,7,-1
 542 281 l 1,8,-1
 576 635 l 1,9,-1
 542 989 l 1,10,-1
 182 972 l 1,11,-1
 182 1136 l 1,12,-1
 542 1117 l 1,13,-1
 516 1483 l 1,14,-1
 711 1483 l 1,15,-1
 685 1117 l 1,16,-1
 1046 1136 l 1,17,-1
 1046 972 l 1,18,-1
 685 989 l 1,19,-1
 651 635 l 1,20,-1
 685 281 l 1,21,-1
 1046 298 l 1,0,-1
EndSplineSet
Validated: 1
EndChar

StartChar: bulletoperator
Encoding: 8729 8729 193
Width: 1229
GlyphClass: 2
Flags: W
LayerCount: 2
Fore
SplineSet
496 420 m 1,0,-1
 496 719 l 1,1,-1
 731 719 l 1,2,-1
 731 420 l 1,3,-1
 496 420 l 1,0,-1
EndSplineSet
Validated: 1
EndChar

StartChar: quotesinglbase
Encoding: 8218 8218 194
Width: 1229
GlyphClass: 2
Flags: W
LayerCount: 2
Fore
SplineSet
349 -363 m 1,0,-1
 518 259 l 1,1,-1
 783 259 l 1,2,-1
 472 -363 l 1,3,-1
 349 -363 l 1,0,-1
EndSplineSet
Validated: 1
EndChar

StartChar: quotedblbase
Encoding: 8222 8222 195
Width: 1229
GlyphClass: 2
Flags: W
LayerCount: 2
Fore
SplineSet
617 -364 m 1,0,-1
 786 258 l 1,1,-1
 1051 258 l 1,2,-1
 740 -364 l 1,3,-1
 617 -364 l 1,0,-1
178 -364 m 1,4,-1
 347 258 l 1,5,-1
 612 258 l 1,6,-1
 301 -364 l 1,7,-1
 178 -364 l 1,4,-1
EndSplineSet
Validated: 1
EndChar

StartChar: perthousand
Encoding: 8240 8240 196
Width: 1229
GlyphClass: 2
Flags: W
LayerCount: 2
Fore
SplineSet
147 395 m 1,0,-1
 2 395 l 1,1,-1
 585 1034 l 1,2,-1
 732 1034 l 1,3,-1
 147 395 l 1,0,-1
236 1411 m 0,4,5
 353 1411 353 1411 408.5 1336.5 c 128,-1,6
 464 1262 464 1262 464 1115 c 0,7,8
 464 966 464 966 404.5 890 c 128,-1,9
 345 814 345 814 232 814 c 0,10,11
 116 814 116 814 58 891 c 128,-1,12
 0 968 0 968 0 1115 c 0,13,14
 0 1263 0 1263 57 1337 c 128,-1,15
 114 1411 114 1411 236 1411 c 0,4,5
334 1115 m 0,16,17
 334 1213 334 1213 311.5 1258 c 128,-1,18
 289 1303 289 1303 235 1303 c 0,19,20
 178 1303 178 1303 154 1259.5 c 128,-1,21
 130 1216 130 1216 130 1115 c 256,22,23
 130 1014 130 1014 155 970.5 c 128,-1,24
 180 927 180 927 234 927 c 0,25,26
 334 927 334 927 334 1115 c 0,16,17
495 597 m 0,27,28
 724 597 724 597 724 301 c 0,29,30
 724 152 724 152 664.5 76 c 128,-1,31
 605 0 605 0 492 0 c 0,32,33
 377 0 377 0 318 76 c 128,-1,34
 259 152 259 152 259 301 c 0,35,36
 259 449 259 449 316 523 c 128,-1,37
 373 597 373 597 495 597 c 0,27,28
594 301 m 0,38,39
 594 402 594 402 570 445.5 c 128,-1,40
 546 489 546 489 494 489 c 0,41,42
 438 489 438 489 413.5 446 c 128,-1,43
 389 403 389 403 389 301 c 0,44,45
 389 206 389 206 413 159.5 c 128,-1,46
 437 113 437 113 493 113 c 0,47,48
 544 113 544 113 569 157.5 c 128,-1,49
 594 202 594 202 594 301 c 0,38,39
1000 597 m 0,50,51
 1117 597 1117 597 1172.5 522.5 c 128,-1,52
 1228 448 1228 448 1228 301 c 0,53,54
 1228 152 1228 152 1168.5 76 c 128,-1,55
 1109 0 1109 0 996 0 c 0,56,57
 882 0 882 0 823 76.5 c 128,-1,58
 764 153 764 153 764 301 c 256,59,60
 764 449 764 449 821 523 c 128,-1,61
 878 597 878 597 1000 597 c 0,50,51
1099 301 m 0,62,63
 1099 402 1099 402 1075 445.5 c 128,-1,64
 1051 489 1051 489 999 489 c 0,65,66
 942 489 942 489 918 445.5 c 128,-1,67
 894 402 894 402 894 301 c 256,68,69
 894 200 894 200 919 156.5 c 128,-1,70
 944 113 944 113 998 113 c 0,71,72
 1099 113 1099 113 1099 301 c 0,62,63
EndSplineSet
Validated: 1
EndChar

StartChar: dotlessi
Encoding: 305 305 212
Width: 1229
GlyphClass: 2
Flags: W
LayerCount: 2
Fore
SplineSet
745 142 m 1,0,-1
 1125 142 l 1,1,-1
 1125 0 l 1,2,-1
 143 0 l 1,3,-1
 143 142 l 1,4,-1
 565 142 l 1,5,-1
 565 940 l 1,6,-1
 246 940 l 1,7,-1
 246 1082 l 1,8,-1
 745 1082 l 1,9,-1
 745 142 l 1,0,-1
EndSplineSet
Validated: 1
EndChar

StartChar: circumflex
Encoding: 710 710 213
Width: 1229
GlyphClass: 2
Flags: W
LayerCount: 2
Fore
SplineSet
945 1221 m 1,0,-1
 945 1201 l 1,1,-1
 840 1201 l 1,2,-1
 621 1339 l 1,3,-1
 619 1339 l 1,4,-1
 387 1201 l 1,5,-1
 283 1201 l 1,6,-1
 283 1221 l 1,7,-1
 537 1460 l 1,8,-1
 701 1460 l 1,9,-1
 945 1221 l 1,0,-1
EndSplineSet
Validated: 1
EndChar

StartChar: tilde
Encoding: 732 732 214
Width: 1229
GlyphClass: 2
Flags: W
LayerCount: 2
Fore
SplineSet
770 1201 m 0,0,1
 728 1201 728 1201 686 1219.5 c 128,-1,2
 644 1238 644 1238 604 1260.5 c 128,-1,3
 564 1283 564 1283 525.5 1301.5 c 128,-1,4
 487 1320 487 1320 452 1320 c 0,5,6
 427 1320 427 1320 412 1310.5 c 128,-1,7
 397 1301 397 1301 387 1283 c 128,-1,8
 377 1265 377 1265 366 1201 c 1,9,-1
 255 1201 l 1,10,11
 266 1297 266 1297 289.5 1346 c 128,-1,12
 313 1395 313 1395 354 1422 c 128,-1,13
 395 1449 395 1449 458 1449 c 0,14,15
 502 1449 502 1449 544 1430.5 c 128,-1,16
 586 1412 586 1412 626 1389.5 c 128,-1,17
 666 1367 666 1367 703 1348.5 c 128,-1,18
 740 1330 740 1330 773 1330 c 0,19,20
 810 1330 810 1330 830 1353.5 c 128,-1,21
 850 1377 850 1377 860 1449 c 1,22,-1
 972 1449 l 1,23,24
 956 1311 956 1311 906.5 1256 c 128,-1,25
 857 1201 857 1201 770 1201 c 0,0,1
EndSplineSet
Validated: 1
EndChar

StartChar: firsttonechinese
Encoding: 713 713 215
Width: 1229
GlyphClass: 2
Flags: W
LayerCount: 2
Fore
SplineSet
888 1236 m 1,0,-1
 337 1236 l 1,1,-1
 337 1363 l 1,2,-1
 888 1363 l 1,3,-1
 888 1236 l 1,0,-1
EndSplineSet
Validated: 1
EndChar

StartChar: breve
Encoding: 728 728 216
Width: 1229
GlyphClass: 2
Flags: W
LayerCount: 2
Fore
SplineSet
613 1201 m 0,0,1
 489 1201 489 1201 405.5 1272 c 128,-1,2
 322 1343 322 1343 301 1460 c 1,3,-1
 428 1460 l 1,4,5
 445 1397 445 1397 488 1362 c 128,-1,6
 531 1327 531 1327 613 1327 c 0,7,8
 698 1327 698 1327 740.5 1362 c 128,-1,9
 783 1397 783 1397 800 1460 c 1,10,-1
 927 1460 l 1,11,12
 903 1341 903 1341 820.5 1271 c 128,-1,13
 738 1201 738 1201 613 1201 c 0,0,1
EndSplineSet
Validated: 1
EndChar

StartChar: dotaccent
Encoding: 729 729 217
Width: 1229
GlyphClass: 2
Flags: W
LayerCount: 2
Fore
SplineSet
515 1292 m 1,0,-1
 515 1484 l 1,1,-1
 715 1484 l 1,2,-1
 715 1292 l 1,3,-1
 515 1292 l 1,0,-1
EndSplineSet
Validated: 1
EndChar

StartChar: ring
Encoding: 730 730 218
Width: 1229
GlyphClass: 2
Flags: W
LayerCount: 2
Fore
SplineSet
856 1348 m 0,0,1
 856 1261 856 1261 790.5 1204.5 c 128,-1,2
 725 1148 725 1148 614 1148 c 0,3,4
 502 1148 502 1148 437 1204.5 c 128,-1,5
 372 1261 372 1261 372 1348 c 0,6,7
 372 1437 372 1437 438.5 1492 c 128,-1,8
 505 1547 505 1547 614 1547 c 0,9,10
 725 1547 725 1547 790.5 1491.5 c 128,-1,11
 856 1436 856 1436 856 1348 c 0,0,1
735 1348 m 0,12,13
 735 1385 735 1385 702.5 1408 c 128,-1,14
 670 1431 670 1431 614 1431 c 0,15,16
 559 1431 559 1431 525.5 1408 c 128,-1,17
 492 1385 492 1385 492 1348 c 0,18,19
 492 1310 492 1310 525.5 1287 c 128,-1,20
 559 1264 559 1264 614 1264 c 0,21,22
 670 1264 670 1264 702.5 1287 c 128,-1,23
 735 1310 735 1310 735 1348 c 0,12,13
EndSplineSet
Validated: 1
EndChar

StartChar: cedilla
Encoding: 184 184 219
Width: 1229
GlyphClass: 2
Flags: W
LayerCount: 2
Fore
SplineSet
483 -258 m 0,0,1
 483 -444 483 -444 209 -444 c 0,2,3
 152 -444 152 -444 119 -440 c 1,4,-1
 119 -342 l 1,5,6
 169 -348 169 -348 205 -348 c 0,7,8
 352 -348 352 -348 352 -262 c 0,9,10
 352 -222 352 -222 321.5 -201 c 128,-1,11
 291 -180 291 -180 219 -180 c 0,12,13
 176 -180 176 -180 162 -182 c 1,14,-1
 227 0 l 1,15,-1
 334 0 l 1,16,-1
 295 -100 l 1,17,18
 389 -103 389 -103 436 -144.5 c 128,-1,19
 483 -186 483 -186 483 -258 c 0,0,1
EndSplineSet
Validated: 1
EndChar

StartChar: hungarumlaut
Encoding: 733 733 220
Width: 1229
GlyphClass: 2
Flags: W
LayerCount: 2
Fore
SplineSet
393 1201 m 1,0,-1
 393 1221 l 1,1,-1
 600 1460 l 1,2,-1
 787 1460 l 1,3,-1
 787 1431 l 1,4,-1
 487 1201 l 1,5,-1
 393 1201 l 1,0,-1
29 1201 m 1,6,-1
 29 1221 l 1,7,-1
 236 1460 l 1,8,-1
 423 1460 l 1,9,-1
 423 1431 l 1,10,-1
 123 1201 l 1,11,-1
 29 1201 l 1,6,-1
EndSplineSet
Validated: 1
EndChar

StartChar: ogonek
Encoding: 731 731 221
Width: 1229
GlyphClass: 2
Flags: W
LayerCount: 2
Fore
SplineSet
791 -400 m 1,0,1
 728 -427 728 -427 652 -427 c 0,2,3
 547 -427 547 -427 494 -376 c 128,-1,4
 441 -325 441 -325 441 -240 c 0,5,6
 441 -172 441 -172 482.5 -106.5 c 128,-1,7
 524 -41 524 -41 596 0 c 1,8,-1
 729 0 l 1,9,10
 665 -36 665 -36 623.5 -98.5 c 128,-1,11
 582 -161 582 -161 582 -227 c 0,12,13
 582 -269 582 -269 606.5 -293 c 128,-1,14
 631 -317 631 -317 676 -317 c 0,15,16
 730 -317 730 -317 791 -293 c 1,17,-1
 791 -400 l 1,0,1
EndSplineSet
Validated: 1
EndChar

StartChar: caron
Encoding: 711 711 222
Width: 1229
GlyphClass: 2
Flags: W
LayerCount: 2
Fore
SplineSet
701 1201 m 1,0,-1
 537 1201 l 1,1,-1
 283 1440 l 1,2,-1
 283 1460 l 1,3,-1
 387 1460 l 1,4,-1
 619 1322 l 1,5,-1
 621 1322 l 1,6,-1
 840 1460 l 1,7,-1
 945 1460 l 1,8,-1
 945 1440 l 1,9,-1
 701 1201 l 1,0,-1
EndSplineSet
Validated: 1
EndChar

StartChar: Lslash
Encoding: 321 321 223
Width: 1229
GlyphClass: 2
Flags: W
LayerCount: 2
Fore
SplineSet
237 0 m 1,0,-1
 237 458 l 1,1,-1
 120 397 l 1,2,-1
 54 518 l 1,3,-1
 237 614 l 1,4,-1
 237 1349 l 1,5,-1
 428 1349 l 1,6,-1
 428 713 l 1,7,-1
 720 864 l 1,8,-1
 781 743 l 1,9,-1
 428 558 l 1,10,-1
 428 156 l 1,11,-1
 1100 156 l 1,12,-1
 1100 0 l 1,13,-1
 237 0 l 1,0,-1
EndSplineSet
Validated: 1
EndChar

StartChar: lslash
Encoding: 322 322 224
Width: 1229
GlyphClass: 2
Flags: W
LayerCount: 2
Fore
SplineSet
736 884 m 1,0,-1
 961 1013 l 1,1,-1
 1023 900 l 1,2,-1
 736 736 l 1,3,-1
 736 142 l 1,4,-1
 1116 142 l 1,5,-1
 1116 0 l 1,6,-1
 134 0 l 1,7,-1
 134 142 l 1,8,-1
 556 142 l 1,9,-1
 556 635 l 1,10,-1
 338 512 l 1,11,-1
 274 624 l 1,12,-1
 556 783 l 1,13,-1
 556 1342 l 1,14,-1
 217 1342 l 1,15,-1
 217 1484 l 1,16,-1
 736 1484 l 1,17,-1
 736 884 l 1,0,-1
EndSplineSet
Validated: 1
EndChar

StartChar: brokenbar
Encoding: 166 166 229
Width: 1229
GlyphClass: 2
Flags: W
LayerCount: 2
Fore
SplineSet
531 676 m 1,0,-1
 531 1454 l 1,1,-1
 697 1454 l 1,2,-1
 697 676 l 1,3,-1
 531 676 l 1,0,-1
531 -455 m 1,4,-1
 531 324 l 1,5,-1
 697 324 l 1,6,-1
 697 -455 l 1,7,-1
 531 -455 l 1,4,-1
EndSplineSet
Validated: 1
EndChar

StartChar: Eth
Encoding: 208 208 230
Width: 1229
GlyphClass: 2
Flags: W
LayerCount: 2
Fore
SplineSet
1125 688 m 0,0,1
 1125 357 1125 357 971.5 178.5 c 128,-1,2
 818 0 818 0 532 0 c 2,3,-1
 162 0 l 1,4,-1
 162 597 l 1,5,-1
 27 597 l 1,6,-1
 27 746 l 1,7,-1
 162 746 l 1,8,-1
 162 1349 l 1,9,-1
 473 1349 l 2,10,11
 802 1349 802 1349 963.5 1184.5 c 128,-1,12
 1125 1020 1125 1020 1125 688 c 0,0,1
642 597 m 1,13,-1
 353 597 l 1,14,-1
 353 156 l 1,15,-1
 515 156 l 2,16,17
 727 156 727 156 830 289 c 128,-1,18
 933 422 933 422 933 688 c 0,19,20
 933 952 933 952 823 1072.5 c 128,-1,21
 713 1193 713 1193 474 1193 c 2,22,-1
 353 1193 l 1,23,-1
 353 746 l 1,24,-1
 642 746 l 1,25,-1
 642 597 l 1,13,-1
EndSplineSet
Validated: 1
EndChar

StartChar: eth
Encoding: 240 240 231
Width: 1229
GlyphClass: 2
Flags: W
LayerCount: 2
Fore
SplineSet
612 979 m 0,0,1
 749 979 749 979 843 920 c 1,2,3
 758 1115 758 1115 623 1237 c 1,4,-1
 363 1122 l 1,5,-1
 308 1232 l 1,6,-1
 526 1326 l 1,7,8
 417 1413 417 1413 284 1484 c 1,9,-1
 493 1484 l 1,10,11
 573 1448 573 1448 663 1382 c 1,12,-1
 927 1496 l 1,13,-1
 982 1388 l 1,14,-1
 771 1296 l 1,15,16
 1102 995 1102 995 1102 516 c 2,17,-1
 1102 510 l 2,18,19
 1102 249 1102 249 976.5 114.5 c 128,-1,20
 851 -20 851 -20 605 -20 c 0,21,22
 373 -20 373 -20 249 109 c 128,-1,23
 125 238 125 238 125 481 c 0,24,25
 125 725 125 725 249 852 c 128,-1,26
 373 979 373 979 612 979 c 0,0,1
913 481 m 0,27,28
 913 673 913 673 842.5 759.5 c 128,-1,29
 772 846 772 846 616 846 c 0,30,31
 459 846 459 846 386.5 759 c 128,-1,32
 314 672 314 672 314 481 c 0,33,34
 314 291 314 291 386 202 c 128,-1,35
 458 113 458 113 603 113 c 0,36,37
 764 113 764 113 838.5 200.5 c 128,-1,38
 913 288 913 288 913 481 c 0,27,28
EndSplineSet
Validated: 1
EndChar

StartChar: Thorn
Encoding: 222 222 234
Width: 1229
GlyphClass: 2
Flags: W
LayerCount: 2
Fore
SplineSet
1119 692 m 0,0,1
 1119 564 1119 564 1061 464.5 c 128,-1,2
 1003 365 1003 365 893.5 309.5 c 128,-1,3
 784 254 784 254 634 254 c 2,4,-1
 353 254 l 1,5,-1
 353 0 l 1,6,-1
 162 0 l 1,7,-1
 162 1349 l 1,8,-1
 353 1349 l 1,9,-1
 353 1114 l 1,10,-1
 622 1114 l 2,11,12
 861 1114 861 1114 990 1003 c 128,-1,13
 1119 892 1119 892 1119 692 c 0,0,1
927 688 m 0,14,15
 927 822 927 822 845 896.5 c 128,-1,16
 763 971 763 971 599 971 c 2,17,-1
 353 971 l 1,18,-1
 353 395 l 1,19,-1
 607 395 l 2,20,21
 760 395 760 395 843.5 472.5 c 128,-1,22
 927 550 927 550 927 688 c 0,14,15
EndSplineSet
Validated: 1
EndChar

StartChar: thorn
Encoding: 254 254 235
Width: 1229
GlyphClass: 2
Flags: W
LayerCount: 2
Fore
SplineSet
904 546 m 0,0,1
 904 772 904 772 843 868.5 c 128,-1,2
 782 965 782 965 651 965 c 0,3,4
 500 965 500 965 433 855.5 c 128,-1,5
 366 746 366 746 366 524 c 0,6,7
 366 311 366 311 433 212 c 128,-1,8
 500 113 500 113 649 113 c 0,9,10
 782 113 782 113 843 214 c 128,-1,11
 904 315 904 315 904 546 c 0,0,1
368 904 m 1,12,13
 418 1009 418 1009 495.5 1056.5 c 128,-1,14
 573 1104 573 1104 698 1104 c 0,15,16
 896 1104 896 1104 993 967.5 c 128,-1,17
 1090 831 1090 831 1090 546 c 0,18,19
 1090 -20 1090 -20 698 -20 c 0,20,21
 452 -20 452 -20 367 164 c 1,22,-1
 362 164 l 1,23,24
 366 156 366 156 366 -2 c 2,25,-1
 366 -425 l 1,26,-1
 185 -425 l 1,27,-1
 185 1484 l 1,28,-1
 365 1484 l 1,29,-1
 365 1061 l 2,30,31
 365 996 365 996 361 904 c 1,32,-1
 368 904 l 1,12,13
EndSplineSet
Validated: 1
EndChar

StartChar: minus
Encoding: 8722 8722 236
Width: 1229
GlyphClass: 2
Flags: W
LayerCount: 2
Fore
SplineSet
117 608 m 1,0,-1
 117 754 l 1,1,-1
 1112 754 l 1,2,-1
 1112 608 l 1,3,-1
 117 608 l 1,0,-1
EndSplineSet
Validated: 1
EndChar

StartChar: multiply
Encoding: 215 215 237
Width: 1229
GlyphClass: 2
Flags: W
LayerCount: 2
Fore
SplineSet
157 330 m 1,0,-1
 511 684 l 1,1,-1
 159 1036 l 1,2,-1
 263 1139 l 1,3,-1
 613 786 l 1,4,-1
 963 1137 l 1,5,-1
 1068 1032 l 1,6,-1
 718 684 l 1,7,-1
 1070 332 l 1,8,-1
 968 227 l 1,9,-1
 615 580 l 1,10,-1
 259 225 l 1,11,-1
 157 330 l 1,0,-1
EndSplineSet
Validated: 1
EndChar

StartChar: onesuperior
Encoding: 185 185 238
Width: 1229
GlyphClass: 2
Flags: W
LayerCount: 2
Fore
SplineSet
291 563 m 1,0,-1
 291 670 l 1,1,-1
 556 670 l 1,2,-1
 556 1280 l 1,3,4
 531 1230 531 1230 452 1197.5 c 128,-1,5
 373 1165 373 1165 285 1165 c 1,6,-1
 285 1274 l 1,7,8
 384 1274 384 1274 458.5 1310.5 c 128,-1,9
 533 1347 533 1347 566 1410 c 1,10,-1
 687 1410 l 1,11,-1
 687 670 l 1,12,-1
 923 670 l 1,13,-1
 923 563 l 1,14,-1
 291 563 l 1,0,-1
EndSplineSet
Validated: 1
EndChar

StartChar: twosuperior
Encoding: 178 178 239
Width: 1229
GlyphClass: 2
Flags: W
LayerCount: 2
Fore
SplineSet
314 563 m 1,0,-1
 312 666 l 1,1,2
 343 735 343 735 407 799 c 128,-1,3
 471 863 471 863 579 938 c 1,4,5
 676 1004 676 1004 720 1061 c 128,-1,6
 764 1118 764 1118 764 1178 c 0,7,8
 764 1240 764 1240 728.5 1277.5 c 128,-1,9
 693 1315 693 1315 619 1315 c 0,10,11
 551 1315 551 1315 507 1278.5 c 128,-1,12
 463 1242 463 1242 455 1174 c 1,13,-1
 322 1182 l 1,14,15
 335 1290 335 1290 417 1355.5 c 128,-1,16
 499 1421 499 1421 625 1421 c 0,17,18
 756 1421 756 1421 828.5 1357.5 c 128,-1,19
 901 1294 901 1294 901 1182 c 0,20,21
 901 1107 901 1107 854 1040 c 128,-1,22
 807 973 807 973 711 905 c 0,23,24
 579 812 579 812 529 766 c 128,-1,25
 479 720 479 720 455 670 c 1,26,-1
 914 670 l 1,27,-1
 916 563 l 1,28,-1
 314 563 l 1,0,-1
EndSplineSet
Validated: 1
EndChar

StartChar: threesuperior
Encoding: 179 179 240
Width: 1229
GlyphClass: 2
Flags: W
LayerCount: 2
Fore
SplineSet
921 795 m 0,0,1
 921 679 921 679 843.5 615 c 128,-1,2
 766 551 766 551 624 551 c 0,3,4
 338 551 338 551 306 778 c 1,5,-1
 442 791 l 1,6,7
 460 655 460 655 624 655 c 0,8,9
 784 655 784 655 784 803 c 0,10,11
 784 940 784 940 595 940 c 2,12,-1
 534 940 l 1,13,-1
 534 1049 l 1,14,-1
 591 1049 l 2,15,16
 671 1049 671 1049 717 1085 c 128,-1,17
 763 1121 763 1121 763 1186 c 0,18,19
 763 1246 763 1246 726 1280.5 c 128,-1,20
 689 1315 689 1315 618 1315 c 0,21,22
 550 1315 550 1315 508 1280 c 128,-1,23
 466 1245 466 1245 460 1180 c 1,24,-1
 325 1192 l 1,25,26
 338 1301 338 1301 416.5 1361 c 128,-1,27
 495 1421 495 1421 622 1421 c 0,28,29
 752 1421 752 1421 826 1361.5 c 128,-1,30
 900 1302 900 1302 900 1204 c 0,31,32
 900 1129 900 1129 857 1074 c 128,-1,33
 814 1019 814 1019 724 999 c 1,34,-1
 724 997 l 1,35,36
 815 988 815 988 868 935.5 c 128,-1,37
 921 883 921 883 921 795 c 0,0,1
EndSplineSet
Validated: 1
EndChar

StartChar: franc
Encoding: 8355 8355 244
Width: 1229
GlyphClass: 2
Flags: W
LayerCount: 2
Fore
SplineSet
400 1193 m 1,0,-1
 400 749 l 1,1,-1
 1076 749 l 1,2,-1
 1076 591 l 1,3,-1
 400 591 l 1,4,-1
 400 388 l 1,5,-1
 791 388 l 1,6,-1
 791 259 l 1,7,-1
 400 259 l 1,8,-1
 400 0 l 1,9,-1
 209 0 l 1,10,-1
 209 259 l 1,11,-1
 34 259 l 1,12,-1
 34 388 l 1,13,-1
 209 388 l 1,14,-1
 209 1349 l 1,15,-1
 1100 1349 l 1,16,-1
 1100 1193 l 1,17,-1
 400 1193 l 1,0,-1
EndSplineSet
Validated: 1
EndChar

StartChar: dcroat
Encoding: 273 273 254
Width: 1229
GlyphClass: 2
Flags: W
LayerCount: 2
Fore
SplineSet
1043 1196 m 1,0,-1
 1043 223 l 2,1,2
 1043 54 1043 54 1049 0 c 1,3,-1
 877 0 l 1,4,5
 873 15 873 15 870 73 c 128,-1,6
 867 131 867 131 867 174 c 1,7,-1
 862 174 l 1,8,9
 813 69 813 69 732 21.5 c 128,-1,10
 651 -26 651 -26 530 -26 c 0,11,12
 328 -26 328 -26 233 109.5 c 128,-1,13
 138 245 138 245 138 517 c 0,14,15
 138 1072 138 1072 530 1072 c 0,16,17
 651 1072 651 1072 732.5 1029 c 128,-1,18
 814 986 814 986 863 888 c 1,19,-1
 865 888 l 1,20,-1
 863 1039 l 1,21,-1
 863 1196 l 1,22,-1
 563 1196 l 1,23,-1
 563 1327 l 1,24,-1
 863 1327 l 1,25,-1
 863 1484 l 1,26,-1
 1043 1484 l 1,27,-1
 1043 1327 l 1,28,-1
 1174 1327 l 1,29,-1
 1174 1196 l 1,30,-1
 1043 1196 l 1,0,-1
324 523 m 0,31,32
 324 308 324 308 383 210.5 c 128,-1,33
 442 113 442 113 577 113 c 0,34,35
 724 113 724 113 793.5 216 c 128,-1,36
 863 319 863 319 863 538 c 0,37,38
 863 745 863 745 796.5 842 c 128,-1,39
 730 939 730 939 579 939 c 0,40,41
 445 939 445 939 384.5 837.5 c 128,-1,42
 324 736 324 736 324 523 c 0,31,32
EndSplineSet
Validated: 1
EndChar

StartChar: dcaron
Encoding: 271 271 262
Width: 1229
GlyphClass: 2
Flags: W
LayerCount: 2
Fore
SplineSet
663 174 m 1,0,1
 614 69 614 69 547.5 21.5 c 128,-1,2
 481 -26 481 -26 384 -26 c 0,3,4
 214 -26 214 -26 122.5 119.5 c 128,-1,5
 31 265 31 265 31 532 c 0,6,7
 31 801 31 801 125 949.5 c 128,-1,8
 219 1098 219 1098 384 1098 c 0,9,10
 482 1098 482 1098 548 1055 c 128,-1,11
 614 1012 614 1012 663 914 c 1,12,-1
 665 914 l 1,13,-1
 663 1065 l 1,14,-1
 663 1484 l 1,15,-1
 843 1484 l 1,16,-1
 843 223 l 2,17,18
 843 54 843 54 849 0 c 1,19,-1
 677 0 l 1,20,21
 673 15 673 15 670 73 c 128,-1,22
 667 131 667 131 667 174 c 1,23,-1
 663 174 l 1,0,1
217 538 m 0,24,25
 217 321 217 321 263.5 217 c 128,-1,26
 310 113 310 113 415 113 c 0,27,28
 526 113 526 113 594.5 233 c 128,-1,29
 663 353 663 353 663 554 c 0,30,31
 663 743 663 743 596.5 854 c 128,-1,32
 530 965 530 965 416 965 c 0,33,34
 313 965 313 965 265 861 c 128,-1,35
 217 757 217 757 217 538 c 0,24,25
955 1159 m 1,36,-1
 955 1192 l 1,37,-1
 1034 1484 l 1,38,-1
 1231 1484 l 1,39,-1
 1231 1447 l 1,40,-1
 1060 1159 l 1,41,-1
 955 1159 l 1,36,-1
EndSplineSet
Validated: 1
EndChar

StartChar: lacute
Encoding: 314 314 269
Width: 1229
GlyphClass: 2
Flags: W
LayerCount: 2
Fore
SplineSet
736 142 m 1,0,-1
 1116 142 l 1,1,-1
 1116 0 l 1,2,-1
 134 0 l 1,3,-1
 134 142 l 1,4,-1
 556 142 l 1,5,-1
 556 1207 l 1,6,-1
 267 1207 l 1,7,-1
 267 1349 l 1,8,-1
 736 1349 l 1,9,-1
 736 142 l 1,0,-1
531 1445 m 1,10,-1
 531 1465 l 1,11,-1
 758 1705 l 1,12,-1
 955 1705 l 1,13,-1
 955 1676 l 1,14,-1
 655 1445 l 1,15,-1
 531 1445 l 1,10,-1
EndSplineSet
Validated: 1
EndChar

StartChar: Gamma
Encoding: 915 915 298
Width: 1229
GlyphClass: 2
Flags: W
LayerCount: 2
Fore
SplineSet
415 0 m 1,0,-1
 224 0 l 1,1,-1
 224 1349 l 1,2,-1
 1115 1349 l 1,3,-1
 1115 1193 l 1,4,-1
 415 1193 l 1,5,-1
 415 0 l 1,0,-1
EndSplineSet
Validated: 1
EndChar

StartChar: Theta
Encoding: 920 920 299
Width: 1229
GlyphClass: 2
Flags: W
LayerCount: 2
Fore
SplineSet
1126 681 m 0,0,1
 1126 344 1126 344 993.5 162 c 128,-1,2
 861 -20 861 -20 613 -20 c 0,3,4
 364 -20 364 -20 233 159 c 128,-1,5
 102 338 102 338 102 681 c 0,6,7
 102 1018 102 1018 232 1194 c 128,-1,8
 362 1370 362 1370 615 1370 c 0,9,10
 862 1370 862 1370 994 1196.5 c 128,-1,11
 1126 1023 1126 1023 1126 681 c 0,0,1
925 681 m 0,12,13
 925 1214 925 1214 615 1214 c 0,14,15
 303 1214 303 1214 303 681 c 0,16,17
 303 411 303 411 382 273 c 128,-1,18
 461 135 461 135 614 135 c 0,19,20
 777 135 777 135 851 275 c 128,-1,21
 925 415 925 415 925 681 c 0,12,13
782 757 m 1,22,-1
 782 603 l 1,23,-1
 447 603 l 1,24,-1
 447 757 l 1,25,-1
 782 757 l 1,22,-1
EndSplineSet
Validated: 1
EndChar

StartChar: Phi
Encoding: 934 934 300
Width: 1229
GlyphClass: 2
Flags: W
LayerCount: 2
Fore
SplineSet
1221 706 m 0,0,1
 1221 568 1221 568 1161 452.5 c 128,-1,2
 1101 337 1101 337 993.5 271.5 c 128,-1,3
 886 206 886 206 746 206 c 2,4,-1
 705 206 l 1,5,-1
 705 -11 l 1,6,-1
 524 -11 l 1,7,-1
 524 206 l 1,8,-1
 483 206 l 2,9,10
 344 206 344 206 236 271 c 128,-1,11
 128 336 128 336 68 452.5 c 128,-1,12
 8 569 8 569 8 706 c 0,13,14
 8 926 8 926 139 1056.5 c 128,-1,15
 270 1187 270 1187 494 1187 c 2,16,-1
 524 1187 l 1,17,-1
 524 1359 l 1,18,-1
 705 1359 l 1,19,-1
 705 1187 l 1,20,-1
 734 1187 l 2,21,22
 958 1187 958 1187 1089.5 1057 c 128,-1,23
 1221 927 1221 927 1221 706 c 0,0,1
1027 702 m 0,24,25
 1027 866 1027 866 944.5 955 c 128,-1,26
 862 1044 862 1044 710 1044 c 2,27,-1
 705 1044 l 1,28,-1
 705 348 l 1,29,-1
 717 348 l 2,30,31
 864 348 864 348 945.5 444.5 c 128,-1,32
 1027 541 1027 541 1027 702 c 0,24,25
202 702 m 0,33,34
 202 540 202 540 283.5 444 c 128,-1,35
 365 348 365 348 512 348 c 2,36,-1
 524 348 l 1,37,-1
 524 1044 l 1,38,-1
 516 1044 l 2,39,40
 367 1044 367 1044 284.5 956 c 128,-1,41
 202 868 202 868 202 702 c 0,33,34
EndSplineSet
Validated: 1
EndChar

StartChar: alpha
Encoding: 945 945 301
Width: 1229
GlyphClass: 2
Flags: W
LayerCount: 2
Fore
SplineSet
886 237 m 1,0,1
 771 -20 771 -20 527 -20 c 0,2,3
 322 -20 322 -20 225.5 118 c 128,-1,4
 129 256 129 256 129 536 c 0,5,6
 129 820 129 820 237.5 961 c 128,-1,7
 346 1102 346 1102 555 1102 c 0,8,9
 681 1102 681 1102 770.5 1035 c 128,-1,10
 860 968 860 968 905 847 c 1,11,-1
 907 847 l 1,12,13
 930 966 930 966 980 1082 c 1,14,-1
 1168 1082 l 1,15,16
 1118 976 1118 976 1076 822.5 c 128,-1,17
 1034 669 1034 669 1026 571 c 1,18,19
 1031 411 1031 411 1060.5 257 c 128,-1,20
 1090 103 1090 103 1137 0 c 1,21,-1
 954 0 l 1,22,23
 930 61 930 61 912.5 132.5 c 128,-1,24
 895 204 895 204 890 237 c 1,25,-1
 886 237 l 1,0,1
318 542 m 0,26,27
 318 320 318 320 375 219.5 c 128,-1,28
 432 119 432 119 564 119 c 0,29,30
 684 119 684 119 766.5 234.5 c 128,-1,31
 849 350 849 350 875 546 c 1,32,33
 846 757 846 757 770 863 c 128,-1,34
 694 969 694 969 575 969 c 0,35,36
 439 969 439 969 378.5 868.5 c 128,-1,37
 318 768 318 768 318 542 c 0,26,27
EndSplineSet
Validated: 1
EndChar

StartChar: delta
Encoding: 948 948 302
Width: 1229
GlyphClass: 2
Flags: W
LayerCount: 2
Fore
SplineSet
920 471 m 0,0,1
 920 557 920 557 892 631 c 128,-1,2
 864 705 864 705 823.5 766 c 128,-1,3
 783 827 783 827 685 929 c 1,4,5
 501 864 501 864 401 744 c 128,-1,6
 301 624 301 624 301 471 c 0,7,8
 301 308 301 308 384.5 210.5 c 128,-1,9
 468 113 468 113 612 113 c 0,10,11
 759 113 759 113 839.5 205 c 128,-1,12
 920 297 920 297 920 471 c 0,0,1
648 1341 m 1,13,-1
 494 1349 l 1,14,-1
 810 1036 l 2,15,16
 938 910 938 910 993.5 830.5 c 128,-1,17
 1049 751 1049 751 1079 665 c 128,-1,18
 1109 579 1109 579 1109 475 c 0,19,20
 1109 253 1109 253 975 116.5 c 128,-1,21
 841 -20 841 -20 612 -20 c 0,22,23
 382 -20 382 -20 247 112.5 c 128,-1,24
 112 245 112 245 112 473 c 0,25,26
 112 662 112 662 233 803 c 128,-1,27
 354 944 354 944 592 1026 c 1,28,-1
 273 1354 l 1,29,-1
 273 1484 l 1,30,-1
 1021 1484 l 1,31,-1
 1021 1341 l 1,32,-1
 648 1341 l 1,13,-1
EndSplineSet
Validated: 1
EndChar

StartChar: epsilon
Encoding: 949 949 303
Width: 1229
GlyphClass: 2
Flags: W
LayerCount: 2
Fore
SplineSet
621 114 m 0,0,1
 729 114 729 114 824.5 156 c 128,-1,2
 920 198 920 198 984 275 c 1,3,-1
 1089 175 l 1,4,5
 1009 78 1009 78 886.5 29 c 128,-1,6
 764 -20 764 -20 609 -20 c 0,7,8
 395 -20 395 -20 285 62 c 128,-1,9
 175 144 175 144 175 295 c 0,10,11
 175 403 175 403 252.5 478 c 128,-1,12
 330 553 330 553 449 564 c 1,13,-1
 449 566 l 1,14,15
 342 579 342 579 275 647 c 128,-1,16
 208 715 208 715 208 813 c 0,17,18
 208 946 208 946 324 1024 c 128,-1,19
 440 1102 440 1102 636 1102 c 0,20,21
 784 1102 784 1102 889.5 1059 c 128,-1,22
 995 1016 995 1016 1062 917 c 1,23,-1
 934 829 l 1,24,25
 887 900 887 900 814.5 934 c 128,-1,26
 742 968 742 968 637 968 c 0,27,28
 509 968 509 968 449.5 925.5 c 128,-1,29
 390 883 390 883 390 809 c 0,30,31
 390 721 390 721 485.5 677 c 128,-1,32
 581 633 581 633 818 633 c 1,33,-1
 818 498 l 1,34,35
 562 498 562 498 462 448.5 c 128,-1,36
 362 399 362 399 362 298 c 0,37,38
 362 207 362 207 428 160.5 c 128,-1,39
 494 114 494 114 621 114 c 0,0,1
EndSplineSet
Validated: 1
EndChar

StartChar: sigma
Encoding: 963 963 304
Width: 1229
GlyphClass: 2
Flags: W
LayerCount: 2
Fore
SplineSet
1078 491 m 0,0,1
 1078 250 1078 250 947.5 115 c 128,-1,2
 817 -20 817 -20 588 -20 c 0,3,4
 348 -20 348 -20 220 120.5 c 128,-1,5
 92 261 92 261 92 524 c 0,6,7
 92 789 92 789 242 935.5 c 128,-1,8
 392 1082 392 1082 670 1082 c 2,9,-1
 1229 1082 l 1,10,-1
 1229 940 l 1,11,-1
 1074 940 l 1,12,-1
 926 946 l 1,13,-1
 926 942 l 1,14,15
 1010 816 1010 816 1044 710.5 c 128,-1,16
 1078 605 1078 605 1078 491 c 0,0,1
889 488 m 0,17,18
 889 732 889 732 765 940 c 1,19,-1
 676 940 l 2,20,21
 490 940 490 940 386 832.5 c 128,-1,22
 282 725 282 725 282 526 c 0,23,24
 282 113 282 113 580 113 c 0,25,26
 731 113 731 113 810 209.5 c 128,-1,27
 889 306 889 306 889 488 c 0,17,18
EndSplineSet
Validated: 1
EndChar

StartChar: tau
Encoding: 964 964 305
Width: 1229
GlyphClass: 2
Flags: W
LayerCount: 2
Fore
SplineSet
401 940 m 2,0,1
 319 940 319 940 245 928 c 128,-1,2
 171 916 171 916 149 903 c 1,3,-1
 149 1053 l 1,4,5
 173 1065 173 1065 226.5 1073.5 c 128,-1,6
 280 1082 280 1082 332 1082 c 2,7,-1
 1052 1082 l 1,8,-1
 1052 940 l 1,9,-1
 678 940 l 1,10,-1
 678 256 l 2,11,12
 678 121 678 121 802 121 c 0,13,14
 858 121 858 121 938 131 c 1,15,-1
 938 0 l 1,16,17
 915 -6 915 -6 858 -13 c 128,-1,18
 801 -20 801 -20 745 -20 c 0,19,20
 617 -20 617 -20 557.5 39.5 c 128,-1,21
 498 99 498 99 498 227 c 2,22,-1
 498 940 l 1,23,-1
 401 940 l 2,0,1
EndSplineSet
Validated: 1
EndChar

StartChar: phi
Encoding: 966 966 306
Width: 1229
GlyphClass: 2
Flags: W
LayerCount: 2
Fore
SplineSet
1177 565 m 0,0,1
 1177 292 1177 292 1051.5 143.5 c 128,-1,2
 926 -5 926 -5 687 -18 c 1,3,-1
 687 -425 l 1,4,-1
 527 -425 l 1,5,-1
 527 -18 l 1,6,7
 294 -7 294 -7 172 135 c 128,-1,8
 50 277 50 277 50 545 c 0,9,10
 50 774 50 774 156.5 923.5 c 128,-1,11
 263 1073 263 1073 455 1106 c 1,12,-1
 476 970 l 1,13,14
 354 942 354 942 286.5 828 c 128,-1,15
 219 714 219 714 219 541 c 0,16,17
 219 125 219 125 527 109 c 1,18,-1
 527 689 l 2,19,20
 527 884 527 884 606 994 c 128,-1,21
 685 1104 685 1104 834 1104 c 0,22,23
 994 1104 994 1104 1085.5 958.5 c 128,-1,24
 1177 813 1177 813 1177 565 c 0,0,1
1008 567 m 0,25,26
 1008 758 1008 758 962.5 869.5 c 128,-1,27
 917 981 917 981 836 981 c 0,28,29
 687 981 687 981 687 692 c 2,30,-1
 687 109 l 1,31,32
 1008 122 1008 122 1008 567 c 0,25,26
EndSplineSet
Validated: 1
EndChar

StartChar: underscoredbl
Encoding: 8215 8215 307
Width: 1229
GlyphClass: 2
Flags: W
LayerCount: 2
Fore
SplineSet
-5 -220 m 1,0,-1
 -5 -124 l 1,1,-1
 1233 -124 l 1,2,-1
 1233 -220 l 1,3,-1
 -5 -220 l 1,0,-1
-5 -425 m 1,4,-1
 -5 -329 l 1,5,-1
 1233 -329 l 1,6,-1
 1233 -425 l 1,7,-1
 -5 -425 l 1,4,-1
EndSplineSet
Validated: 1
EndChar

StartChar: exclamdbl
Encoding: 8252 8252 308
Width: 1229
GlyphClass: 2
Flags: W
LayerCount: 2
Fore
SplineSet
411 397 m 1,0,-1
 263 397 l 1,1,-1
 239 1348 l 1,2,-1
 435 1348 l 1,3,-1
 411 397 l 1,0,-1
237 0 m 1,4,-1
 237 201 l 1,5,-1
 431 201 l 1,6,-1
 431 0 l 1,7,-1
 237 0 l 1,4,-1
968 397 m 1,8,-1
 820 397 l 1,9,-1
 796 1348 l 1,10,-1
 992 1348 l 1,11,-1
 968 397 l 1,8,-1
794 0 m 1,12,-1
 794 201 l 1,13,-1
 988 201 l 1,14,-1
 988 0 l 1,15,-1
 794 0 l 1,12,-1
EndSplineSet
Validated: 1
EndChar

StartChar: nsuperior
Encoding: 8319 8319 309
Width: 1229
GlyphClass: 2
Flags: W
LayerCount: 2
Fore
SplineSet
770 519 m 5,0,-1
 770 917 l 6,1,2
 770 1007 770 1007 743 1042 c 132,-1,3
 716 1077 716 1077 646 1077 c 4,4,5
 574 1077 574 1077 531.5 1027 c 132,-1,6
 489 977 489 977 489 883 c 6,7,-1
 489 519 l 5,8,-1
 361 519 l 5,9,-1
 361 1030 l 5,10,-1
 357 1169 l 5,11,-1
 476 1169 l 5,12,-1
 482 1058 l 5,13,-1
 484 1058 l 5,14,15
 519 1123 519 1123 568.5 1152 c 132,-1,16
 618 1181 618 1181 692 1181 c 4,17,18
 802 1181 802 1181 850.5 1127 c 132,-1,19
 899 1073 899 1073 899 952 c 6,20,-1
 899 519 l 5,21,-1
 770 519 l 5,0,-1
EndSplineSet
Validated: 1
EndChar

StartChar: peseta
Encoding: 8359 8359 310
Width: 1229
GlyphClass: 2
Flags: W
LayerCount: 2
Fore
SplineSet
582 1015 m 0,0,1
 582 850 582 850 497 752 c 128,-1,2
 412 654 412 654 267 654 c 2,3,-1
 206 654 l 1,4,-1
 206 0 l 1,5,-1
 45 0 l 1,6,-1
 45 1349 l 1,7,-1
 255 1349 l 2,8,9
 582 1349 582 1349 582 1015 c 0,0,1
1204 173 m 0,10,11
 1204 90 1204 90 1156 40 c 128,-1,12
 1108 -10 1108 -10 1018 -10 c 0,13,14
 944 -10 944 -10 895 31.5 c 128,-1,15
 846 73 846 73 835 153 c 1,16,-1
 943 170 l 1,17,18
 959 82 959 82 1020 82 c 0,19,20
 1046 82 1046 82 1063 100.5 c 128,-1,21
 1080 119 1080 119 1080 159 c 0,22,23
 1080 195 1080 195 1057.5 226 c 128,-1,24
 1035 257 1035 257 987 290 c 0,25,26
 910 342 910 342 877.5 392.5 c 128,-1,27
 845 443 845 443 845 499 c 0,28,29
 845 578 845 578 892 621 c 128,-1,30
 939 664 939 664 1026 664 c 0,31,32
 1096 664 1096 664 1140 621 c 128,-1,33
 1184 578 1184 578 1192 506 c 1,34,-1
 1083 494 l 1,35,36
 1078 538 1078 538 1060.5 555.5 c 128,-1,37
 1043 573 1043 573 1024 573 c 0,38,39
 969 573 969 573 969 500 c 0,40,41
 969 463 969 463 995.5 434.5 c 128,-1,42
 1022 406 1022 406 1073 371 c 0,43,44
 1204 282 1204 282 1204 173 c 0,10,11
420 1012 m 0,45,46
 420 1112 420 1112 381.5 1159 c 128,-1,47
 343 1206 343 1206 262 1206 c 2,48,-1
 206 1206 l 1,49,-1
 206 795 l 1,50,-1
 270 795 l 2,51,52
 345 795 345 795 382.5 852 c 128,-1,53
 420 909 420 909 420 1012 c 0,45,46
445 553 m 1,54,-1
 445 650 l 1,55,-1
 535 650 l 1,56,-1
 594 792 l 1,57,-1
 665 792 l 1,58,-1
 665 650 l 1,59,-1
 814 650 l 1,60,-1
 814 553 l 1,61,-1
 665 553 l 1,62,-1
 665 169 l 2,63,64
 665 91 665 91 733 91 c 0,65,66
 778 91 778 91 805 98 c 1,67,-1
 805 1 l 1,68,69
 754 -10 754 -10 702 -10 c 0,70,71
 534 -10 534 -10 534 151 c 2,72,-1
 534 553 l 1,73,-1
 445 553 l 1,54,-1
EndSplineSet
Validated: 1
EndChar

StartChar: arrowleft
Encoding: 8592 8592 311
Width: 1229
GlyphClass: 2
Flags: W
LayerCount: 2
Fore
SplineSet
231 297 m 1,0,1
 288 230 288 230 350 100 c 1,2,-1
 278 100 l 1,3,4
 151 249 151 249 8 322 c 1,5,-1
 8 358 l 1,6,7
 151 431 151 431 278 580 c 1,8,-1
 350 580 l 1,9,10
 288 450 288 450 231 383 c 1,11,-1
 1220 383 l 1,12,-1
 1220 297 l 1,13,-1
 231 297 l 1,0,1
EndSplineSet
Validated: 1
EndChar

StartChar: arrowup
Encoding: 8593 8593 312
Width: 1229
GlyphClass: 2
Flags: W
LayerCount: 2
Fore
SplineSet
571 928 m 1,0,1
 504 871 504 871 374 809 c 1,2,-1
 374 881 l 1,3,4
 523 1008 523 1008 596 1151 c 1,5,-1
 632 1151 l 1,6,7
 705 1008 705 1008 854 881 c 1,8,-1
 854 809 l 1,9,10
 724 871 724 871 657 928 c 1,11,-1
 657 -61 l 1,12,-1
 571 -61 l 1,13,-1
 571 928 l 1,0,1
EndSplineSet
Validated: 1
EndChar

StartChar: arrowright
Encoding: 8594 8594 313
Width: 1229
GlyphClass: 2
Flags: W
LayerCount: 2
Fore
SplineSet
997 383 m 1,0,1
 940 450 940 450 878 580 c 1,2,-1
 950 580 l 1,3,4
 1077 431 1077 431 1220 358 c 1,5,-1
 1220 322 l 1,6,7
 1077 249 1077 249 950 100 c 1,8,-1
 878 100 l 1,9,10
 940 230 940 230 997 297 c 1,11,-1
 8 297 l 1,12,-1
 8 383 l 1,13,-1
 997 383 l 1,0,1
EndSplineSet
Validated: 1
EndChar

StartChar: arrowdown
Encoding: 8595 8595 314
Width: 1229
GlyphClass: 2
Flags: W
LayerCount: 2
Fore
SplineSet
657 162 m 1,0,1
 724 219 724 219 854 281 c 1,2,-1
 854 209 l 1,3,4
 705 82 705 82 632 -61 c 1,5,-1
 596 -61 l 1,6,7
 523 82 523 82 374 209 c 1,8,-1
 374 281 l 1,9,10
 504 219 504 219 571 162 c 1,11,-1
 571 1151 l 1,12,-1
 657 1151 l 1,13,-1
 657 162 l 1,0,1
EndSplineSet
Validated: 1
EndChar

StartChar: arrowboth
Encoding: 8596 8596 315
Width: 1229
GlyphClass: 2
Flags: W
LayerCount: 2
Fore
SplineSet
231 297 m 1,0,1
 288 230 288 230 350 100 c 1,2,-1
 278 100 l 1,3,4
 151 249 151 249 8 322 c 1,5,-1
 8 358 l 1,6,7
 151 431 151 431 278 580 c 1,8,-1
 350 580 l 1,9,10
 288 450 288 450 231 383 c 1,11,-1
 997 383 l 1,12,13
 940 450 940 450 878 580 c 1,14,-1
 950 580 l 1,15,16
 1077 431 1077 431 1220 358 c 1,17,-1
 1220 322 l 1,18,19
 1077 249 1077 249 950 100 c 1,20,-1
 878 100 l 1,21,22
 940 230 940 230 997 297 c 1,23,-1
 231 297 l 1,0,1
EndSplineSet
Validated: 1
EndChar

StartChar: arrowupdn
Encoding: 8597 8597 316
Width: 1229
GlyphClass: 2
Flags: W
LayerCount: 2
Fore
SplineSet
571 928 m 1,0,1
 504 871 504 871 374 809 c 1,2,-1
 374 881 l 1,3,4
 523 1008 523 1008 596 1151 c 1,5,-1
 632 1151 l 1,6,7
 705 1008 705 1008 854 881 c 1,8,-1
 854 809 l 1,9,10
 724 871 724 871 657 928 c 1,11,-1
 657 162 l 1,12,13
 724 219 724 219 854 281 c 1,14,-1
 854 209 l 1,15,16
 705 82 705 82 632 -61 c 1,17,-1
 596 -61 l 1,18,19
 523 82 523 82 374 209 c 1,20,-1
 374 281 l 1,21,22
 504 219 504 219 571 162 c 1,23,-1
 571 928 l 1,0,1
EndSplineSet
Validated: 1
EndChar

StartChar: arrowupdnbse
Encoding: 8616 8616 317
Width: 1229
GlyphClass: 2
Flags: W
LayerCount: 2
Fore
SplineSet
374 -104 m 1,0,-1
 854 -104 l 1,1,-1
 854 -184 l 1,2,-1
 374 -184 l 1,3,-1
 374 -104 l 1,0,-1
571 928 m 1,4,5
 504 871 504 871 374 809 c 1,6,-1
 374 881 l 1,7,8
 523 1008 523 1008 596 1151 c 1,9,-1
 632 1151 l 1,10,11
 705 1008 705 1008 854 881 c 1,12,-1
 854 809 l 1,13,14
 724 871 724 871 657 928 c 1,15,-1
 657 162 l 1,16,17
 724 219 724 219 854 281 c 1,18,-1
 854 209 l 1,19,20
 705 82 705 82 632 -61 c 1,21,-1
 596 -61 l 1,22,23
 523 82 523 82 374 209 c 1,24,-1
 374 281 l 1,25,26
 504 219 504 219 571 162 c 1,27,-1
 571 928 l 1,4,5
EndSplineSet
Validated: 1
EndChar

StartChar: orthogonal
Encoding: 8735 8735 318
Width: 1229
GlyphClass: 2
Flags: W
LayerCount: 2
Fore
SplineSet
52 1223 m 1,0,-1
 146 1223 l 1,1,-1
 146 94 l 1,2,-1
 1176 94 l 1,3,-1
 1176 0 l 1,4,-1
 52 0 l 1,5,-1
 52 1223 l 1,0,-1
EndSplineSet
Validated: 1
EndChar

StartChar: intersection
Encoding: 8745 8745 319
Width: 1229
GlyphClass: 2
Flags: W
LayerCount: 2
Fore
SplineSet
156 -2 m 1,0,-1
 156 510 l 2,1,2
 156 660 156 660 214 779.5 c 128,-1,3
 272 899 272 899 376.5 965.5 c 128,-1,4
 481 1032 481 1032 611 1032 c 0,5,6
 742 1032 742 1032 847.5 966 c 128,-1,7
 953 900 953 900 1012.5 779 c 128,-1,8
 1072 658 1072 658 1072 510 c 2,9,-1
 1072 -2 l 1,10,-1
 969 -2 l 1,11,-1
 969 512 l 2,12,13
 969 702 969 702 871 816 c 128,-1,14
 773 930 773 930 613 930 c 0,15,16
 451 930 451 930 355 817 c 128,-1,17
 259 704 259 704 259 510 c 2,18,-1
 259 -2 l 1,19,-1
 156 -2 l 1,0,-1
EndSplineSet
Validated: 1
EndChar

StartChar: equivalence
Encoding: 8801 8801 320
Width: 1229
GlyphClass: 2
Flags: W
LayerCount: 2
Fore
SplineSet
116 956 m 5,0,-1
 116 1104 l 5,1,-1
 1111 1104 l 5,2,-1
 1111 956 l 5,3,-1
 116 956 l 5,0,-1
116 244 m 5,4,-1
 116 392 l 5,5,-1
 1111 392 l 5,6,-1
 1111 244 l 5,7,-1
 116 244 l 5,4,-1
116 600 m 5,8,-1
 116 748 l 5,9,-1
 1111 748 l 5,10,-1
 1111 600 l 5,11,-1
 116 600 l 5,8,-1
EndSplineSet
Validated: 1
EndChar

StartChar: house
Encoding: 8962 8962 321
Width: 1229
GlyphClass: 2
Flags: W
LayerCount: 2
Fore
SplineSet
138 0 m 1,0,-1
 138 635 l 1,1,-1
 614 1083 l 1,2,-1
 1090 635 l 1,3,-1
 1090 0 l 1,4,-1
 138 0 l 1,0,-1
221 85 m 1,5,-1
 1007 85 l 1,6,-1
 1007 597 l 1,7,-1
 614 967 l 1,8,-1
 221 597 l 1,9,-1
 221 85 l 1,5,-1
EndSplineSet
Validated: 1
EndChar

StartChar: revlogicalnot
Encoding: 8976 8976 322
Width: 1229
GlyphClass: 2
Flags: W
LayerCount: 2
Fore
SplineSet
262 608 m 1,0,-1
 262 180 l 1,1,-1
 115 180 l 1,2,-1
 116 754 l 1,3,-1
 1111 754 l 1,4,-1
 1111 608 l 1,5,-1
 262 608 l 1,0,-1
EndSplineSet
Validated: 1
EndChar

StartChar: integraltp
Encoding: 8992 8992 323
Width: 1229
GlyphClass: 2
Flags: W
LayerCount: 2
Fore
SplineSet
687 -615 m 1,0,-1
 542 -615 l 1,1,-1
 542 1207 l 2,2,3
 542 1440 542 1440 624 1572.5 c 128,-1,4
 706 1705 706 1705 855 1705 c 0,5,6
 925 1705 925 1705 975.5 1668.5 c 128,-1,7
 1026 1632 1026 1632 1026 1576 c 0,8,9
 1026 1537 1026 1537 1001 1512.5 c 128,-1,10
 976 1488 976 1488 941 1488 c 0,11,12
 902 1488 902 1488 880.5 1506 c 128,-1,13
 859 1524 859 1524 844.5 1545.5 c 128,-1,14
 830 1567 830 1567 816.5 1585 c 128,-1,15
 803 1603 803 1603 781 1603 c 0,16,17
 730 1603 730 1603 708.5 1527.5 c 128,-1,18
 687 1452 687 1452 687 1285 c 2,19,-1
 687 -615 l 1,0,-1
EndSplineSet
Validated: 1
EndChar

StartChar: integralbt
Encoding: 8993 8993 324
Width: 1229
GlyphClass: 2
Flags: W
LayerCount: 2
Fore
SplineSet
542 1705 m 1,0,-1
 687 1705 l 1,1,-1
 687 -117 l 2,2,3
 687 -354 687 -354 604 -484.5 c 128,-1,4
 521 -615 521 -615 374 -615 c 0,5,6
 304 -615 304 -615 253.5 -578.5 c 128,-1,7
 203 -542 203 -542 203 -486 c 0,8,9
 203 -447 203 -447 228 -422.5 c 128,-1,10
 253 -398 253 -398 288 -398 c 0,11,12
 327 -398 327 -398 348.5 -416 c 128,-1,13
 370 -434 370 -434 384.5 -455.5 c 128,-1,14
 399 -477 399 -477 412.5 -495 c 128,-1,15
 426 -513 426 -513 448 -513 c 0,16,17
 499 -513 499 -513 520.5 -437.5 c 128,-1,18
 542 -362 542 -362 542 -195 c 2,19,-1
 542 1705 l 1,0,-1
EndSplineSet
Validated: 1
EndChar

StartChar: uni2500
Encoding: 9472 9472 325
Width: 1229
GlyphClass: 2
Flags: W
LayerCount: 2
Fore
SplineSet
-10 555 m 1,0,-1
 -10 700 l 1,1,-1
 1239 700 l 1,2,-1
 1239 555 l 1,3,-1
 -10 555 l 1,0,-1
EndSplineSet
Validated: 1
EndChar

StartChar: uni2502
Encoding: 9474 9474 326
Width: 1229
GlyphClass: 2
Flags: W
LayerCount: 2
Fore
SplineSet
542 1705 m 1,0,-1
 687 1705 l 1,1,-1
 687 -615 l 1,2,-1
 542 -615 l 1,3,-1
 542 1705 l 1,0,-1
EndSplineSet
Validated: 1
EndChar

StartChar: uni250C
Encoding: 9484 9484 327
Width: 1229
GlyphClass: 2
Flags: W
LayerCount: 2
Fore
SplineSet
542 700 m 1,0,-1
 1239 700 l 1,1,-1
 1239 555 l 1,2,-1
 687 555 l 1,3,-1
 687 -615 l 1,4,-1
 542 -615 l 1,5,-1
 542 700 l 1,0,-1
EndSplineSet
Validated: 1
EndChar

StartChar: uni2510
Encoding: 9488 9488 328
Width: 1229
GlyphClass: 2
Flags: W
LayerCount: 2
Fore
SplineSet
-10 555 m 1,0,-1
 -10 700 l 1,1,-1
 687 700 l 1,2,-1
 687 -615 l 1,3,-1
 542 -615 l 1,4,-1
 542 555 l 1,5,-1
 -10 555 l 1,0,-1
EndSplineSet
Validated: 1
EndChar

StartChar: uni2514
Encoding: 9492 9492 329
Width: 1229
GlyphClass: 2
Flags: W
LayerCount: 2
Fore
SplineSet
542 1705 m 1,0,-1
 687 1705 l 1,1,-1
 687 700 l 1,2,-1
 1239 700 l 1,3,-1
 1239 555 l 1,4,-1
 542 555 l 1,5,-1
 542 1705 l 1,0,-1
EndSplineSet
Validated: 1
EndChar

StartChar: uni2518
Encoding: 9496 9496 330
Width: 1229
GlyphClass: 2
Flags: W
LayerCount: 2
Fore
SplineSet
-10 555 m 1,0,-1
 -10 700 l 1,1,-1
 542 700 l 1,2,-1
 542 1705 l 1,3,-1
 687 1705 l 1,4,-1
 687 555 l 1,5,-1
 -10 555 l 1,0,-1
EndSplineSet
Validated: 1
EndChar

StartChar: uni251C
Encoding: 9500 9500 331
Width: 1229
GlyphClass: 2
Flags: W
LayerCount: 2
Fore
SplineSet
542 1705 m 1,0,-1
 687 1705 l 1,1,-1
 687 700 l 1,2,-1
 1239 700 l 1,3,-1
 1239 555 l 1,4,-1
 687 555 l 1,5,-1
 687 -615 l 1,6,-1
 542 -615 l 1,7,-1
 542 1705 l 1,0,-1
EndSplineSet
Validated: 1
EndChar

StartChar: uni2524
Encoding: 9508 9508 332
Width: 1229
GlyphClass: 2
Flags: W
LayerCount: 2
Fore
SplineSet
-10 555 m 1,0,-1
 -10 700 l 1,1,-1
 542 700 l 1,2,-1
 542 1705 l 1,3,-1
 687 1705 l 1,4,-1
 687 -615 l 1,5,-1
 542 -615 l 1,6,-1
 542 555 l 1,7,-1
 -10 555 l 1,0,-1
EndSplineSet
Validated: 1
EndChar

StartChar: uni252C
Encoding: 9516 9516 333
Width: 1229
GlyphClass: 2
Flags: W
LayerCount: 2
Fore
SplineSet
-10 555 m 1,0,-1
 -10 700 l 1,1,-1
 1239 700 l 1,2,-1
 1239 555 l 1,3,-1
 687 555 l 1,4,-1
 687 -615 l 1,5,-1
 542 -615 l 1,6,-1
 542 555 l 1,7,-1
 -10 555 l 1,0,-1
EndSplineSet
Validated: 1
EndChar

StartChar: uni2534
Encoding: 9524 9524 334
Width: 1229
GlyphClass: 2
Flags: W
LayerCount: 2
Fore
SplineSet
-10 555 m 1,0,-1
 -10 700 l 1,1,-1
 542 700 l 1,2,-1
 542 1705 l 1,3,-1
 687 1705 l 1,4,-1
 687 700 l 1,5,-1
 1239 700 l 1,6,-1
 1239 555 l 1,7,-1
 -10 555 l 1,0,-1
EndSplineSet
Validated: 1
EndChar

StartChar: uni253C
Encoding: 9532 9532 335
Width: 1229
GlyphClass: 2
Flags: W
LayerCount: 2
Fore
SplineSet
-10 555 m 1,0,-1
 -10 700 l 1,1,-1
 542 700 l 1,2,-1
 542 1705 l 1,3,-1
 687 1705 l 1,4,-1
 687 700 l 1,5,-1
 1239 700 l 1,6,-1
 1239 555 l 1,7,-1
 687 555 l 1,8,-1
 687 -615 l 1,9,-1
 542 -615 l 1,10,-1
 542 555 l 1,11,-1
 -10 555 l 1,0,-1
EndSplineSet
Validated: 1
EndChar

StartChar: uni2550
Encoding: 9552 9552 336
Width: 1229
GlyphClass: 2
Flags: W
LayerCount: 2
Fore
SplineSet
-10 735 m 1,0,-1
 -10 880 l 1,1,-1
 1239 880 l 1,2,-1
 1239 735 l 1,3,-1
 -10 735 l 1,0,-1
-10 375 m 1,4,-1
 -10 520 l 1,5,-1
 1239 520 l 1,6,-1
 1239 375 l 1,7,-1
 -10 375 l 1,4,-1
EndSplineSet
Validated: 1
EndChar

StartChar: uni2551
Encoding: 9553 9553 337
Width: 1229
GlyphClass: 2
Flags: W
LayerCount: 2
Fore
SplineSet
362 1705 m 1,0,-1
 507 1705 l 1,1,-1
 507 -615 l 1,2,-1
 362 -615 l 1,3,-1
 362 1705 l 1,0,-1
722 1705 m 1,4,-1
 867 1705 l 1,5,-1
 867 -615 l 1,6,-1
 722 -615 l 1,7,-1
 722 1705 l 1,4,-1
EndSplineSet
Validated: 1
EndChar

StartChar: uni2552
Encoding: 9554 9554 338
Width: 1229
GlyphClass: 2
Flags: W
LayerCount: 2
Fore
SplineSet
542 880 m 1,0,-1
 1239 880 l 1,1,-1
 1239 735 l 1,2,-1
 687 735 l 1,3,-1
 687 520 l 1,4,-1
 1239 520 l 1,5,-1
 1239 375 l 1,6,-1
 687 375 l 1,7,-1
 687 -615 l 1,8,-1
 542 -615 l 1,9,-1
 542 880 l 1,0,-1
EndSplineSet
Validated: 1
EndChar

StartChar: uni2553
Encoding: 9555 9555 339
Width: 1229
GlyphClass: 2
Flags: W
LayerCount: 2
Fore
SplineSet
1239 700 m 1,0,-1
 1239 555 l 1,1,-1
 867 555 l 1,2,-1
 867 -615 l 1,3,-1
 722 -615 l 1,4,-1
 722 555 l 1,5,-1
 507 555 l 1,6,-1
 507 -615 l 1,7,-1
 362 -615 l 1,8,-1
 362 700 l 1,9,-1
 1239 700 l 1,0,-1
EndSplineSet
Validated: 1
EndChar

StartChar: uni2554
Encoding: 9556 9556 340
Width: 1229
GlyphClass: 2
Flags: W
LayerCount: 2
Fore
SplineSet
362 880 m 1,0,-1
 1239 880 l 1,1,-1
 1239 735 l 1,2,-1
 507 735 l 1,3,-1
 507 -615 l 1,4,-1
 362 -615 l 1,5,-1
 362 880 l 1,0,-1
722 520 m 1,6,-1
 1239 520 l 1,7,-1
 1239 375 l 1,8,-1
 867 375 l 1,9,-1
 867 -615 l 1,10,-1
 722 -615 l 1,11,-1
 722 520 l 1,6,-1
EndSplineSet
Validated: 1
EndChar

StartChar: uni2555
Encoding: 9557 9557 341
Width: 1229
GlyphClass: 2
Flags: W
LayerCount: 2
Fore
SplineSet
-10 375 m 1,0,-1
 -10 520 l 1,1,-1
 542 520 l 1,2,-1
 542 735 l 1,3,-1
 -10 735 l 1,4,-1
 -10 880 l 1,5,-1
 687 880 l 1,6,-1
 687 -615 l 1,7,-1
 542 -615 l 1,8,-1
 542 375 l 1,9,-1
 -10 375 l 1,0,-1
EndSplineSet
Validated: 1
EndChar

StartChar: uni2556
Encoding: 9558 9558 342
Width: 1229
GlyphClass: 2
Flags: W
LayerCount: 2
Fore
SplineSet
-10 555 m 1,0,-1
 -10 700 l 1,1,-1
 867 700 l 1,2,-1
 867 -615 l 1,3,-1
 722 -615 l 1,4,-1
 722 555 l 1,5,-1
 507 555 l 1,6,-1
 507 -615 l 1,7,-1
 362 -615 l 1,8,-1
 362 555 l 1,9,-1
 -10 555 l 1,0,-1
EndSplineSet
Validated: 1
EndChar

StartChar: uni2557
Encoding: 9559 9559 343
Width: 1229
GlyphClass: 2
Flags: W
LayerCount: 2
Fore
SplineSet
867 880 m 1,0,-1
 867 -615 l 1,1,-1
 722 -615 l 1,2,-1
 722 735 l 1,3,-1
 -10 735 l 1,4,-1
 -10 880 l 1,5,-1
 867 880 l 1,0,-1
507 -615 m 1,6,-1
 362 -615 l 1,7,-1
 362 375 l 1,8,-1
 -10 375 l 1,9,-1
 -10 520 l 1,10,-1
 507 520 l 1,11,-1
 507 -615 l 1,6,-1
EndSplineSet
Validated: 1
EndChar

StartChar: uni2558
Encoding: 9560 9560 344
Width: 1229
GlyphClass: 2
Flags: W
LayerCount: 2
Fore
SplineSet
542 1705 m 1,0,-1
 687 1705 l 1,1,-1
 687 880 l 1,2,-1
 1239 880 l 1,3,-1
 1239 735 l 1,4,-1
 687 735 l 1,5,-1
 687 520 l 1,6,-1
 1239 520 l 1,7,-1
 1239 375 l 1,8,-1
 542 375 l 1,9,-1
 542 1705 l 1,0,-1
EndSplineSet
Validated: 1
EndChar

StartChar: uni2559
Encoding: 9561 9561 345
Width: 1229
GlyphClass: 2
Flags: W
LayerCount: 2
Fore
SplineSet
722 1705 m 1,0,-1
 867 1705 l 1,1,-1
 867 700 l 1,2,-1
 1239 700 l 1,3,-1
 1239 555 l 1,4,-1
 362 555 l 1,5,-1
 362 1705 l 1,6,-1
 507 1705 l 1,7,-1
 507 700 l 1,8,-1
 722 700 l 1,9,-1
 722 1705 l 1,0,-1
EndSplineSet
Validated: 1
EndChar

StartChar: uni255A
Encoding: 9562 9562 346
Width: 1229
GlyphClass: 2
Flags: W
LayerCount: 2
Fore
SplineSet
362 1705 m 1,0,-1
 507 1705 l 1,1,-1
 507 520 l 1,2,-1
 1239 520 l 1,3,-1
 1239 375 l 1,4,-1
 362 375 l 1,5,-1
 362 1705 l 1,0,-1
722 1705 m 1,6,-1
 867 1705 l 1,7,-1
 867 880 l 1,8,-1
 1239 880 l 1,9,-1
 1239 735 l 1,10,-1
 722 735 l 1,11,-1
 722 1705 l 1,6,-1
EndSplineSet
Validated: 1
EndChar

StartChar: uni255B
Encoding: 9563 9563 347
Width: 1229
GlyphClass: 2
Flags: W
LayerCount: 2
Fore
SplineSet
-10 375 m 1,0,-1
 -10 520 l 1,1,-1
 542 520 l 1,2,-1
 542 735 l 1,3,-1
 -10 735 l 1,4,-1
 -10 880 l 1,5,-1
 542 880 l 1,6,-1
 542 1705 l 1,7,-1
 687 1705 l 1,8,-1
 687 375 l 1,9,-1
 -10 375 l 1,0,-1
EndSplineSet
Validated: 1
EndChar

StartChar: uni255C
Encoding: 9564 9564 348
Width: 1229
GlyphClass: 2
Flags: W
LayerCount: 2
Fore
SplineSet
867 555 m 1,0,-1
 -10 555 l 1,1,-1
 -10 700 l 1,2,-1
 362 700 l 1,3,-1
 362 1705 l 1,4,-1
 507 1705 l 1,5,-1
 507 700 l 1,6,-1
 722 700 l 1,7,-1
 722 1705 l 1,8,-1
 867 1705 l 1,9,-1
 867 555 l 1,0,-1
EndSplineSet
Validated: 1
EndChar

StartChar: uni255D
Encoding: 9565 9565 349
Width: 1229
GlyphClass: 2
Flags: W
LayerCount: 2
Fore
SplineSet
867 375 m 1,0,-1
 -10 375 l 1,1,-1
 -10 520 l 1,2,-1
 722 520 l 1,3,-1
 722 1705 l 1,4,-1
 867 1705 l 1,5,-1
 867 375 l 1,0,-1
362 1705 m 1,6,-1
 507 1705 l 1,7,-1
 507 735 l 1,8,-1
 -10 735 l 1,9,-1
 -10 880 l 1,10,-1
 362 880 l 1,11,-1
 362 1705 l 1,6,-1
EndSplineSet
Validated: 1
EndChar

StartChar: uni255E
Encoding: 9566 9566 350
Width: 1229
GlyphClass: 2
Flags: W
LayerCount: 2
Fore
SplineSet
542 1705 m 1,0,-1
 687 1705 l 1,1,-1
 687 880 l 1,2,-1
 1239 880 l 1,3,-1
 1239 735 l 1,4,-1
 687 735 l 1,5,-1
 687 520 l 1,6,-1
 1239 520 l 1,7,-1
 1239 375 l 1,8,-1
 687 375 l 1,9,-1
 687 -615 l 1,10,-1
 542 -615 l 1,11,-1
 542 1705 l 1,0,-1
EndSplineSet
Validated: 1
EndChar

StartChar: uni255F
Encoding: 9567 9567 351
Width: 1229
GlyphClass: 2
Flags: W
LayerCount: 2
Fore
SplineSet
722 1705 m 1,0,-1
 867 1705 l 1,1,-1
 867 700 l 1,2,-1
 1239 700 l 1,3,-1
 1239 555 l 1,4,-1
 867 555 l 1,5,-1
 867 -615 l 1,6,-1
 722 -615 l 1,7,-1
 722 1705 l 1,0,-1
362 1705 m 1,8,-1
 507 1705 l 1,9,-1
 507 -615 l 1,10,-1
 362 -615 l 1,11,-1
 362 1705 l 1,8,-1
EndSplineSet
Validated: 1
EndChar

StartChar: uni2560
Encoding: 9568 9568 352
Width: 1229
GlyphClass: 2
Flags: W
LayerCount: 2
Fore
SplineSet
507 -615 m 1,0,-1
 362 -615 l 1,1,-1
 362 1705 l 1,2,-1
 507 1705 l 1,3,-1
 507 -615 l 1,0,-1
722 520 m 1,4,-1
 1239 520 l 1,5,-1
 1239 375 l 1,6,-1
 867 375 l 1,7,-1
 867 -615 l 1,8,-1
 722 -615 l 1,9,-1
 722 520 l 1,4,-1
722 1705 m 1,10,-1
 867 1705 l 1,11,-1
 867 880 l 1,12,-1
 1239 880 l 1,13,-1
 1239 735 l 1,14,-1
 722 735 l 1,15,-1
 722 1705 l 1,10,-1
EndSplineSet
Validated: 1
EndChar

StartChar: uni2561
Encoding: 9569 9569 353
Width: 1229
GlyphClass: 2
Flags: W
LayerCount: 2
Fore
SplineSet
-10 375 m 1,0,-1
 -10 520 l 1,1,-1
 542 520 l 1,2,-1
 542 735 l 1,3,-1
 -10 735 l 1,4,-1
 -10 880 l 1,5,-1
 542 880 l 1,6,-1
 542 1705 l 1,7,-1
 687 1705 l 1,8,-1
 687 -615 l 1,9,-1
 542 -615 l 1,10,-1
 542 375 l 1,11,-1
 -10 375 l 1,0,-1
EndSplineSet
Validated: 1
EndChar

StartChar: uni2562
Encoding: 9570 9570 354
Width: 1229
GlyphClass: 2
Flags: W
LayerCount: 2
Fore
SplineSet
-10 555 m 1,0,-1
 -10 700 l 1,1,-1
 362 700 l 1,2,-1
 362 1705 l 1,3,-1
 507 1705 l 1,4,-1
 507 -615 l 1,5,-1
 362 -615 l 1,6,-1
 362 555 l 1,7,-1
 -10 555 l 1,0,-1
722 1705 m 1,8,-1
 867 1705 l 1,9,-1
 867 -615 l 1,10,-1
 722 -615 l 1,11,-1
 722 1705 l 1,8,-1
EndSplineSet
Validated: 1
EndChar

StartChar: uni2563
Encoding: 9571 9571 355
Width: 1229
GlyphClass: 2
Flags: W
LayerCount: 2
Fore
SplineSet
722 1705 m 1,0,-1
 867 1705 l 1,1,-1
 867 -615 l 1,2,-1
 722 -615 l 1,3,-1
 722 1705 l 1,0,-1
362 1705 m 1,4,-1
 507 1705 l 1,5,-1
 507 735 l 1,6,-1
 -10 735 l 1,7,-1
 -10 880 l 1,8,-1
 362 880 l 1,9,-1
 362 1705 l 1,4,-1
507 -615 m 1,10,-1
 362 -615 l 1,11,-1
 362 375 l 1,12,-1
 -10 375 l 1,13,-1
 -10 520 l 1,14,-1
 507 520 l 1,15,-1
 507 -615 l 1,10,-1
EndSplineSet
Validated: 1
EndChar

StartChar: uni2564
Encoding: 9572 9572 356
Width: 1229
GlyphClass: 2
Flags: W
LayerCount: 2
Fore
SplineSet
-10 375 m 1,0,-1
 -10 520 l 1,1,-1
 1239 520 l 1,2,-1
 1239 375 l 1,3,-1
 687 375 l 1,4,-1
 687 -615 l 1,5,-1
 542 -615 l 1,6,-1
 542 375 l 1,7,-1
 -10 375 l 1,0,-1
-10 735 m 1,8,-1
 -10 880 l 1,9,-1
 1239 880 l 1,10,-1
 1239 735 l 1,11,-1
 -10 735 l 1,8,-1
EndSplineSet
Validated: 1
EndChar

StartChar: uni2565
Encoding: 9573 9573 357
Width: 1229
GlyphClass: 2
Flags: W
LayerCount: 2
Fore
SplineSet
-10 555 m 1,0,-1
 -10 700 l 1,1,-1
 1239 700 l 1,2,-1
 1239 555 l 1,3,-1
 867 555 l 1,4,-1
 867 -615 l 1,5,-1
 722 -615 l 1,6,-1
 722 555 l 1,7,-1
 507 555 l 1,8,-1
 507 -615 l 1,9,-1
 362 -615 l 1,10,-1
 362 555 l 1,11,-1
 -10 555 l 1,0,-1
EndSplineSet
Validated: 1
EndChar

StartChar: uni2566
Encoding: 9574 9574 358
Width: 1229
GlyphClass: 2
Flags: W
LayerCount: 2
Fore
SplineSet
507 -615 m 1,0,-1
 362 -615 l 1,1,-1
 362 375 l 1,2,-1
 -10 375 l 1,3,-1
 -10 520 l 1,4,-1
 507 520 l 1,5,-1
 507 -615 l 1,0,-1
722 520 m 1,6,-1
 1239 520 l 1,7,-1
 1239 375 l 1,8,-1
 867 375 l 1,9,-1
 867 -615 l 1,10,-1
 722 -615 l 1,11,-1
 722 520 l 1,6,-1
1239 880 m 1,12,-1
 1239 735 l 1,13,-1
 -10 735 l 1,14,-1
 -10 880 l 1,15,-1
 1239 880 l 1,12,-1
EndSplineSet
Validated: 1
EndChar

StartChar: uni2567
Encoding: 9575 9575 359
Width: 1229
GlyphClass: 2
Flags: W
LayerCount: 2
Fore
SplineSet
-10 735 m 1,0,-1
 -10 880 l 1,1,-1
 542 880 l 1,2,-1
 542 1705 l 1,3,-1
 687 1705 l 1,4,-1
 687 880 l 1,5,-1
 1239 880 l 1,6,-1
 1239 735 l 1,7,-1
 -10 735 l 1,0,-1
-10 375 m 1,8,-1
 -10 520 l 1,9,-1
 1239 520 l 1,10,-1
 1239 375 l 1,11,-1
 -10 375 l 1,8,-1
EndSplineSet
Validated: 1
EndChar

StartChar: uni2568
Encoding: 9576 9576 360
Width: 1229
GlyphClass: 2
Flags: W
LayerCount: 2
Fore
SplineSet
-10 555 m 1,0,-1
 -10 700 l 1,1,-1
 362 700 l 1,2,-1
 362 1705 l 1,3,-1
 507 1705 l 1,4,-1
 507 700 l 1,5,-1
 722 700 l 1,6,-1
 722 1705 l 1,7,-1
 867 1705 l 1,8,-1
 867 700 l 1,9,-1
 1239 700 l 1,10,-1
 1239 555 l 1,11,-1
 -10 555 l 1,0,-1
EndSplineSet
Validated: 1
EndChar

StartChar: uni2569
Encoding: 9577 9577 361
Width: 1229
GlyphClass: 2
Flags: W
LayerCount: 2
Fore
SplineSet
722 1705 m 1,0,-1
 867 1705 l 1,1,-1
 867 880 l 1,2,-1
 1239 880 l 1,3,-1
 1239 735 l 1,4,-1
 722 735 l 1,5,-1
 722 1705 l 1,0,-1
362 1705 m 1,6,-1
 507 1705 l 1,7,-1
 507 735 l 1,8,-1
 -10 735 l 1,9,-1
 -10 880 l 1,10,-1
 362 880 l 1,11,-1
 362 1705 l 1,6,-1
-10 375 m 1,12,-1
 -10 520 l 1,13,-1
 1239 520 l 1,14,-1
 1239 375 l 1,15,-1
 -10 375 l 1,12,-1
EndSplineSet
Validated: 1
EndChar

StartChar: uni256A
Encoding: 9578 9578 362
Width: 1229
GlyphClass: 2
Flags: W
LayerCount: 2
Fore
SplineSet
-10 375 m 1,0,-1
 -10 520 l 1,1,-1
 542 520 l 1,2,-1
 542 735 l 1,3,-1
 -10 735 l 1,4,-1
 -10 880 l 1,5,-1
 542 880 l 1,6,-1
 542 1705 l 1,7,-1
 687 1705 l 1,8,-1
 687 880 l 1,9,-1
 1239 880 l 1,10,-1
 1239 735 l 1,11,-1
 687 735 l 1,12,-1
 687 520 l 1,13,-1
 1239 520 l 1,14,-1
 1239 375 l 1,15,-1
 687 375 l 1,16,-1
 687 -615 l 1,17,-1
 542 -615 l 1,18,-1
 542 375 l 1,19,-1
 -10 375 l 1,0,-1
EndSplineSet
Validated: 1
EndChar

StartChar: uni256B
Encoding: 9579 9579 363
Width: 1229
GlyphClass: 2
Flags: W
LayerCount: 2
Fore
SplineSet
722 1705 m 1,0,-1
 867 1705 l 1,1,-1
 867 700 l 1,2,-1
 1239 700 l 1,3,-1
 1239 555 l 1,4,-1
 867 555 l 1,5,-1
 867 -615 l 1,6,-1
 722 -615 l 1,7,-1
 722 555 l 1,8,-1
 507 555 l 1,9,-1
 507 -615 l 1,10,-1
 362 -615 l 1,11,-1
 362 555 l 1,12,-1
 -10 555 l 1,13,-1
 -10 700 l 1,14,-1
 362 700 l 1,15,-1
 362 1705 l 1,16,-1
 507 1705 l 1,17,-1
 507 700 l 1,18,-1
 722 700 l 1,19,-1
 722 1705 l 1,0,-1
EndSplineSet
Validated: 1
EndChar

StartChar: uni256C
Encoding: 9580 9580 364
Width: 1229
GlyphClass: 2
Flags: W
LayerCount: 2
Fore
SplineSet
722 1705 m 1,0,-1
 867 1705 l 1,1,-1
 867 880 l 1,2,-1
 1239 880 l 1,3,-1
 1239 735 l 1,4,-1
 722 735 l 1,5,-1
 722 1705 l 1,0,-1
507 -615 m 1,6,-1
 362 -615 l 1,7,-1
 362 375 l 1,8,-1
 -10 375 l 1,9,-1
 -10 520 l 1,10,-1
 507 520 l 1,11,-1
 507 -615 l 1,6,-1
722 520 m 1,12,-1
 1239 520 l 1,13,-1
 1239 375 l 1,14,-1
 867 375 l 1,15,-1
 867 -615 l 1,16,-1
 722 -615 l 1,17,-1
 722 520 l 1,12,-1
362 1705 m 1,18,-1
 507 1705 l 1,19,-1
 507 735 l 1,20,-1
 -10 735 l 1,21,-1
 -10 880 l 1,22,-1
 362 880 l 1,23,-1
 362 1705 l 1,18,-1
EndSplineSet
Validated: 1
EndChar

StartChar: upblock
Encoding: 9600 9600 365
Width: 1229
GlyphClass: 2
Flags: W
LayerCount: 2
Fore
SplineSet
1229 627 m 1,0,-1
 0 627 l 1,1,-1
 0 1705 l 1,2,-1
 1229 1705 l 1,3,-1
 1229 627 l 1,0,-1
EndSplineSet
Validated: 1
EndChar

StartChar: dnblock
Encoding: 9604 9604 366
Width: 1229
GlyphClass: 2
Flags: W
LayerCount: 2
Fore
SplineSet
1229 -615 m 1,0,-1
 0 -615 l 1,1,-1
 0 627 l 1,2,-1
 1229 627 l 1,3,-1
 1229 -615 l 1,0,-1
EndSplineSet
Validated: 1
EndChar

StartChar: block
Encoding: 9608 9608 367
Width: 1229
GlyphClass: 2
Flags: W
LayerCount: 2
Fore
SplineSet
1229 -615 m 1,0,-1
 0 -615 l 1,1,-1
 0 1705 l 1,2,-1
 1229 1705 l 1,3,-1
 1229 -615 l 1,0,-1
EndSplineSet
Validated: 1
EndChar

StartChar: lfblock
Encoding: 9612 9612 368
Width: 1229
GlyphClass: 2
Flags: W
LayerCount: 2
Fore
SplineSet
615 -615 m 1,0,-1
 0 -615 l 1,1,-1
 0 1705 l 1,2,-1
 615 1705 l 1,3,-1
 615 -615 l 1,0,-1
EndSplineSet
Validated: 1
EndChar

StartChar: rtblock
Encoding: 9616 9616 369
Width: 1229
GlyphClass: 2
Flags: W
LayerCount: 2
Fore
SplineSet
1229 -615 m 1,0,-1
 614 -615 l 1,1,-1
 614 1705 l 1,2,-1
 1229 1705 l 1,3,-1
 1229 -615 l 1,0,-1
EndSplineSet
Validated: 1
EndChar

StartChar: ltshade
Encoding: 9617 9617 370
Width: 1229
GlyphClass: 2
Flags: W
LayerCount: 2
Fore
SplineSet
0 1320 m 1,0,-1
 103 1320 l 1,1,-1
 103 1222 l 1,2,-1
 0 1222 l 1,3,-1
 0 1320 l 1,0,-1
410 1320 m 1,4,-1
 513 1320 l 1,5,-1
 513 1222 l 1,6,-1
 410 1222 l 1,7,-1
 410 1320 l 1,4,-1
820 1320 m 1,8,-1
 923 1320 l 1,9,-1
 923 1222 l 1,10,-1
 820 1222 l 1,11,-1
 820 1320 l 1,8,-1
205 1125 m 1,12,-1
 307 1125 l 1,13,-1
 307 1029 l 1,14,-1
 205 1029 l 1,15,-1
 205 1125 l 1,12,-1
615 1125 m 1,16,-1
 717 1125 l 1,17,-1
 717 1029 l 1,18,-1
 615 1029 l 1,19,-1
 615 1125 l 1,16,-1
1025 1125 m 1,20,-1
 1127 1125 l 1,21,-1
 1127 1029 l 1,22,-1
 1025 1029 l 1,23,-1
 1025 1125 l 1,20,-1
0 933 m 1,24,-1
 103 933 l 1,25,-1
 103 837 l 1,26,-1
 0 837 l 1,27,-1
 0 933 l 1,24,-1
410 933 m 1,28,-1
 513 933 l 1,29,-1
 513 837 l 1,30,-1
 410 837 l 1,31,-1
 410 933 l 1,28,-1
820 933 m 1,32,-1
 923 933 l 1,33,-1
 923 837 l 1,34,-1
 820 837 l 1,35,-1
 820 933 l 1,32,-1
205 738 m 1,36,-1
 307 738 l 1,37,-1
 307 642 l 1,38,-1
 205 642 l 1,39,-1
 205 738 l 1,36,-1
615 738 m 1,40,-1
 717 738 l 1,41,-1
 717 642 l 1,42,-1
 615 642 l 1,43,-1
 615 738 l 1,40,-1
1025 738 m 1,44,-1
 1127 738 l 1,45,-1
 1127 642 l 1,46,-1
 1025 642 l 1,47,-1
 1025 738 l 1,44,-1
0 546 m 1,48,-1
 103 546 l 1,49,-1
 103 450 l 1,50,-1
 0 450 l 1,51,-1
 0 546 l 1,48,-1
410 546 m 1,52,-1
 513 546 l 1,53,-1
 513 450 l 1,54,-1
 410 450 l 1,55,-1
 410 546 l 1,52,-1
820 546 m 1,56,-1
 923 546 l 1,57,-1
 923 450 l 1,58,-1
 820 450 l 1,59,-1
 820 546 l 1,56,-1
615 351 m 1,60,-1
 717 351 l 1,61,-1
 717 255 l 1,62,-1
 615 255 l 1,63,-1
 615 351 l 1,60,-1
1025 351 m 1,64,-1
 1127 351 l 1,65,-1
 1127 255 l 1,66,-1
 1025 255 l 1,67,-1
 1025 351 l 1,64,-1
205 351 m 1,68,-1
 307 351 l 1,69,-1
 307 255 l 1,70,-1
 205 255 l 1,71,-1
 205 351 l 1,68,-1
820 159 m 1,72,-1
 923 159 l 1,73,-1
 923 62 l 1,74,-1
 820 62 l 1,75,-1
 820 159 l 1,72,-1
410 159 m 1,76,-1
 513 159 l 1,77,-1
 513 62 l 1,78,-1
 410 62 l 1,79,-1
 410 159 l 1,76,-1
0 159 m 1,80,-1
 103 159 l 1,81,-1
 103 62 l 1,82,-1
 0 62 l 1,83,-1
 0 159 l 1,80,-1
205 -36 m 1,84,-1
 307 -36 l 1,85,-1
 307 -130 l 1,86,-1
 205 -130 l 1,87,-1
 205 -36 l 1,84,-1
615 -36 m 1,88,-1
 717 -36 l 1,89,-1
 717 -130 l 1,90,-1
 615 -130 l 1,91,-1
 615 -36 l 1,88,-1
1025 -36 m 1,92,-1
 1127 -36 l 1,93,-1
 1127 -130 l 1,94,-1
 1025 -130 l 1,95,-1
 1025 -36 l 1,92,-1
820 -228 m 1,96,-1
 923 -228 l 1,97,-1
 923 -325 l 1,98,-1
 820 -325 l 1,99,-1
 820 -228 l 1,96,-1
410 -228 m 1,100,-1
 513 -228 l 1,101,-1
 513 -325 l 1,102,-1
 410 -325 l 1,103,-1
 410 -228 l 1,100,-1
0 -228 m 1,104,-1
 103 -228 l 1,105,-1
 103 -325 l 1,106,-1
 0 -325 l 1,107,-1
 0 -228 l 1,104,-1
205 -421 m 1,108,-1
 307 -421 l 1,109,-1
 307 -517 l 1,110,-1
 205 -517 l 1,111,-1
 205 -421 l 1,108,-1
615 -421 m 1,112,-1
 717 -421 l 1,113,-1
 717 -517 l 1,114,-1
 615 -517 l 1,115,-1
 615 -421 l 1,112,-1
1025 -421 m 1,116,-1
 1127 -421 l 1,117,-1
 1127 -517 l 1,118,-1
 1025 -517 l 1,119,-1
 1025 -421 l 1,116,-1
205 1512 m 1,120,-1
 307 1512 l 1,121,-1
 307 1414 l 1,122,-1
 205 1414 l 1,123,-1
 205 1512 l 1,120,-1
615 1512 m 1,124,-1
 717 1512 l 1,125,-1
 717 1414 l 1,126,-1
 615 1414 l 1,127,-1
 615 1512 l 1,124,-1
1025 1512 m 1,128,-1
 1127 1512 l 1,129,-1
 1127 1414 l 1,130,-1
 1025 1414 l 1,131,-1
 1025 1512 l 1,128,-1
0 1705 m 1,132,-1
 103 1705 l 1,133,-1
 103 1609 l 1,134,-1
 0 1609 l 1,135,-1
 0 1705 l 1,132,-1
410 1705 m 1,136,-1
 513 1705 l 1,137,-1
 513 1609 l 1,138,-1
 410 1609 l 1,139,-1
 410 1705 l 1,136,-1
820 1705 m 1,140,-1
 923 1705 l 1,141,-1
 923 1609 l 1,142,-1
 820 1609 l 1,143,-1
 820 1705 l 1,140,-1
EndSplineSet
Validated: 1
EndChar

StartChar: shade
Encoding: 9618 9618 371
Width: 1229
GlyphClass: 2
Flags: W
LayerCount: 2
Fore
SplineSet
102 1320 m 1,0,-1
 205 1320 l 1,1,-1
 205 1222 l 1,2,-1
 102 1222 l 1,3,-1
 102 1320 l 1,0,-1
307 1320 m 1,4,-1
 410 1320 l 1,5,-1
 410 1222 l 1,6,-1
 307 1222 l 1,7,-1
 307 1320 l 1,4,-1
512 1320 m 1,8,-1
 615 1320 l 1,9,-1
 615 1222 l 1,10,-1
 512 1222 l 1,11,-1
 512 1320 l 1,8,-1
717 1320 m 1,12,-1
 820 1320 l 1,13,-1
 820 1222 l 1,14,-1
 717 1222 l 1,15,-1
 717 1320 l 1,12,-1
922 1320 m 1,16,-1
 1025 1320 l 1,17,-1
 1025 1222 l 1,18,-1
 922 1222 l 1,19,-1
 922 1320 l 1,16,-1
1127 1320 m 1,20,-1
 1230 1320 l 1,21,-1
 1230 1222 l 1,22,-1
 1127 1222 l 1,23,-1
 1127 1320 l 1,20,-1
0 1125 m 1,24,-1
 102 1125 l 1,25,-1
 102 1029 l 1,26,-1
 0 1029 l 1,27,-1
 0 1125 l 1,24,-1
205 1125 m 1,28,-1
 307 1125 l 1,29,-1
 307 1029 l 1,30,-1
 205 1029 l 1,31,-1
 205 1125 l 1,28,-1
410 1125 m 1,32,-1
 512 1125 l 1,33,-1
 512 1029 l 1,34,-1
 410 1029 l 1,35,-1
 410 1125 l 1,32,-1
615 1125 m 1,36,-1
 717 1125 l 1,37,-1
 717 1029 l 1,38,-1
 615 1029 l 1,39,-1
 615 1125 l 1,36,-1
820 1125 m 1,40,-1
 922 1125 l 1,41,-1
 922 1029 l 1,42,-1
 820 1029 l 1,43,-1
 820 1125 l 1,40,-1
1025 1125 m 1,44,-1
 1127 1125 l 1,45,-1
 1127 1029 l 1,46,-1
 1025 1029 l 1,47,-1
 1025 1125 l 1,44,-1
102 933 m 1,48,-1
 205 933 l 1,49,-1
 205 837 l 1,50,-1
 102 837 l 1,51,-1
 102 933 l 1,48,-1
307 933 m 1,52,-1
 410 933 l 1,53,-1
 410 837 l 1,54,-1
 307 837 l 1,55,-1
 307 933 l 1,52,-1
512 933 m 1,56,-1
 615 933 l 1,57,-1
 615 837 l 1,58,-1
 512 837 l 1,59,-1
 512 933 l 1,56,-1
717 933 m 1,60,-1
 820 933 l 1,61,-1
 820 837 l 1,62,-1
 717 837 l 1,63,-1
 717 933 l 1,60,-1
922 933 m 1,64,-1
 1025 933 l 1,65,-1
 1025 837 l 1,66,-1
 922 837 l 1,67,-1
 922 933 l 1,64,-1
1127 933 m 1,68,-1
 1230 933 l 1,69,-1
 1230 837 l 1,70,-1
 1127 837 l 1,71,-1
 1127 933 l 1,68,-1
0 738 m 1,72,-1
 102 738 l 1,73,-1
 102 642 l 1,74,-1
 0 642 l 1,75,-1
 0 738 l 1,72,-1
205 738 m 1,76,-1
 307 738 l 1,77,-1
 307 642 l 1,78,-1
 205 642 l 1,79,-1
 205 738 l 1,76,-1
410 738 m 1,80,-1
 512 738 l 1,81,-1
 512 642 l 1,82,-1
 410 642 l 1,83,-1
 410 738 l 1,80,-1
615 738 m 1,84,-1
 717 738 l 1,85,-1
 717 642 l 1,86,-1
 615 642 l 1,87,-1
 615 738 l 1,84,-1
820 738 m 1,88,-1
 922 738 l 1,89,-1
 922 642 l 1,90,-1
 820 642 l 1,91,-1
 820 738 l 1,88,-1
1025 738 m 1,92,-1
 1127 738 l 1,93,-1
 1127 642 l 1,94,-1
 1025 642 l 1,95,-1
 1025 738 l 1,92,-1
102 546 m 1,96,-1
 205 546 l 1,97,-1
 205 450 l 1,98,-1
 102 450 l 1,99,-1
 102 546 l 1,96,-1
307 546 m 1,100,-1
 410 546 l 1,101,-1
 410 450 l 1,102,-1
 307 450 l 1,103,-1
 307 546 l 1,100,-1
512 546 m 1,104,-1
 615 546 l 1,105,-1
 615 450 l 1,106,-1
 512 450 l 1,107,-1
 512 546 l 1,104,-1
717 546 m 1,108,-1
 820 546 l 1,109,-1
 820 450 l 1,110,-1
 717 450 l 1,111,-1
 717 546 l 1,108,-1
922 546 m 1,112,-1
 1025 546 l 1,113,-1
 1025 450 l 1,114,-1
 922 450 l 1,115,-1
 922 546 l 1,112,-1
1127 546 m 1,116,-1
 1230 546 l 1,117,-1
 1230 450 l 1,118,-1
 1127 450 l 1,119,-1
 1127 546 l 1,116,-1
0 351 m 1,120,-1
 102 351 l 1,121,-1
 102 255 l 1,122,-1
 0 255 l 1,123,-1
 0 351 l 1,120,-1
410 351 m 1,124,-1
 512 351 l 1,125,-1
 512 255 l 1,126,-1
 410 255 l 1,127,-1
 410 351 l 1,124,-1
615 351 m 1,128,-1
 717 351 l 1,129,-1
 717 255 l 1,130,-1
 615 255 l 1,131,-1
 615 351 l 1,128,-1
820 351 m 1,132,-1
 922 351 l 1,133,-1
 922 255 l 1,134,-1
 820 255 l 1,135,-1
 820 351 l 1,132,-1
1025 351 m 1,136,-1
 1127 351 l 1,137,-1
 1127 255 l 1,138,-1
 1025 255 l 1,139,-1
 1025 351 l 1,136,-1
205 351 m 1,140,-1
 307 351 l 1,141,-1
 307 255 l 1,142,-1
 205 255 l 1,143,-1
 205 351 l 1,140,-1
1127 159 m 1,144,-1
 1230 159 l 1,145,-1
 1230 62 l 1,146,-1
 1127 62 l 1,147,-1
 1127 159 l 1,144,-1
922 159 m 1,148,-1
 1025 159 l 1,149,-1
 1025 62 l 1,150,-1
 922 62 l 1,151,-1
 922 159 l 1,148,-1
717 159 m 1,152,-1
 820 159 l 1,153,-1
 820 62 l 1,154,-1
 717 62 l 1,155,-1
 717 159 l 1,152,-1
512 159 m 1,156,-1
 615 159 l 1,157,-1
 615 62 l 1,158,-1
 512 62 l 1,159,-1
 512 159 l 1,156,-1
307 159 m 1,160,-1
 410 159 l 1,161,-1
 410 62 l 1,162,-1
 307 62 l 1,163,-1
 307 159 l 1,160,-1
102 159 m 1,164,-1
 205 159 l 1,165,-1
 205 62 l 1,166,-1
 102 62 l 1,167,-1
 102 159 l 1,164,-1
0 -36 m 1,168,-1
 102 -36 l 1,169,-1
 102 -130 l 1,170,-1
 0 -130 l 1,171,-1
 0 -36 l 1,168,-1
205 -36 m 1,172,-1
 307 -36 l 1,173,-1
 307 -130 l 1,174,-1
 205 -130 l 1,175,-1
 205 -36 l 1,172,-1
410 -36 m 1,176,-1
 512 -36 l 1,177,-1
 512 -130 l 1,178,-1
 410 -130 l 1,179,-1
 410 -36 l 1,176,-1
615 -36 m 1,180,-1
 717 -36 l 1,181,-1
 717 -130 l 1,182,-1
 615 -130 l 1,183,-1
 615 -36 l 1,180,-1
820 -36 m 1,184,-1
 922 -36 l 1,185,-1
 922 -130 l 1,186,-1
 820 -130 l 1,187,-1
 820 -36 l 1,184,-1
1025 -36 m 1,188,-1
 1127 -36 l 1,189,-1
 1127 -130 l 1,190,-1
 1025 -130 l 1,191,-1
 1025 -36 l 1,188,-1
1127 -228 m 1,192,-1
 1230 -228 l 1,193,-1
 1230 -325 l 1,194,-1
 1127 -325 l 1,195,-1
 1127 -228 l 1,192,-1
922 -228 m 1,196,-1
 1025 -228 l 1,197,-1
 1025 -325 l 1,198,-1
 922 -325 l 1,199,-1
 922 -228 l 1,196,-1
717 -228 m 1,200,-1
 820 -228 l 1,201,-1
 820 -325 l 1,202,-1
 717 -325 l 1,203,-1
 717 -228 l 1,200,-1
512 -228 m 1,204,-1
 615 -228 l 1,205,-1
 615 -325 l 1,206,-1
 512 -325 l 1,207,-1
 512 -228 l 1,204,-1
307 -228 m 1,208,-1
 410 -228 l 1,209,-1
 410 -325 l 1,210,-1
 307 -325 l 1,211,-1
 307 -228 l 1,208,-1
102 -228 m 1,212,-1
 205 -228 l 1,213,-1
 205 -325 l 1,214,-1
 102 -325 l 1,215,-1
 102 -228 l 1,212,-1
0 -421 m 1,216,-1
 102 -421 l 1,217,-1
 102 -517 l 1,218,-1
 0 -517 l 1,219,-1
 0 -421 l 1,216,-1
205 -421 m 1,220,-1
 307 -421 l 1,221,-1
 307 -517 l 1,222,-1
 205 -517 l 1,223,-1
 205 -421 l 1,220,-1
410 -421 m 1,224,-1
 512 -421 l 1,225,-1
 512 -517 l 1,226,-1
 410 -517 l 1,227,-1
 410 -421 l 1,224,-1
615 -421 m 1,228,-1
 717 -421 l 1,229,-1
 717 -517 l 1,230,-1
 615 -517 l 1,231,-1
 615 -421 l 1,228,-1
820 -421 m 1,232,-1
 922 -421 l 1,233,-1
 922 -517 l 1,234,-1
 820 -517 l 1,235,-1
 820 -421 l 1,232,-1
1025 -421 m 1,236,-1
 1127 -421 l 1,237,-1
 1127 -517 l 1,238,-1
 1025 -517 l 1,239,-1
 1025 -421 l 1,236,-1
0 1512 m 1,240,-1
 102 1512 l 1,241,-1
 102 1414 l 1,242,-1
 0 1414 l 1,243,-1
 0 1512 l 1,240,-1
205 1512 m 1,244,-1
 307 1512 l 1,245,-1
 307 1414 l 1,246,-1
 205 1414 l 1,247,-1
 205 1512 l 1,244,-1
410 1512 m 1,248,-1
 512 1512 l 1,249,-1
 512 1414 l 1,250,-1
 410 1414 l 1,251,-1
 410 1512 l 1,248,-1
615 1512 m 1,252,-1
 717 1512 l 1,253,-1
 717 1414 l 1,254,-1
 615 1414 l 1,255,-1
 615 1512 l 1,252,-1
820 1512 m 1,256,-1
 922 1512 l 1,257,-1
 922 1414 l 1,258,-1
 820 1414 l 1,259,-1
 820 1512 l 1,256,-1
1025 1512 m 1,260,-1
 1127 1512 l 1,261,-1
 1127 1414 l 1,262,-1
 1025 1414 l 1,263,-1
 1025 1512 l 1,260,-1
102 1705 m 1,264,-1
 205 1705 l 1,265,-1
 205 1609 l 1,266,-1
 102 1609 l 1,267,-1
 102 1705 l 1,264,-1
307 1705 m 1,268,-1
 410 1705 l 1,269,-1
 410 1609 l 1,270,-1
 307 1609 l 1,271,-1
 307 1705 l 1,268,-1
512 1705 m 1,272,-1
 615 1705 l 1,273,-1
 615 1609 l 1,274,-1
 512 1609 l 1,275,-1
 512 1705 l 1,272,-1
717 1705 m 1,276,-1
 820 1705 l 1,277,-1
 820 1609 l 1,278,-1
 717 1609 l 1,279,-1
 717 1705 l 1,276,-1
922 1705 m 1,280,-1
 1025 1705 l 1,281,-1
 1025 1609 l 1,282,-1
 922 1609 l 1,283,-1
 922 1705 l 1,280,-1
1127 1705 m 1,284,-1
 1230 1705 l 1,285,-1
 1230 1609 l 1,286,-1
 1127 1609 l 1,287,-1
 1127 1705 l 1,284,-1
EndSplineSet
Validated: 1
EndChar

StartChar: dkshade
Encoding: 9619 9619 372
Width: 1229
GlyphClass: 2
Flags: W
LayerCount: 2
Fore
SplineSet
1230 -615 m 1,0,-1
 0 -615 l 1,1,-1
 0 -325 l 1,2,-1
 102 -325 l 1,3,-1
 102 -228 l 1,4,-1
 0 -228 l 1,5,-1
 0 62 l 1,6,-1
 102 62 l 1,7,-1
 102 159 l 1,8,-1
 0 159 l 1,9,-1
 0 450 l 1,10,-1
 102 450 l 1,11,-1
 102 546 l 1,12,-1
 0 546 l 1,13,-1
 0 835 l 1,14,-1
 102 835 l 1,15,-1
 102 933 l 1,16,-1
 0 933 l 1,17,-1
 0 1222 l 1,18,-1
 102 1222 l 1,19,-1
 102 1320 l 1,20,-1
 0 1320 l 1,21,-1
 0 1609 l 1,22,-1
 102 1609 l 1,23,-1
 102 1705 l 1,24,-1
 205 1705 l 1,25,-1
 205 1609 l 1,26,-1
 307 1609 l 1,27,-1
 307 1705 l 1,28,-1
 410 1705 l 1,29,-1
 410 1609 l 1,30,-1
 512 1609 l 1,31,-1
 512 1705 l 1,32,-1
 615 1705 l 1,33,-1
 615 1609 l 1,34,-1
 717 1609 l 1,35,-1
 717 1705 l 1,36,-1
 820 1705 l 1,37,-1
 820 1609 l 1,38,-1
 922 1609 l 1,39,-1
 922 1705 l 1,40,-1
 1025 1705 l 1,41,-1
 1025 1609 l 1,42,-1
 1127 1609 l 1,43,-1
 1127 1705 l 1,44,-1
 1230 1705 l 1,45,-1
 1230 1512 l 1,46,-1
 1127 1512 l 1,47,-1
 1127 1414 l 1,48,-1
 1230 1414 l 1,49,-1
 1230 1125 l 1,50,-1
 1127 1125 l 1,51,-1
 1127 1029 l 1,52,-1
 1230 1029 l 1,53,-1
 1230 738 l 1,54,-1
 1127 738 l 1,55,-1
 1127 642 l 1,56,-1
 1230 642 l 1,57,-1
 1230 351 l 1,58,-1
 1127 351 l 1,59,-1
 1127 255 l 1,60,-1
 1230 255 l 1,61,-1
 1230 -36 l 1,62,-1
 1127 -36 l 1,63,-1
 1127 -130 l 1,64,-1
 1230 -130 l 1,65,-1
 1230 -421 l 1,66,-1
 1127 -421 l 1,67,-1
 1127 -517 l 1,68,-1
 1230 -517 l 1,69,-1
 1230 -615 l 1,0,-1
102 1125 m 1,70,-1
 102 1029 l 1,71,-1
 205 1029 l 1,72,-1
 205 1125 l 1,73,-1
 102 1125 l 1,70,-1
307 1125 m 1,74,-1
 307 1029 l 1,75,-1
 410 1029 l 1,76,-1
 410 1125 l 1,77,-1
 307 1125 l 1,74,-1
512 1125 m 1,78,-1
 512 1029 l 1,79,-1
 615 1029 l 1,80,-1
 615 1125 l 1,81,-1
 512 1125 l 1,78,-1
717 1125 m 1,82,-1
 717 1029 l 1,83,-1
 820 1029 l 1,84,-1
 820 1125 l 1,85,-1
 717 1125 l 1,82,-1
922 933 m 1,86,-1
 820 933 l 1,87,-1
 820 835 l 1,88,-1
 922 835 l 1,89,-1
 922 933 l 1,86,-1
717 933 m 1,90,-1
 615 933 l 1,91,-1
 615 835 l 1,92,-1
 717 835 l 1,93,-1
 717 933 l 1,90,-1
512 933 m 1,94,-1
 410 933 l 1,95,-1
 410 835 l 1,96,-1
 512 835 l 1,97,-1
 512 933 l 1,94,-1
307 933 m 1,98,-1
 205 933 l 1,99,-1
 205 835 l 1,100,-1
 307 835 l 1,101,-1
 307 933 l 1,98,-1
102 738 m 1,102,-1
 102 642 l 1,103,-1
 205 642 l 1,104,-1
 205 738 l 1,105,-1
 102 738 l 1,102,-1
307 738 m 1,106,-1
 307 642 l 1,107,-1
 410 642 l 1,108,-1
 410 738 l 1,109,-1
 307 738 l 1,106,-1
512 738 m 1,110,-1
 512 642 l 1,111,-1
 615 642 l 1,112,-1
 615 738 l 1,113,-1
 512 738 l 1,110,-1
717 738 m 1,114,-1
 717 642 l 1,115,-1
 820 642 l 1,116,-1
 820 738 l 1,117,-1
 717 738 l 1,114,-1
307 546 m 1,118,-1
 205 546 l 1,119,-1
 205 450 l 1,120,-1
 307 450 l 1,121,-1
 307 546 l 1,118,-1
410 546 m 1,122,-1
 410 450 l 1,123,-1
 512 450 l 1,124,-1
 512 546 l 1,125,-1
 410 546 l 1,122,-1
615 546 m 1,126,-1
 615 450 l 1,127,-1
 717 450 l 1,128,-1
 717 546 l 1,129,-1
 615 546 l 1,126,-1
820 546 m 1,130,-1
 820 450 l 1,131,-1
 922 450 l 1,132,-1
 922 546 l 1,133,-1
 820 546 l 1,130,-1
102 351 m 1,134,-1
 102 255 l 1,135,-1
 205 255 l 1,136,-1
 205 351 l 1,137,-1
 102 351 l 1,134,-1
512 351 m 1,138,-1
 512 255 l 1,139,-1
 615 255 l 1,140,-1
 615 351 l 1,141,-1
 512 351 l 1,138,-1
410 255 m 1,142,-1
 410 351 l 1,143,-1
 307 351 l 1,144,-1
 307 255 l 1,145,-1
 410 255 l 1,142,-1
717 351 m 1,146,-1
 717 255 l 1,147,-1
 820 255 l 1,148,-1
 820 351 l 1,149,-1
 717 351 l 1,146,-1
922 62 m 1,150,-1
 922 159 l 1,151,-1
 820 159 l 1,152,-1
 820 62 l 1,153,-1
 922 62 l 1,150,-1
717 62 m 1,154,-1
 717 159 l 1,155,-1
 615 159 l 1,156,-1
 615 62 l 1,157,-1
 717 62 l 1,154,-1
512 62 m 1,158,-1
 512 159 l 1,159,-1
 410 159 l 1,160,-1
 410 62 l 1,161,-1
 512 62 l 1,158,-1
307 62 m 1,162,-1
 307 159 l 1,163,-1
 205 159 l 1,164,-1
 205 62 l 1,165,-1
 307 62 l 1,162,-1
102 -36 m 1,166,-1
 102 -130 l 1,167,-1
 205 -130 l 1,168,-1
 205 -36 l 1,169,-1
 102 -36 l 1,166,-1
307 -36 m 1,170,-1
 307 -130 l 1,171,-1
 410 -130 l 1,172,-1
 410 -36 l 1,173,-1
 307 -36 l 1,170,-1
512 -36 m 1,174,-1
 512 -130 l 1,175,-1
 615 -130 l 1,176,-1
 615 -36 l 1,177,-1
 512 -36 l 1,174,-1
717 -36 m 1,178,-1
 717 -130 l 1,179,-1
 820 -130 l 1,180,-1
 820 -36 l 1,181,-1
 717 -36 l 1,178,-1
922 -325 m 1,182,-1
 922 -228 l 1,183,-1
 820 -228 l 1,184,-1
 820 -325 l 1,185,-1
 922 -325 l 1,182,-1
717 -325 m 1,186,-1
 717 -228 l 1,187,-1
 615 -228 l 1,188,-1
 615 -325 l 1,189,-1
 717 -325 l 1,186,-1
512 -325 m 1,190,-1
 512 -228 l 1,191,-1
 410 -228 l 1,192,-1
 410 -325 l 1,193,-1
 512 -325 l 1,190,-1
307 -325 m 1,194,-1
 307 -228 l 1,195,-1
 205 -228 l 1,196,-1
 205 -325 l 1,197,-1
 307 -325 l 1,194,-1
102 -421 m 1,198,-1
 102 -517 l 1,199,-1
 205 -517 l 1,200,-1
 205 -421 l 1,201,-1
 102 -421 l 1,198,-1
307 -421 m 1,202,-1
 307 -517 l 1,203,-1
 410 -517 l 1,204,-1
 410 -421 l 1,205,-1
 307 -421 l 1,202,-1
512 -421 m 1,206,-1
 512 -517 l 1,207,-1
 615 -517 l 1,208,-1
 615 -421 l 1,209,-1
 512 -421 l 1,206,-1
717 -421 m 1,210,-1
 717 -517 l 1,211,-1
 820 -517 l 1,212,-1
 820 -421 l 1,213,-1
 717 -421 l 1,210,-1
922 1320 m 1,214,-1
 820 1320 l 1,215,-1
 820 1222 l 1,216,-1
 922 1222 l 1,217,-1
 922 1320 l 1,214,-1
717 1320 m 1,218,-1
 615 1320 l 1,219,-1
 615 1222 l 1,220,-1
 717 1222 l 1,221,-1
 717 1320 l 1,218,-1
512 1320 m 1,222,-1
 410 1320 l 1,223,-1
 410 1222 l 1,224,-1
 512 1222 l 1,225,-1
 512 1320 l 1,222,-1
307 1320 m 1,226,-1
 205 1320 l 1,227,-1
 205 1222 l 1,228,-1
 307 1222 l 1,229,-1
 307 1320 l 1,226,-1
820 1512 m 1,230,-1
 717 1512 l 1,231,-1
 717 1414 l 1,232,-1
 820 1414 l 1,233,-1
 820 1512 l 1,230,-1
615 1512 m 1,234,-1
 512 1512 l 1,235,-1
 512 1414 l 1,236,-1
 615 1414 l 1,237,-1
 615 1512 l 1,234,-1
410 1512 m 1,238,-1
 307 1512 l 1,239,-1
 307 1414 l 1,240,-1
 410 1414 l 1,241,-1
 410 1512 l 1,238,-1
205 1512 m 1,242,-1
 102 1512 l 1,243,-1
 102 1414 l 1,244,-1
 205 1414 l 1,245,-1
 205 1512 l 1,242,-1
922 1125 m 1,246,-1
 922 1029 l 1,247,-1
 1025 1029 l 1,248,-1
 1025 1125 l 1,249,-1
 922 1125 l 1,246,-1
1127 933 m 1,250,-1
 1025 933 l 1,251,-1
 1025 835 l 1,252,-1
 1127 835 l 1,253,-1
 1127 933 l 1,250,-1
922 738 m 1,254,-1
 922 642 l 1,255,-1
 1025 642 l 1,256,-1
 1025 738 l 1,257,-1
 922 738 l 1,254,-1
1025 546 m 1,258,-1
 1025 450 l 1,259,-1
 1127 450 l 1,260,-1
 1127 546 l 1,261,-1
 1025 546 l 1,258,-1
922 351 m 1,262,-1
 922 255 l 1,263,-1
 1025 255 l 1,264,-1
 1025 351 l 1,265,-1
 922 351 l 1,262,-1
1127 62 m 1,266,-1
 1127 159 l 1,267,-1
 1025 159 l 1,268,-1
 1025 62 l 1,269,-1
 1127 62 l 1,266,-1
922 -36 m 1,270,-1
 922 -130 l 1,271,-1
 1025 -130 l 1,272,-1
 1025 -36 l 1,273,-1
 922 -36 l 1,270,-1
1127 -325 m 1,274,-1
 1127 -228 l 1,275,-1
 1025 -228 l 1,276,-1
 1025 -325 l 1,277,-1
 1127 -325 l 1,274,-1
922 -421 m 1,278,-1
 922 -517 l 1,279,-1
 1025 -517 l 1,280,-1
 1025 -421 l 1,281,-1
 922 -421 l 1,278,-1
1127 1320 m 1,282,-1
 1025 1320 l 1,283,-1
 1025 1222 l 1,284,-1
 1127 1222 l 1,285,-1
 1127 1320 l 1,282,-1
1025 1512 m 1,286,-1
 922 1512 l 1,287,-1
 922 1414 l 1,288,-1
 1025 1414 l 1,289,-1
 1025 1512 l 1,286,-1
EndSplineSet
Validated: 1
EndChar

StartChar: filledbox
Encoding: 9632 9632 373
Width: 1229
GlyphClass: 2
Flags: W
LayerCount: 2
Fore
SplineSet
119 1108 m 1,0,-1
 1110 1108 l 1,1,-1
 1110 117 l 1,2,-1
 119 117 l 1,3,-1
 119 1108 l 1,0,-1
EndSplineSet
Validated: 1
EndChar

StartChar: filledrect
Encoding: 9644 9644 374
Width: 1229
GlyphClass: 2
Flags: W
LayerCount: 2
Fore
SplineSet
8 546 m 1,0,-1
 1221 546 l 1,1,-1
 1221 70 l 1,2,-1
 8 70 l 1,3,-1
 8 546 l 1,0,-1
EndSplineSet
Validated: 1
EndChar

StartChar: triagup
Encoding: 9650 9650 375
Width: 1229
GlyphClass: 2
Flags: W
LayerCount: 2
Fore
SplineSet
15 50 m 1,0,-1
 615 1198 l 1,1,-1
 1213 50 l 1,2,-1
 15 50 l 1,0,-1
EndSplineSet
Validated: 1
EndChar

StartChar: triagrt
Encoding: 9658 9658 376
Width: 1229
GlyphClass: 2
Flags: W
LayerCount: 2
Fore
SplineSet
52 1196 m 1,0,-1
 1227 586 l 1,1,-1
 52 -27 l 1,2,-1
 52 1196 l 1,0,-1
EndSplineSet
Validated: 1
EndChar

StartChar: triagdn
Encoding: 9660 9660 377
Width: 1229
GlyphClass: 2
Flags: W
LayerCount: 2
Fore
SplineSet
1213 1121 m 1,0,-1
 615 -27 l 1,1,-1
 15 1121 l 1,2,-1
 1213 1121 l 1,0,-1
EndSplineSet
Validated: 1
EndChar

StartChar: triaglf
Encoding: 9668 9668 378
Width: 1229
GlyphClass: 2
Flags: W
LayerCount: 2
Fore
SplineSet
1177 1196 m 1,0,-1
 1177 -27 l 1,1,-1
 2 586 l 1,2,-1
 1177 1196 l 1,0,-1
EndSplineSet
Validated: 1
EndChar

StartChar: circle
Encoding: 9675 9675 379
Width: 1229
GlyphClass: 2
Flags: W
LayerCount: 2
Fore
SplineSet
163 612 m 256,0,1
 163 734 163 734 223 839 c 128,-1,2
 283 944 283 944 387.5 1004.5 c 128,-1,3
 492 1065 492 1065 613 1065 c 0,4,5
 735 1065 735 1065 840 1004.5 c 128,-1,6
 945 944 945 944 1005.5 838.5 c 128,-1,7
 1066 733 1066 733 1066 612 c 256,8,9
 1066 491 1066 491 1005.5 386.5 c 128,-1,10
 945 282 945 282 840.5 222 c 128,-1,11
 736 162 736 162 613 162 c 0,12,13
 491 162 491 162 387 222 c 128,-1,14
 283 282 283 282 223 386 c 128,-1,15
 163 490 163 490 163 612 c 256,0,1
249 612 m 0,16,17
 249 514 249 514 298 429.5 c 128,-1,18
 347 345 347 345 430.5 296.5 c 128,-1,19
 514 248 514 248 613 248 c 0,20,21
 711 248 711 248 795.5 296 c 128,-1,22
 880 344 880 344 930 429 c 128,-1,23
 980 514 980 514 980 612 c 256,24,25
 980 710 980 710 931 795.5 c 128,-1,26
 882 881 882 881 796.5 930 c 128,-1,27
 711 979 711 979 613 979 c 0,28,29
 516 979 516 979 431.5 930 c 128,-1,30
 347 881 347 881 298 796.5 c 128,-1,31
 249 712 249 712 249 612 c 0,16,17
EndSplineSet
Validated: 1
EndChar

StartChar: invbullet
Encoding: 9688 9688 380
Width: 1229
GlyphClass: 2
Flags: W
LayerCount: 2
Fore
SplineSet
37 0 m 1,0,-1
 37 1155 l 1,1,-1
 1192 1155 l 1,2,-1
 1192 0 l 1,3,-1
 37 0 l 1,0,-1
172 577 m 256,4,5
 172 459 172 459 231 357 c 128,-1,6
 290 255 290 255 391.5 196 c 128,-1,7
 493 137 493 137 612 137 c 0,8,9
 730 137 730 137 832.5 196 c 128,-1,10
 935 255 935 255 994 357.5 c 128,-1,11
 1053 460 1053 460 1053 577 c 0,12,13
 1053 695 1053 695 994 797.5 c 128,-1,14
 935 900 935 900 833 959 c 128,-1,15
 731 1018 731 1018 612 1018 c 0,16,17
 494 1018 494 1018 391.5 958.5 c 128,-1,18
 289 899 289 899 230.5 797 c 128,-1,19
 172 695 172 695 172 577 c 256,4,5
EndSplineSet
Validated: 1
EndChar

StartChar: invcircle
Encoding: 9689 9689 381
Width: 1229
GlyphClass: 2
Flags: W
LayerCount: 2
Fore
SplineSet
37 0 m 1,0,-1
 37 1155 l 1,1,-1
 1192 1155 l 1,2,-1
 1192 0 l 1,3,-1
 37 0 l 1,0,-1
249 577 m 256,4,5
 249 674 249 674 298 759 c 128,-1,6
 347 844 347 844 432 893 c 128,-1,7
 517 942 517 942 614 942 c 256,8,9
 711 942 711 942 796 893 c 128,-1,10
 881 844 881 844 930 759 c 128,-1,11
 979 674 979 674 979 577 c 256,12,13
 979 480 979 480 930 395 c 128,-1,14
 881 310 881 310 796 261 c 128,-1,15
 711 212 711 212 614 212 c 256,16,17
 517 212 517 212 432 261 c 128,-1,18
 347 310 347 310 298 395 c 128,-1,19
 249 480 249 480 249 577 c 256,4,5
172 577 m 256,20,21
 172 459 172 459 231 357 c 128,-1,22
 290 255 290 255 391.5 196 c 128,-1,23
 493 137 493 137 612 137 c 0,24,25
 730 137 730 137 832.5 196 c 128,-1,26
 935 255 935 255 994 357.5 c 128,-1,27
 1053 460 1053 460 1053 577 c 0,28,29
 1053 695 1053 695 994 797.5 c 128,-1,30
 935 900 935 900 833 959 c 128,-1,31
 731 1018 731 1018 612 1018 c 0,32,33
 494 1018 494 1018 391.5 958.5 c 128,-1,34
 289 899 289 899 230.5 797 c 128,-1,35
 172 695 172 695 172 577 c 256,20,21
EndSplineSet
Validated: 1
EndChar

StartChar: smileface
Encoding: 9786 9786 382
Width: 1229
GlyphClass: 2
Flags: W
LayerCount: 2
Fore
SplineSet
27 589 m 256,0,1
 27 747 27 747 105.5 883 c 128,-1,2
 184 1019 184 1019 320 1097.5 c 128,-1,3
 456 1176 456 1176 614 1176 c 256,4,5
 772 1176 772 1176 907.5 1097.5 c 128,-1,6
 1043 1019 1043 1019 1122 883 c 128,-1,7
 1201 747 1201 747 1201 589 c 256,8,9
 1201 431 1201 431 1122.5 295 c 128,-1,10
 1044 159 1044 159 908 80.5 c 128,-1,11
 772 2 772 2 614 2 c 256,12,13
 456 2 456 2 320 80.5 c 128,-1,14
 184 159 184 159 105.5 295 c 128,-1,15
 27 431 27 431 27 589 c 256,0,1
90 589 m 0,16,17
 90 449 90 449 160 327.5 c 128,-1,18
 230 206 230 206 351.5 135.5 c 128,-1,19
 473 65 473 65 614 65 c 0,20,21
 754 65 754 65 875.5 135.5 c 128,-1,22
 997 206 997 206 1067 328 c 128,-1,23
 1137 450 1137 450 1137 589 c 0,24,25
 1137 729 1137 729 1067 850 c 128,-1,26
 997 971 997 971 876 1041.5 c 128,-1,27
 755 1112 755 1112 614 1112 c 0,28,29
 474 1112 474 1112 352.5 1042 c 128,-1,30
 231 972 231 972 160.5 850 c 128,-1,31
 90 728 90 728 90 589 c 0,16,17
326 741 m 256,32,33
 326 770 326 770 346.5 791 c 128,-1,34
 367 812 367 812 396 812 c 256,35,36
 425 812 425 812 446 791 c 128,-1,37
 467 770 467 770 467 741 c 256,38,39
 467 712 467 712 446 691.5 c 128,-1,40
 425 671 425 671 396 671 c 256,41,42
 367 671 367 671 346.5 691.5 c 128,-1,43
 326 712 326 712 326 741 c 256,32,33
761 741 m 256,44,45
 761 770 761 770 781.5 791 c 128,-1,46
 802 812 802 812 831 812 c 256,47,48
 860 812 860 812 881 791 c 128,-1,49
 902 770 902 770 902 741 c 256,50,51
 902 712 902 712 881 691.5 c 128,-1,52
 860 671 860 671 831 671 c 256,53,54
 802 671 802 671 781.5 691.5 c 128,-1,55
 761 712 761 712 761 741 c 256,44,45
353 442 m 1,56,57
 411 364 411 364 473.5 335 c 128,-1,58
 536 306 536 306 614 306 c 0,59,60
 694 306 694 306 756 335.5 c 128,-1,61
 818 365 818 365 875 442 c 1,62,-1
 933 393 l 1,63,64
 821 216 821 216 614 216 c 0,65,66
 543 216 543 216 485.5 236 c 128,-1,67
 428 256 428 256 384.5 290 c 128,-1,68
 341 324 341 324 295 393 c 1,69,-1
 353 442 l 1,56,57
EndSplineSet
Validated: 1
EndChar

StartChar: invsmileface
Encoding: 9787 9787 383
Width: 1229
GlyphClass: 2
Flags: W
LayerCount: 2
Fore
SplineSet
27 589 m 256,0,1
 27 747 27 747 105.5 883 c 128,-1,2
 184 1019 184 1019 320 1097.5 c 128,-1,3
 456 1176 456 1176 614 1176 c 256,4,5
 772 1176 772 1176 907.5 1097.5 c 128,-1,6
 1043 1019 1043 1019 1122 883 c 128,-1,7
 1201 747 1201 747 1201 589 c 256,8,9
 1201 431 1201 431 1122.5 295 c 128,-1,10
 1044 159 1044 159 908 80.5 c 128,-1,11
 772 2 772 2 614 2 c 256,12,13
 456 2 456 2 320 80.5 c 128,-1,14
 184 159 184 159 105.5 295 c 128,-1,15
 27 431 27 431 27 589 c 256,0,1
326 741 m 256,16,17
 326 712 326 712 346.5 691.5 c 128,-1,18
 367 671 367 671 396 671 c 256,19,20
 425 671 425 671 446 691.5 c 128,-1,21
 467 712 467 712 467 741 c 256,22,23
 467 770 467 770 446 791 c 128,-1,24
 425 812 425 812 396 812 c 256,25,26
 367 812 367 812 346.5 791 c 128,-1,27
 326 770 326 770 326 741 c 256,16,17
761 741 m 256,28,29
 761 712 761 712 781.5 691.5 c 128,-1,30
 802 671 802 671 831 671 c 256,31,32
 860 671 860 671 881 691.5 c 128,-1,33
 902 712 902 712 902 741 c 256,34,35
 902 770 902 770 881 791 c 128,-1,36
 860 812 860 812 831 812 c 256,37,38
 802 812 802 812 781.5 791 c 128,-1,39
 761 770 761 770 761 741 c 256,28,29
295 393 m 1,40,41
 340 325 340 325 383.5 291 c 128,-1,42
 427 257 427 257 484 236.5 c 128,-1,43
 541 216 541 216 614 216 c 0,44,45
 821 216 821 216 933 393 c 1,46,-1
 875 442 l 1,47,48
 817 364 817 364 754.5 335 c 128,-1,49
 692 306 692 306 614 306 c 0,50,51
 535 306 535 306 472.5 335.5 c 128,-1,52
 410 365 410 365 353 442 c 1,53,-1
 295 393 l 1,40,41
EndSplineSet
Validated: 1
EndChar

StartChar: sun
Encoding: 9788 9788 384
Width: 1229
GlyphClass: 2
Flags: W
LayerCount: 2
Fore
SplineSet
224 907 m 1,0,-1
 388 742 l 1,1,2
 475 811 475 811 578 821 c 1,3,-1
 578 1054 l 1,4,-1
 650 1054 l 1,5,-1
 650 821 l 1,6,7
 752 812 752 812 839 742 c 1,8,-1
 1004 907 l 1,9,-1
 1055 856 l 1,10,-1
 890 691 l 1,11,12
 960 604 960 604 969 502 c 1,13,-1
 1202 502 l 1,14,-1
 1202 430 l 1,15,-1
 969 430 l 1,16,17
 959 327 959 327 890 240 c 1,18,-1
 1055 76 l 1,19,-1
 1004 25 l 1,20,-1
 839 189 l 1,21,22
 752 119 752 119 650 110 c 1,23,-1
 650 -122 l 1,24,-1
 578 -122 l 1,25,-1
 578 110 l 1,26,27
 475 120 475 120 388 189 c 1,28,-1
 224 25 l 1,29,-1
 173 76 l 1,30,-1
 337 240 l 1,31,32
 268 327 268 327 258 430 c 1,33,-1
 26 430 l 1,34,-1
 26 502 l 1,35,-1
 258 502 l 1,36,37
 267 604 267 604 337 691 c 1,38,-1
 173 856 l 1,39,-1
 224 907 l 1,0,-1
329 466 m 256,40,41
 329 348 329 348 411.5 264.5 c 128,-1,42
 494 181 494 181 614 181 c 256,43,44
 734 181 734 181 816.5 264.5 c 128,-1,45
 899 348 899 348 899 466 c 256,46,47
 899 584 899 584 815.5 667.5 c 128,-1,48
 732 751 732 751 614 751 c 256,49,50
 496 751 496 751 412.5 667.5 c 128,-1,51
 329 584 329 584 329 466 c 256,40,41
EndSplineSet
Validated: 1
EndChar

StartChar: female
Encoding: 9792 9792 385
Width: 1229
GlyphClass: 2
Flags: W
LayerCount: 2
Fore
SplineSet
344 376 m 1,0,-1
 578 376 l 1,1,-1
 578 578 l 1,2,3
 464 592 464 592 390 677 c 128,-1,4
 316 762 316 762 316 874 c 0,5,6
 316 997 316 997 403.5 1084.5 c 128,-1,7
 491 1172 491 1172 614 1172 c 256,8,9
 737 1172 737 1172 824.5 1084.5 c 128,-1,10
 912 997 912 997 912 874 c 0,11,12
 912 763 912 763 838 678 c 128,-1,13
 764 593 764 593 650 578 c 1,14,-1
 650 376 l 1,15,-1
 884 376 l 1,16,-1
 884 304 l 1,17,-1
 650 304 l 1,18,-1
 650 70 l 1,19,-1
 578 70 l 1,20,-1
 578 304 l 1,21,-1
 344 304 l 1,22,-1
 344 376 l 1,0,-1
388 874 m 0,23,24
 388 780 388 780 454 714 c 128,-1,25
 520 648 520 648 614 648 c 0,26,27
 709 648 709 648 774.5 715 c 128,-1,28
 840 782 840 782 840 874 c 0,29,30
 840 967 840 967 774 1033.5 c 128,-1,31
 708 1100 708 1100 614 1100 c 0,32,33
 523 1100 523 1100 455.5 1035 c 128,-1,34
 388 970 388 970 388 874 c 0,23,24
EndSplineSet
Validated: 1
EndChar

StartChar: male
Encoding: 9794 9794 386
Width: 1229
GlyphClass: 2
Flags: W
LayerCount: 2
Fore
SplineSet
164 412 m 256,0,1
 164 535 164 535 251.5 622.5 c 128,-1,2
 339 710 339 710 462 710 c 0,3,4
 564 710 564 710 645 646 c 1,5,-1
 902 903 l 1,6,-1
 676 923 l 1,7,-1
 674 978 l 1,8,-1
 1005 978 l 1,9,-1
 1028 955 l 1,10,-1
 1028 624 l 1,11,-1
 973 626 l 1,12,-1
 953 852 l 1,13,-1
 696 595 l 1,14,15
 760 514 760 514 760 412 c 0,16,17
 760 289 760 289 672.5 201.5 c 128,-1,18
 585 114 585 114 462 114 c 256,19,20
 339 114 339 114 251.5 201.5 c 128,-1,21
 164 289 164 289 164 412 c 256,0,1
236 412 m 0,22,23
 236 318 236 318 302 252 c 128,-1,24
 368 186 368 186 462 186 c 0,25,26
 557 186 557 186 622.5 253 c 128,-1,27
 688 320 688 320 688 412 c 0,28,29
 688 505 688 505 622 571.5 c 128,-1,30
 556 638 556 638 462 638 c 0,31,32
 371 638 371 638 303.5 573 c 128,-1,33
 236 508 236 508 236 412 c 0,22,23
EndSplineSet
Validated: 1
EndChar

StartChar: spade
Encoding: 9824 9824 387
Width: 1229
GlyphClass: 2
Flags: W
LayerCount: 2
Fore
SplineSet
640 1195 m 1,0,1
 640 1109 640 1109 711 1002.5 c 128,-1,2
 782 896 782 896 891 810 c 0,3,4
 1021 708 1021 708 1073.5 632.5 c 128,-1,5
 1126 557 1126 557 1126 478 c 0,6,7
 1126 370 1126 370 1058 305 c 128,-1,8
 990 240 990 240 891 240 c 0,9,10
 831 240 831 240 765 268.5 c 128,-1,11
 699 297 699 297 662 340 c 1,12,13
 662 207 662 207 749.5 131.5 c 128,-1,14
 837 56 837 56 982 56 c 1,15,-1
 982 0 l 1,16,-1
 246 0 l 1,17,-1
 246 56 l 1,18,19
 391 56 391 56 478.5 131.5 c 128,-1,20
 566 207 566 207 566 340 c 1,21,22
 528 297 528 297 462 268.5 c 128,-1,23
 396 240 396 240 337 240 c 0,24,25
 237 240 237 240 169.5 305 c 128,-1,26
 102 370 102 370 102 478 c 0,27,28
 102 555 102 555 151.5 628 c 128,-1,29
 201 701 201 701 337 810 c 1,30,31
 446 895 446 895 517 1002.5 c 128,-1,32
 588 1110 588 1110 588 1195 c 1,33,-1
 640 1195 l 1,0,1
EndSplineSet
Validated: 1
EndChar

StartChar: club
Encoding: 9827 9827 388
Width: 1229
GlyphClass: 2
Flags: W
LayerCount: 2
Fore
SplineSet
614 1195 m 256,0,1
 699 1195 699 1195 761 1164.5 c 128,-1,2
 823 1134 823 1134 857 1079.5 c 128,-1,3
 891 1025 891 1025 891 961 c 0,4,5
 891 894 891 894 857.5 827.5 c 128,-1,6
 824 761 824 761 773 725 c 1,7,-1
 828 728 l 1,8,9
 963 728 963 728 1047 659.5 c 128,-1,10
 1131 591 1131 591 1131 478 c 0,11,12
 1131 370 1131 370 1063 305 c 128,-1,13
 995 240 995 240 896 240 c 0,14,15
 835 240 835 240 767 269.5 c 128,-1,16
 699 299 699 299 662 340 c 1,17,18
 662 207 662 207 749.5 131.5 c 128,-1,19
 837 56 837 56 982 56 c 1,20,-1
 982 0 l 1,21,-1
 246 0 l 1,22,-1
 246 56 l 1,23,24
 391 56 391 56 478.5 131.5 c 128,-1,25
 566 207 566 207 566 340 c 1,26,27
 530 299 530 299 462.5 269.5 c 128,-1,28
 395 240 395 240 332 240 c 0,29,30
 232 240 232 240 164.5 305 c 128,-1,31
 97 370 97 370 97 478 c 0,32,33
 97 592 97 592 181 660 c 128,-1,34
 265 728 265 728 400 728 c 1,35,-1
 455 725 l 1,36,37
 404 761 404 761 370.5 827.5 c 128,-1,38
 337 894 337 894 337 961 c 0,39,40
 337 1025 337 1025 371 1079.5 c 128,-1,41
 405 1134 405 1134 467 1164.5 c 128,-1,42
 529 1195 529 1195 614 1195 c 256,0,1
EndSplineSet
Validated: 1
EndChar

StartChar: heart
Encoding: 9829 9829 389
Width: 1229
GlyphClass: 2
Flags: W
LayerCount: 2
Fore
SplineSet
588 -1 m 1,0,1
 588 67 588 67 528.5 171.5 c 128,-1,2
 469 276 469 276 337 434 c 1,3,4
 102 719 102 719 102 880 c 0,5,6
 102 950 102 950 135.5 1007 c 128,-1,7
 169 1064 169 1064 226 1096 c 128,-1,8
 283 1128 283 1128 347 1128 c 0,9,10
 436 1128 436 1128 508.5 1062.5 c 128,-1,11
 581 997 581 997 611 898 c 1,12,-1
 617 898 l 1,13,14
 647 998 647 998 720 1063 c 128,-1,15
 793 1128 793 1128 881 1128 c 0,16,17
 945 1128 945 1128 1002 1096 c 128,-1,18
 1059 1064 1059 1064 1092.5 1006.5 c 128,-1,19
 1126 949 1126 949 1126 880 c 0,20,21
 1126 719 1126 719 891 434 c 1,22,23
 783 301 783 301 738.5 234 c 128,-1,24
 694 167 694 167 667 107.5 c 128,-1,25
 640 48 640 48 640 -1 c 1,26,-1
 588 -1 l 1,0,1
EndSplineSet
Validated: 1
EndChar

StartChar: diamond
Encoding: 9830 9830 390
Width: 1229
GlyphClass: 2
Flags: W
LayerCount: 2
Fore
SplineSet
132 597 m 1,0,-1
 132 600 l 1,1,2
 381 884 381 884 608 1198 c 1,3,-1
 620 1198 l 1,4,5
 847 884 847 884 1096 600 c 1,6,-1
 1096 597 l 1,7,8
 847 313 847 313 620 -1 c 1,9,-1
 608 -1 l 1,10,11
 381 313 381 313 132 597 c 1,0,-1
EndSplineSet
Validated: 1
EndChar

StartChar: musicalnote
Encoding: 9834 9834 391
Width: 1229
GlyphClass: 2
Flags: W
LayerCount: 2
Fore
SplineSet
788 272 m 5,0,1
 823 310 823 310 843.5 367.5 c 132,-1,2
 864 425 864 425 864 490 c 4,3,4
 864 594 864 594 809 676.5 c 132,-1,5
 754 759 754 759 664 789 c 5,6,-1
 664 191 l 6,7,8
 664 123 664 123 596 73.5 c 132,-1,9
 528 24 528 24 442 24 c 4,10,11
 373 24 373 24 327.5 58 c 132,-1,12
 282 92 282 92 282 148 c 4,13,14
 282 213 282 213 350.5 263 c 132,-1,15
 419 313 419 313 502 313 c 4,16,17
 560 313 560 313 602 290 c 5,18,-1
 602 1126 l 5,19,-1
 640 1126 l 5,20,21
 652 1010 652 1010 773 887 c 4,22,23
 860 798 860 798 898.5 715.5 c 132,-1,24
 937 633 937 633 937 531 c 4,25,26
 937 459 937 459 909.5 391 c 132,-1,27
 882 323 882 323 834 272 c 5,28,-1
 788 272 l 5,0,1
EndSplineSet
Validated: 1
EndChar

StartChar: uni266B
Encoding: 9835 9835 392
Width: 1229
GlyphClass: 2
Flags: W
HStem: -46 289<189.119 418.484> 44 289<779.119 1008.48>
VStem: 432 62<220 924> 1022 62<310 1005>
LayerCount: 2
Fore
SplineSet
862 44 m 0,0,1
 793 44 793 44 747.5 78 c 128,-1,2
 702 112 702 112 702 168 c 0,3,4
 702 233 702 233 770.5 283 c 128,-1,5
 839 333 839 333 922 333 c 0,6,7
 980 333 980 333 1022 310 c 1,8,-1
 1022 1005 l 5,9,-1
 494 924 l 5,10,-1
 494 121 l 2,11,12
 494 53 494 53 426 3.5 c 128,-1,13
 358 -46 358 -46 272 -46 c 0,14,15
 203 -46 203 -46 157.5 -12 c 128,-1,16
 112 22 112 22 112 78 c 0,17,18
 112 143 112 143 180.5 193 c 128,-1,19
 249 243 249 243 332 243 c 0,20,21
 390 243 390 243 432 220 c 1,22,-1
 432 1055 l 1,23,-1
 1084 1155 l 1,24,-1
 1084 211 l 2,25,26
 1084 143 1084 143 1016 93.5 c 128,-1,27
 948 44 948 44 862 44 c 0,0,1
EndSplineSet
Validated: 1
EndChar

StartChar: IJ
Encoding: 306 306 393
Width: 1229
GlyphClass: 2
Flags: W
LayerCount: 2
Fore
SplineSet
98 1349 m 1,0,-1
 289 1349 l 1,1,-1
 289 0 l 1,2,-1
 98 0 l 1,3,-1
 98 1349 l 1,0,-1
768 135 m 0,4,5
 872 135 872 135 919.5 206.5 c 128,-1,6
 967 278 967 278 967 416 c 2,7,-1
 967 1193 l 1,8,-1
 696 1193 l 1,9,-1
 696 1349 l 1,10,-1
 1157 1349 l 1,11,-1
 1157 420 l 2,12,13
 1157 209 1157 209 1056 94.5 c 128,-1,14
 955 -20 955 -20 767 -20 c 0,15,16
 599 -20 599 -20 506.5 66.5 c 128,-1,17
 414 153 414 153 377 350 c 1,18,-1
 563 381 l 1,19,20
 583 252 583 252 634.5 193.5 c 128,-1,21
 686 135 686 135 768 135 c 0,4,5
EndSplineSet
Validated: 1
EndChar

StartChar: ij
Encoding: 307 307 394
Width: 1229
GlyphClass: 2
Flags: W
LayerCount: 2
Fore
SplineSet
237 1082 m 1,0,-1
 416 1082 l 1,1,-1
 416 0 l 1,2,-1
 236 0 l 1,3,-1
 237 1082 l 1,0,-1
216 1292 m 1,4,-1
 216 1484 l 1,5,-1
 416 1484 l 1,6,-1
 416 1292 l 1,7,-1
 216 1292 l 1,4,-1
881 1082 m 1,8,-1
 1061 1082 l 1,9,-1
 1061 -28 l 2,10,11
 1061 -215 1061 -215 949 -320 c 128,-1,12
 837 -425 837 -425 630 -425 c 0,13,14
 551 -425 551 -425 469 -412 c 128,-1,15
 387 -399 387 -399 342 -382 c 1,16,-1
 342 -242 l 1,17,18
 492 -276 492 -276 615 -276 c 0,19,20
 743 -276 743 -276 812 -210 c 128,-1,21
 881 -144 881 -144 881 -25 c 2,22,-1
 881 1082 l 1,8,-1
861 1292 m 1,23,-1
 861 1484 l 1,24,-1
 1061 1484 l 1,25,-1
 1061 1292 l 1,26,-1
 861 1292 l 1,23,-1
EndSplineSet
Validated: 1
EndChar

StartChar: minute
Encoding: 8242 8242 396
Width: 1229
GlyphClass: 2
Flags: W
LayerCount: 2
Fore
SplineSet
684 845 m 1,0,-1
 543 845 l 1,1,-1
 502 1484 l 1,2,-1
 726 1484 l 1,3,-1
 684 845 l 1,0,-1
EndSplineSet
Validated: 1
EndChar

StartChar: second
Encoding: 8243 8243 397
Width: 1229
GlyphClass: 2
Flags: W
LayerCount: 2
Fore
SplineSet
908 845 m 1,0,-1
 766 845 l 1,1,-1
 726 1484 l 1,2,-1
 950 1484 l 1,3,-1
 908 845 l 1,0,-1
459 845 m 1,4,-1
 318 845 l 1,5,-1
 277 1484 l 1,6,-1
 501 1484 l 1,7,-1
 459 845 l 1,4,-1
EndSplineSet
Validated: 1
EndChar

StartChar: uni2105
Encoding: 8453 8453 398
Width: 1229
GlyphClass: 2
Flags: W
LayerCount: 2
Fore
SplineSet
1229 404 m 0,0,1
 1229 203 1229 203 1158 95.5 c 128,-1,2
 1087 -12 1087 -12 959 -12 c 256,3,4
 831 -12 831 -12 762.5 95.5 c 128,-1,5
 694 203 694 203 694 404 c 0,6,7
 694 615 694 615 760.5 720 c 128,-1,8
 827 825 827 825 963 825 c 0,9,10
 1229 825 1229 825 1229 404 c 0,0,1
1081 404 m 0,11,12
 1081 569 1081 569 1053 641.5 c 128,-1,13
 1025 714 1025 714 963 714 c 0,14,15
 897 714 897 714 869 641 c 128,-1,16
 841 568 841 568 841 404 c 0,17,18
 841 250 841 250 869.5 174 c 128,-1,19
 898 98 898 98 961 98 c 0,20,21
 1022 98 1022 98 1051.5 172 c 128,-1,22
 1081 246 1081 246 1081 404 c 0,11,12
146 945 m 0,23,24
 146 801 146 801 180.5 718.5 c 128,-1,25
 215 636 215 636 272 636 c 0,26,27
 355 636 355 636 376 805 c 1,28,-1
 517 796 l 1,29,30
 504 675 504 675 439 598.5 c 128,-1,31
 374 522 374 522 276 522 c 0,32,33
 141 522 141 522 70.5 633.5 c 128,-1,34
 0 745 0 745 0 942 c 0,35,36
 0 1144 0 1144 70 1252 c 128,-1,37
 140 1360 140 1360 275 1360 c 0,38,39
 369 1360 369 1360 430 1292.5 c 128,-1,40
 491 1225 491 1225 512 1101 c 1,41,-1
 369 1090 l 1,42,43
 359 1162 359 1162 337.5 1204.5 c 128,-1,44
 316 1247 316 1247 271 1247 c 0,45,46
 146 1247 146 1247 146 945 c 0,23,24
322 0 m 1,47,-1
 204 0 l 1,48,-1
 907 1349 l 1,49,-1
 1022 1349 l 1,50,-1
 322 0 l 1,47,-1
EndSplineSet
Validated: 1
EndChar

StartChar: uni2113
Encoding: 8467 8467 399
Width: 1229
GlyphClass: 2
Flags: W
LayerCount: 2
Fore
SplineSet
710 78 m 0,0,1
 761 78 761 78 800 130 c 128,-1,2
 839 182 839 182 856 291 c 1,3,-1
 925 291 l 1,4,5
 885 -20 885 -20 666 -20 c 0,6,7
 551 -20 551 -20 484.5 63 c 128,-1,8
 418 146 418 146 418 294 c 2,9,-1
 418 469 l 1,10,11
 367 442 367 442 286 411 c 1,12,-1
 286 484 l 1,13,14
 365 515 365 515 418 543 c 1,15,-1
 418 1130 l 2,16,17
 418 1277 418 1277 483.5 1353 c 128,-1,18
 549 1429 549 1429 672 1429 c 0,19,20
 777 1429 777 1429 840 1347.5 c 128,-1,21
 903 1266 903 1266 903 1129 c 0,22,23
 903 944 903 944 815 784 c 128,-1,24
 727 624 727 624 584 542 c 1,25,-1
 584 298 l 2,26,27
 584 197 584 197 620 137.5 c 128,-1,28
 656 78 656 78 710 78 c 0,0,1
812 1122 m 0,29,30
 812 1221 812 1221 776 1287 c 128,-1,31
 740 1353 740 1353 685 1353 c 0,32,33
 635 1353 635 1353 609.5 1301.5 c 128,-1,34
 584 1250 584 1250 584 1129 c 2,35,-1
 584 622 l 1,36,37
 686 691 686 691 749 828.5 c 128,-1,38
 812 966 812 966 812 1122 c 0,29,30
EndSplineSet
Validated: 1
EndChar

StartChar: uni25A1
Encoding: 9633 9633 400
Width: 1229
GlyphClass: 2
Flags: W
LayerCount: 2
Fore
SplineSet
2 1225 m 1,0,-1
 1227 1225 l 1,1,-1
 1227 0 l 1,2,-1
 2 0 l 1,3,-1
 2 1225 l 1,0,-1
78 1149 m 1,4,-1
 78 76 l 1,5,-1
 1151 76 l 1,6,-1
 1151 1149 l 1,7,-1
 78 1149 l 1,4,-1
EndSplineSet
Validated: 1
EndChar

StartChar: uni25AA
Encoding: 9642 9642 401
Width: 1229
GlyphClass: 2
Flags: W
LayerCount: 2
Fore
SplineSet
868 383 m 1,0,-1
 360 383 l 1,1,-1
 360 891 l 1,2,-1
 868 891 l 1,3,-1
 868 383 l 1,0,-1
EndSplineSet
Validated: 1
EndChar

StartChar: uni25AB
Encoding: 9643 9643 402
Width: 1229
GlyphClass: 2
Flags: W
LayerCount: 2
Fore
SplineSet
868 383 m 1,0,-1
 360 383 l 1,1,-1
 360 891 l 1,2,-1
 868 891 l 1,3,-1
 868 383 l 1,0,-1
792 459 m 1,4,-1
 792 813 l 1,5,-1
 436 813 l 1,6,-1
 436 459 l 1,7,-1
 792 459 l 1,4,-1
EndSplineSet
Validated: 1
EndChar

